<?xml version="1.0" encoding="utf-8"?>
<!-- Generator: Adobe Illustrator 27.7.0, SVG Export Plug-In . SVG Version: 6.00 Build 0)  -->
<svg version="1.1" xmlns="http://www.w3.org/2000/svg" xmlns:xlink="http://www.w3.org/1999/xlink" x="0px" y="0px"
	 viewBox="0 0 99.4 96.1" style="enable-background:new 0 0 99.4 96.1;" xml:space="preserve">
<style type="text/css">
	.st0{display:none;}
	.st1{display:inline;}
</style>
<g id="Layer_1" class="st0">
	<g class="st1">
		<path d="M48.7,18.7h33.5c4.4,0,7.1,4.7,4.9,8.5l-16.7,29l-16.7,29c-2.2,3.8-7.6,3.8-9.8,0l-16.7-29l-16.7-29
			c-2.2-3.8,0.5-8.5,4.9-8.5H48.7z"/>
	</g>
</g>
<g id="Layer_2">
	<g>
		<path d="M49.7,82.7H16.2c-4.4,0-7.1-4.7-4.9-8.5l16.7-29l16.7-29c2.2-3.8,7.6-3.8,9.8,0l16.7,29l16.7,29c2.2,3.8-0.5,8.5-4.9,8.5
			H49.7z"/>
	</g>
</g>
</svg>
