<?xml version="1.0" encoding="utf-8"?>
<!-- Generator: Adobe Illustrator 27.7.0, SVG Export Plug-In . SVG Version: 6.00 Build 0)  -->
<svg version="1.1" id="Layer_1" xmlns="http://www.w3.org/2000/svg" xmlns:xlink="http://www.w3.org/1999/xlink" x="0px" y="0px"
	 viewBox="0 0 701.3 490.9" style="enable-background:new 0 0 701.3 490.9;" xml:space="preserve">
<style type="text/css">
	.st0{fill:#181C1A;}
	.st1{fill:#171C19;}
	.st2{fill:#181D1A;}
	.st3{fill:#171B18;}
	.st4{fill:#151A18;}
	.st5{fill:#222724;}
	.st6{fill:#FAFAFA;}
	.st7{fill:#F9F9F9;}
	.st8{fill:#FFFFFF;}
	.st9{fill:#F3F4F3;}
	.st10{fill:#FCFCFC;}
	.st11{fill:#F5F6F5;}
	.st12{fill:none;}
</style>
<path class="st0" d="M686.6,371.4c-4.1-20.8-24.8-38.1-48.4-40.6c-8.8-0.9-17.6-1.9-25.9-4.9c-10-3.6-19.1-8.7-23.9-19
	c-5.4-11.7-1.1-19.9,11.6-22c14.2-2.3,33.7,10.1,39.4,25c1.3,3.4,2.2,7,3.7,10.3c1.6,3.7,4.8,4.4,8.4,3.3c3.8-1.2,5.4-3.8,4.3-7.7
	c-4.8-16.8-9.5-33.5-14.4-50.3c-1.2-4.1-4-5.9-8.4-4.8c-4.3,1.1-6.2,3.3-4.6,8c1.2,3.3-0.2,4.4-3.5,3.3c-3.8-1.2-7.6-2.4-11.5-3.3
	c-19-4.3-36.6-2.3-50.2,13.3c-11.8,13.6-14.5,29.5-10.5,46.8c4,17.6,13.8,29.5,31.9,33.8c6.3,1.5,12.6,2.8,19.5,3.8
	c2.3,0.4,4.1,0.7,5.9,0.7c11.4,2,22.3,5.5,31.9,12.2c8.5,5.9,10.4,14.7,5.3,23.6c-5.9,10.3-24.4,14.2-35.6,7.2
	c-12.5-7.9-23.4-17.1-27-32.5c-1-4.1-4.4-5.4-8.2-4.5c-3.5,0.8-4.5,3.6-4,7c2.6,16.3,5.2,32.6,7.9,48.8c1.1,6.5,5.5,8,10.2,3.6
	c4.3-4.1,9.2-4.9,14.7-3.8c5.4,1.1,10.8,2.2,16.1,3.5c12.6,3.1,24.6,2.3,36.4-3.6C679.1,417.9,691.1,394.4,686.6,371.4z
	 M650.5,424.5c-10,4-19.8,3.1-29.8,0.7c-5.7-1.3-11.3-3-17.1-3.3c-5.9-0.3-11.6-0.2-16.7,4.9c-1.9-12-3.7-23.2-5.4-34.4
	c6,8.2,13.3,14.6,21.2,20.3c12.1,8.7,24.6,10.9,38.9,4.5c14.1-6.3,23.5-28.7,4.6-42.7c-11.3-8.4-24.2-12.2-37.8-14.4
	c-8.7-1.4-17.4-2.9-25.8-5.5c-8.3-2.5-14.6-7.6-18.4-15.1c-5.6-10.7-8-22.2-5.2-34.3c5.2-22.7,29.1-36.7,51.6-30.4
	c3.5,1,7,2.1,10.5,3.1c8.4,2.4,11,1.4,15.2-6c3,10.4,5.9,20.5,8.7,30.6c-5.7-9-13.3-15.5-22.7-20c-9.4-4.5-19.1-6.8-29.4-3
	c-11.7,4.4-16.4,15.4-12,27.2c5.6,15.2,18.1,21.9,32.2,26.5c8.6,2.8,17.7,3.1,26.5,4.7c14.1,3,26,9.7,34.8,22
	C689.8,384.8,675.5,414.5,650.5,424.5z"/>
<path class="st0" d="M449.6,301.1c-0.3-3.5-3.5-2.9-5.9-2.9c-13.5-0.1-27-0.1-40.5-0.2c-8.9-0.1-9.4,0.3-8.9,9.1
	c0,0.7,0.2,1.3,0.2,2c0.1,3.6,1.9,5,5.4,5c4.5,0,9,0.3,13.5,0.4c5.3,0.2,5.4,0.2,3.1,5.3c-8.8,19.9-17.6,39.8-26.4,59.7
	c-2.8,6.1-5.6,12.2-8.7,19.2c-9.2-25.1-18-49.3-26.9-73.4c-1.2-3.4-2.1-5.4,2.8-6.9c5.8-1.7,9.2-8.8,7-14.2c-1.9-4.6-6.6-4-10.8-4.1
	c-21.4-0.4-42.8,2.4-64.3,1.6c-1.8-0.1-3.9-0.5-4.8,1.6c-1.7,3.9-1.4,8.1,0.1,11.7c1.3,3.2,4.9,2.3,7.6,1.8
	c4.9-0.9,7.8,0.8,10.1,5.1c11.8,22.5,21.9,45.9,33,69.1c3.7,7.9,7.3,15.4,10.8,23c6.6,14.1,13.2,28.3,19.9,42.4c1,2,1.6,4.7,4.5,4.7
	c2.8,0,3.2-2.5,4.2-4.4c0.8-1.7,1.7-3.2,2.5-4.9C398,406.3,419,360.7,440,315c1.3-2.8,2.4-5,5.8-6
	C449.4,307.9,449.9,304.2,449.6,301.1z M370.7,450.3c-5.4-11.6-10.3-22-15.4-32.7c-15.3-32.7-30.5-65-45.6-97.4
	c-3.2-6.8-8.1-10.8-16-10.4c-0.8,0-2,0.7-2.7-1c2.5-1.2,5.1-0.1,7.5-0.1c18.1-0.4,36.2-2.1,54.4-1.7c1.5,0,4.1-1.2,4.4,1.5
	c0.2,2.4-1.7,3-4,3.4c-7.3,1.2-9.3,5.2-6.7,12c9.6,26.2,19.2,52.4,28.8,78.6c0.5,1.2,0.9,2.5,1.4,3.7c1,2.1,2.5,3.5,5,3.6
	c2.6,0,3.2-1.9,4-3.8c12.9-29.2,25.9-58.3,38.8-87.5c0.3-0.8,0.6-1.5,1-2.3c3.5-7,2.8-8.1-5.4-8.5c-6.4-0.2-12.8-0.4-19.1-1.4
	c11.5-2.7,23-0.7,35.5-1.4C416,354,391.3,400.4,370.7,450.3z"/>
<path class="st1" d="M255.3,395.8c-1.9-5.1-3.6-10.3-5.3-15.5c-3.4-10.2-6.8-20.5-10.2-30.7c-0.6-1.9-1.6-3.9-4-3.7
	c-2.1,0.1-2.9,1.9-3.5,3.7c-0.4,1.4-1,2.8-1.7,4.1c-6.3,11.1-12.7,22.2-19,33.3c-3.7,6.5-2.6,8.7,5,9.7c9.2,1.3,18.4,2.5,28.1,3.8
	c2.6,0.2,4.7,0.5,6.8,0.7C255.8,401.4,256.8,399.8,255.3,395.8z M220.6,390.4c-2.1-0.3-2.4-1.3-1.4-3c5.1-8.9,10.2-17.9,15.4-26.7
	c1.4-2.6,1.3,0.4,2,1c3.5,10.7,7,21.1,10.7,32.1C238,392.6,229.3,391.5,220.6,390.4z M255.3,395.8c-1.9-5.1-3.6-10.3-5.3-15.5
	c-3.4-10.2-6.8-20.5-10.2-30.7c-0.6-1.9-1.6-3.9-4-3.7c-2.1,0.1-2.9,1.9-3.5,3.7c-0.4,1.4-1,2.8-1.7,4.1
	c-6.3,11.1-12.7,22.2-19,33.3c-3.7,6.5-2.6,8.7,5,9.7c9.2,1.3,18.4,2.5,28.1,3.8c2.6,0.2,4.7,0.5,6.8,0.7
	C255.8,401.4,256.8,399.8,255.3,395.8z M220.6,390.4c-2.1-0.3-2.4-1.3-1.4-3c5.1-8.9,10.2-17.9,15.4-26.7c1.4-2.6,1.3,0.4,2,1
	c3.5,10.7,7,21.1,10.7,32.1C238,392.6,229.3,391.5,220.6,390.4z M323.6,448.8c-1.9-5.3-5.7-8.4-11.3-8.2c-3.6,0.2-4.7-1.4-5.8-4.4
	c-12.3-32.8-24.8-65.5-37.2-98.3c-4.5-12-9-24-13.6-35.9c-0.9-2.3-1.4-5.1-4.6-5.2c-3-0.1-4,2.6-5.2,4.7c-0.2,0.4-0.5,0.9-0.7,1.3
	c-21.7,38.7-43.4,77.4-64.9,116.2c-2.8,5.1-5.2,8.6-11.9,6.4c-4.2-1.4-7.1,0.6-7.2,5.5c0,1.2-0.5,2.3-0.8,3.4
	c-0.9,3.4,0.6,5,3.8,5.6c14.6,2.8,29.1,5.7,43.6,8.6c3.6,0.7,5.9-0.7,6.3-4.4c0.4-3.6,4.1-8.4-3-9.9c-4-0.9-8-1.9-12-3.1
	c-2.7-0.8-4.7-2.6-3.5-5.6c3-7.6,6.2-15.2,15.4-18.1c14.6,0,28.5,2.4,42.4,4c1.4,0.2,1.9,1.2,2.5,2.2c3.9,6.3,6.2,13.2,8.4,20.2
	c1.2,4-0.5,5.9-4.8,6c-3.8,0.1-7.7-0.1-11.5-0.2c-4.4-0.1-6.5,2.3-7,7.7c-0.4,4.3,1.1,6.5,5.7,6.8c23.2,1.6,46.5,3.5,69.7,5.2
	C321.5,459.7,325.4,453.8,323.6,448.8z M316.8,451.3c-0.3,2.4-3.1,1.1-4.6,1c-21.1-1.6-42.1-3.3-63.2-5.4c4-0.2,7.9-0.2,11.9-0.5
	c8.3-0.7,12.5-6.2,10.2-14c-2.5-8.3-5.4-16.4-10-23.8c-1.6-2.6-3.7-3.6-6.9-3.9c-12.4-1.3-24.7-3.4-37.2-4
	c-13.7-0.7-26.6,10.4-28.4,24.1c-0.9,7.1,0.8,9.6,9.4,13.5c0.2,0.1,0.3,0.2,0.4,0.4v0.3c-1.5-0.1-3.1-0.3-4.6-0.5
	c-6.7-0.9-13.2-2.6-20-4c-0.2-0.2-0.3-0.4-0.4-0.6c0,0,0,0,0,0h0.1c0,0,0,0,0,0c0-0.3,0.1-0.4,0-0.6c0.8,0.2,1.4,0.3,2.1,0.3
	c2.7,0.2,4.6-0.8,6.4-3.5c0,0,0,0,0,0c0.2-0.4,0.5-0.7,0.7-1.2c22-39.9,44.3-79.6,66.6-119.3c0.2-0.4,0.6-0.7,1.4-1.6
	c4.2,11.1,8.4,21.8,12.4,32.6c12.2,32.3,24.4,64.7,36.7,97c0.7,1.9,1.6,3.7,2.3,5.5c1.2,3.2,3.4,4.8,6.9,4.3c1-0.1,2,0,3,0
	C314.6,447.6,317.1,448.6,316.8,451.3z M250,380.3c-3.4-10.2-6.8-20.5-10.2-30.7c-0.6-1.9-1.6-3.9-4-3.7c-2.1,0.1-2.9,1.9-3.5,3.7
	c-0.4,1.4-1,2.8-1.7,4.1c-6.3,11.1-12.7,22.2-19,33.3c-3.7,6.5-2.6,8.7,5,9.7c9.2,1.3,18.4,2.5,28.1,3.8c2.6,0.2,4.7,0.5,6.8,0.7
	c4.3,0.2,5.3-1.4,3.8-5.4C253.4,390.7,251.7,385.5,250,380.3z M220.6,390.4c-2.1-0.3-2.4-1.3-1.4-3c5.1-8.9,10.2-17.9,15.4-26.7
	c1.4-2.6,1.3,0.4,2,1c3.5,10.7,7,21.1,10.7,32.1C238,392.6,229.3,391.5,220.6,390.4z"/>
<path class="st2" d="M144.5,305.3c-5.4-9.4-13.8-15.6-24.5-18.4c-3.3-0.9-5.3-0.3-6.4,3.6c-2.5,8.5-5.6,16.9-8.6,25.8
	c-2.2,6.4-4.2,12.3-6.4,18.4C91,356.9,83.5,379,75.9,401.2c-0.8,2.3-1.6,4.6,1.1,6.1c2.5,1.4,5,2.6,7.6,3.6
	c17.1,6.2,31.2,0.3,44.1-10.7c8-6.8,13.2-15.6,17.5-25.1C156.8,351.5,157.6,328.1,144.5,305.3z M143.7,363.5
	c-5,15.3-12.9,28.2-26.4,36.9c-9.6,6.2-19.9,8-30.9,4c-2.7-1-3.6-2.1-2.5-5.1c11.7-33.9,23.3-67.8,34.9-101.8
	c1.2-3.5,2.8-3.1,5.3-1.8c12.6,6.2,18.6,17.2,21.6,30.1C148.5,338.2,147.6,350.8,143.7,363.5z M144.5,305.3
	c-5.4-9.4-13.8-15.6-24.5-18.4c-3.3-0.9-5.3-0.3-6.4,3.6c-2.5,8.5-5.6,16.9-8.6,25.8c-2.2,6.4-4.2,12.3-6.4,18.4
	C91,356.9,83.5,379,75.9,401.2c-0.8,2.3-1.6,4.6,1.1,6.1c2.5,1.4,5,2.6,7.6,3.6c17.1,6.2,31.2,0.3,44.1-10.7
	c8-6.8,13.2-15.6,17.5-25.1C156.8,351.5,157.6,328.1,144.5,305.3z M143.7,363.5c-5,15.3-12.9,28.2-26.4,36.9c-9.6,6.2-19.9,8-30.9,4
	c-2.7-1-3.6-2.1-2.5-5.1c11.7-33.9,23.3-67.8,34.9-101.8c1.2-3.5,2.8-3.1,5.3-1.8c12.6,6.2,18.6,17.2,21.6,30.1
	C148.5,338.2,147.6,350.8,143.7,363.5z M184.3,331.8c-3.5-20.3-13.5-37.1-32.9-46c-24.2-11.1-50-17.9-75.8-24.2
	c-4.2-1-6.8,0.6-7.8,4.7c-0.9,3.8-0.6,7.7,3.7,9.1c3.6,1.2,2.8,2.9,1.9,5.5c-12.4,35.2-24.8,70.5-37,105.8c-1.4,4.2-2.9,5.4-7.3,3.9
	c-5.6-1.9-7.6-0.5-9.2,4.9c-1.6,5.2,0.3,9.2,4.8,10.8c10.4,3.7,21,6.4,31.6,9.3c18.5,5.1,37.1,9.4,56.1,11.7
	c19.6,2.3,35.7-5.6,49.6-19.5C181.8,385.9,189.2,360.4,184.3,331.8z M146.9,411.4c-10.1,6.9-21,10.1-33.8,8.6
	c-28-3.1-54.7-10.9-81.5-18.7c-1.3-0.4-2.5-0.9-3.8-1.3c-1.2-0.3-1.7-1-1.3-2.2c0.4-1,1.4-0.6,2.1-0.5c10.6,1.3,10.7,1.3,14.2-8.6
	c13.1-37.3,26-74.6,39.4-111.8c2-5.4-1.5-5.2-4.6-6.6c-0.1-0.1-0.2-0.2-0.3-0.3h0.1c0,0,0,0,0,0v-0.5c14.5,2.8,28.7,7.2,42.6,11.6
	c8.7,2.7,17.1,6.4,25.5,9.8c15.3,6.2,24.4,17.8,29.6,33C185.7,355,173.7,392.9,146.9,411.4z M120,286.9c-3.3-0.9-5.3-0.3-6.4,3.6
	c-2.5,8.5-5.6,16.9-8.6,25.8c-2.2,6.4-4.2,12.3-6.4,18.4C91,356.9,83.5,379,75.9,401.2c-0.8,2.3-1.6,4.6,1.1,6.1
	c2.5,1.4,5,2.6,7.6,3.6c17.1,6.2,31.2,0.3,44.1-10.7c8-6.8,13.2-15.6,17.5-25.1c10.6-23.6,11.4-47-1.7-69.8
	C139.1,295.9,130.7,289.7,120,286.9z M143.7,363.5c-5,15.3-12.9,28.2-26.4,36.9c-9.6,6.2-19.9,8-30.9,4c-2.7-1-3.6-2.1-2.5-5.1
	c11.7-33.9,23.3-67.8,34.9-101.8c1.2-3.5,2.8-3.1,5.3-1.8c12.6,6.2,18.6,17.2,21.6,30.1C148.5,338.2,147.6,350.8,143.7,363.5z"/>
<path class="st1" d="M544.5,442.7c-0.6-6.2-4.5-9.5-9.8-11.3c-4.7-1.6-6.8-4.8-7.3-9.6c-3.2-31.8-6.4-63.6-9.6-95.3
	c-0.8-7.5,1.2-14.4,5.9-19.9c3.8-4.4,3.4-8.6,1.3-12.9c-2.1-4.5-6.5-4.6-10.8-4.1c-6.9,0.8-13.8,1.6-21.2,2.5c-8.2,1.1-16,2-23.9,3
	c-7.6,0.9-10.8,6.4-7.9,13.5c1.1,2.6,3.1,4.3,5.3,5.8c5.2,3.4,8.7,8,10,14.3c1.1,5.6,1.5,11.2,1.9,16.8c1.7,26.7,3.5,53.4,5.5,80.1
	c0.4,4.5-1.3,7.6-4.7,10.2c-2.1,1.6-4.3,3.2-6.3,4.9c-2.3,2-4.2,10.7-2.7,13c2.2,3.3,5.5,1.4,8.3,1.2c20.3-1.5,40.5-5.2,61-5.6
	C544,449.2,545,447.2,544.5,442.7z M479.4,447.9c-0.8,0.1-1.8,0.6-2.2-0.3c-0.6-1.1,0.4-1.9,1.1-2.5c2.2-1.8,4.6-3.4,6.7-5.2
	c4-3.6,6.4-7.7,5.9-13.5c-2.2-29-4.2-58.1-6.2-87.1c-0.3-4.1-0.3-8.2-1.3-12.4c-2-8.1-6.7-13.9-13.4-18.5c-1.8-1.2-3.1-2.6-2.5-4.9
	c0.6-2.5,2.8-1.1,4.5-2c14.6-1.7,28.9-3.4,43.1-5c1.3-0.1,3-1.1,4,0.9c0.8,1.5,0.4,2.9-0.6,4.2c-8.2,10.4-8.1,22.3-6.8,34.7
	c3,28.1,5.8,56.2,8.4,84.4c0.8,8.2,4.1,14.2,12.1,17.1c2,0.7,4.1,1.4,5,4.1C517.9,443.9,498.6,445.9,479.4,447.9z"/>
<path class="st0" d="M254.5,61.1c8.3,1.2,15.7,4.6,18.1,13.9c0.7,2.9,2.9,3.1,5.1,2.6c4.8-1,9.5-2,14.1-3.3c3.1-0.9,4.5-2.7,2.6-6
	c-1.4-2.5-2.5-5.1-3.8-7.6c-8.6-16.1-25.2-25.4-42.7-23.6c-4.2,0.2-7.7,1.1-11.2,2.6c-23.7,9.1-37.5,35.6-32.5,62.5
	c4,21.9,21.3,37.4,41.6,38.8c21.1,1.5,41.2-14.3,48.1-35.6c0.8-2.2,0.8-4.3-1.7-5.5c-4.9-2.3-10.1-1.4-15.2-1.3c-4,0-2.4,4-3.4,6.2
	c-5.4,11.7-20.5,17.2-32.3,11.8c-14-6.5-19.9-24.2-13.3-39.3C232.9,66.1,243,59.5,254.5,61.1z M237.5,122.2
	c15.2,7.5,32.7,1.9,41.8-13.3c0.6-1,0.9-2.2,1.7-3c1.3-1.5,3.1-1.1,4.7-0.7c1.4,0.4,0.6,1.6,0.2,2.4c-9,21.3-35,35.7-57.4,20.3
	c-13.7-9.2-18.5-23.1-18.5-39.4c1.6-14.7,6.8-27.2,18.4-36.3c20.4-16.2,48.2-8.5,57.9,15.9c-4.1,2.2-7,2-10.3-2.3
	c-7.5-9.6-18-13.7-30.1-11.3C233.4,57,225.3,65,221,76.7C214.4,94.5,221.8,114.5,237.5,122.2z"/>
<path class="st3" d="M445.6,174.6c-0.1-7.3-1.1-8.4-8.4-8.5c-18.5-0.3-37-0.6-55.5-0.9c-7.9-0.1-8.3,0.2-8.5,7.9
	c-0.5,20.2-1.1,40.3-1.7,60.5c-0.4,12-0.6,24-0.9,36c0,3.2,0.5,6.1,4.5,5.5c4.3-0.7,8.6-0.2,12.9-0.1c4,0.1,5.6-1.3,5.6-5.5
	c-0.1-11.7,0.4-23.3,0.1-35c-0.1-4.7,1.7-5.4,5.8-5.3c11.5,0.4,23,0.4,34.9,0.5c7.6-0.3,8.2-1,8.3-8.3c0-2.9-0.2-5.7-0.1-8.5
	c0.1-3.4-1.3-4.8-4.7-4.9c-11.2-0.3-22.3-0.7-33.5-1.1c-9.8-0.3-9.8-0.3-9.5-10.3c0.2-6.6,0.2-6.6,6.9-6.6c12.7,0.1,25.3,0.2,38,0.4
	c4.3,0.1,6.2-1.2,5.7-5.8C445.2,181.3,445.6,177.9,445.6,174.6z M436,183.6c-12.8-0.2-25.6-0.2-38.4-0.4c-8.2-0.1-9.6,1.4-9.5,9.6
	c0.1,4.8,0.1,9.7,0.1,14.5c0,5.4,0.8,6.4,6.8,6.6c12.3,0.5,24.6,0.9,36.9,1.2c2.8,0.1,4.2,0.6,4.1,3.9c-0.1,3.2-1,4.2-4.3,4.1
	c-12.6-0.3-25.3-0.2-37.9-0.3c-5.8,0-6.2,0.5-6.4,6.7c-0.2,11.6-0.8,23.3-0.8,34.9c0,4.3-2.3,3.4-4.8,3.4c-2.7,0-4.6,0.1-4.4-3.8
	c0.7-10.7,0.8-21.4,1.1-32.5c0.4-17.8,0.8-35.1,1.2-52.4c0.1-6.7,0.1-6.9,6.9-6.8c16.5,0.2,32.9,0.5,49.4,1c4.3,0.1,2.6,3.8,2.9,6
	C439.2,181.3,439.5,183.6,436,183.6z"/>
<path class="st3" d="M509.2,41.5c-5.9-0.5-11.9-0.8-17.9,0c-1.7,0.2-2.9,0.8-4,2.4c-5.4,8.4-11.1,16.6-16.7,24.8
	c-2.5,3.6-5.1,3.8-7.9,0.2c-3.9-5-7.4-10.3-10.9-15.5c-8.4-12.5-8.4-12.5-23.3-12.6h-1c-3.9,0-5.5,1.5-4.5,5.6
	c0.5,2,1.1,3.7,2.3,5.4c10,13.9,19.9,27.9,30,41.7c1.7,2.3,2.4,4.5,2.4,7.3c-0.1,9.1,0,18.3,0,27.4c0,12.5,0.1,12.3,12.7,12.3
	c4.3,0,5.4-1.6,5.2-5.6c-0.5-12.3-0.2-24.6,0.2-36.9c0.1-2.7,0.8-4.7,2.4-6.8c6.7-8.7,13.2-17.5,20-26.6c4.5-5.9,8.7-11.4,13.2-16.8
	C513.9,44.5,513.1,41.8,509.2,41.5z M498.1,53.2c-8.8,11.9-17.7,23.8-26.7,35.5c-2.1,2.7-2.9,5.4-2.6,8.7c0.8,11,0,22-0.3,33
	c0,1.3,0.7,3.3-1.8,3.3c-2.8,0.1-2.1-2-2.1-3.5c-0.1-10.5-0.1-21-0.1-31.5c0-3.3-1-5.8-3-8.6C451.1,76.3,441.2,62.2,431,48
	c5.4-1.6,8.9-0.6,11.7,4.1c4.2,7.1,9.3,13.8,14,20.7c4.5,6.8,11.4,7.5,17,1.6c1.6-1.8,3.1-3.8,4.9-6c3.4-4.8,6.9-9.1,9.6-13.8
	c2.9-5.1,6.8-7.3,12.8-6.1C500.9,50.5,499.2,51.7,498.1,53.2z"/>
<path class="st4" d="M420.1,48.3c0-0.7,0.1-1.4-0.1-2c-0.8-2.2-1.8-4-4.8-4c-24.2-0.3-48.3-0.7-72.4-1c-3.9-0.1-6.2,1.8-6.1,6.1
	c0.1,2.8,0.1,5.7-0.2,8.5c-0.4,4,1.1,5.8,5.3,5.7c6.4-0.2,12.7,0.1,19,0.2c7.6,0.2,7.6,0.2,7.4,8.1c0,17.7-0.1,35-0.3,52.5
	c0,4.3,0.9,8.6-0.5,12.9c-0.8,2.6,1.3,3.9,3.8,4c4.2,0.2,8.3,0.2,12.5,0.4s5.8-1.4,5.8-5.9c-0.2-22,0.1-43.9-0.1-65.9
	c-0.1-4.6,1.6-5.8,5.6-5.6c3.8,0.1,7.7,0.2,11.5,0.2C420.2,62.6,420.6,62.1,420.1,48.3z M412.9,52.5c-0.2,2.4-0.9,3-3.2,3
	c-7.2-0.1-14.3,0.4-21.5,0.1c-4-0.1-4.9,1.7-4.9,5c-0.2,22.3-0.5,44.6-0.4,66.9c0,4.2-1,5.5-5.2,5c-2.5-0.3-2.9-1.2-2.8-3.4
	c0.2-16.6,0.2-33.3,0.3-49.9c0-6.3-0.2-12.7-0.2-19c0-3.6-1.7-5.2-5.1-5.2c-7.7,0-15.3-0.1-23,0c-2.1,0-4,0.3-3.8-2.9
	c0.1-2.6,0.2-4.6,3.7-4.2c1.9,0.2,3.9,0,6.4-0.1c18.8,0.5,37.1,1.1,55.4,0.6C411.6,48.3,413.3,48.8,412.9,52.5z"/>
<path class="st0" d="M349.3,212.4c-2.2-14.1-10.1-24.5-24.1-28.5c-13.1-3.7-24.7,0.3-33.8,10.5c-8.4,9.4-11.4,20.5-10,32.9
	c2.9,26.1,28.8,39.2,51.4,25.7C346.8,242.6,351.8,228.8,349.3,212.4z M343,222.4c-1.3,14.9-11.7,27-25.1,29.1
	c-7.5,1.2-14.2-1.2-19.8-6.2c-16.6-14.6-11.8-44.9,8.5-53.6c5.4-2.3,10.9-3.1,16.9-1C336.8,195.6,344.3,208,343,222.4z M349.3,212.4
	c-2.2-14.1-10.1-24.5-24.1-28.5c-13.1-3.7-24.7,0.3-33.8,10.5c-8.4,9.4-11.4,20.5-10,32.9c2.9,26.1,28.8,39.2,51.4,25.7
	C346.8,242.6,351.8,228.8,349.3,212.4z M343,222.4c-1.3,14.9-11.7,27-25.1,29.1c-7.5,1.2-14.2-1.2-19.8-6.2
	c-16.6-14.6-11.8-44.9,8.5-53.6c5.4-2.3,10.9-3.1,16.9-1C336.8,195.6,344.3,208,343,222.4z M361.5,198.1c-12-35.1-52-45.7-78.2-20.7
	c-21.4,20.4-24.4,56.2-6.8,79.9c12.1,16.2,32.2,23,50.5,17.2c14.8-4.8,24.8-14.9,31.9-28.9C365.8,229.8,366.9,214.1,361.5,198.1z
	 M357.5,227.3c-2.5,12.3-7.3,22.9-16.4,31.2c-17.8,16.4-42.7,14.6-58.1-4.1c-17.8-21.7-13.6-58.2,8.7-75.2
	c23.5-17.9,54.7-6.9,63.8,22.5C358.1,210,358.5,218.3,357.5,227.3z M325.2,183.9c-13.1-3.7-24.7,0.3-33.8,10.5
	c-8.4,9.4-11.4,20.5-10,32.9c2.9,26.1,28.8,39.2,51.4,25.7c14-10.4,19-24.2,16.5-40.6C347.1,198.3,339.2,187.9,325.2,183.9z
	 M343,222.4c-1.3,14.9-11.7,27-25.1,29.1c-7.5,1.2-14.2-1.2-19.8-6.2c-16.6-14.6-11.8-44.9,8.5-53.6c5.4-2.3,10.9-3.1,16.9-1
	C336.8,195.6,344.3,208,343,222.4z"/>
<path class="st4" d="M327.6,41.6c-3.8,0-7.7,0-11.5-0.3c-4-0.3-5.3,1.6-5.3,5.3c-0.2,26.6-0.8,53.3-0.7,79.9
	c0,10.5-1.9,11.2,11.3,11.4c6.9,0.1,7.9-0.7,8.1-7.5c0.7-21.9,1.3-43.9,2-66.4c0.2-6.2,0.3-11.8,0.6-17.5
	C332.3,43,331,41.6,327.6,41.6z M325.1,52.4c-0.7,17.6-1.2,35.2-1.7,53.4c-0.2,7.5-0.3,14.5-0.7,21.4c-0.1,1.5,1.5,4.3-2.2,4.3
	c-3.1,0-3.7-1.5-3.6-4.4c0.4-22.1,0.5-44.2,0.7-66.3c0-2.8,0.1-5.7-0.1-8.5c-0.1-2.6-0.6-4.8,3.5-4.6
	C324.7,47.8,325.2,49.2,325.1,52.4z"/>
<path d="M650.5,424.5c-10,4-19.8,3.1-29.8,0.7c-5.7-1.3-11.3-3-17.1-3.3c-5.9-0.3-11.6-0.2-16.7,4.9c-1.9-12-3.7-23.2-5.4-34.4
	c6,8.2,13.3,14.6,21.2,20.3c12.1,8.7,24.6,10.9,38.9,4.5c14.1-6.3,23.5-28.7,4.6-42.7c-11.3-8.4-24.2-12.2-37.8-14.4
	c-8.7-1.4-17.4-2.9-25.8-5.5c-8.3-2.5-14.6-7.6-18.4-15.1c-5.6-10.7-8-22.2-5.2-34.3c5.2-22.7,29.1-36.7,51.6-30.4
	c3.5,1,7,2.1,10.5,3.1c8.4,2.4,11,1.4,15.2-6c3,10.4,5.9,20.5,8.7,30.6c-5.7-9-13.3-15.5-22.7-20c-9.4-4.5-19.1-6.8-29.4-3
	c-11.7,4.4-16.4,15.4-12,27.2c5.6,15.2,18.1,21.9,32.2,26.5c8.6,2.8,17.7,3.1,26.5,4.7c14.1,3,26,9.7,34.8,22
	C689.8,384.8,675.5,414.5,650.5,424.5z"/>
<path class="st5" d="M645.7,307.4c0.3-0.5,0.6-0.4,0.6,0C646.2,307.9,646,308,645.7,307.4z"/>
<path class="st6" d="M581.4,390.3c0.2,0.2,0.2,0.6,0.3,1C581,391.3,581.2,390.9,581.4,390.3z"/>
<path class="st5" d="M645.2,304.8c0.1,0.1-0.2,0.2-0.2,0.2S645.1,304.7,645.2,304.8z"/>
<path d="M436.6,304.9c-20.6,49.1-45.3,95.5-65.9,145.4c-5.4-11.6-10.3-22-15.4-32.7c-15.3-32.7-30.5-65-45.6-97.4
	c-3.2-6.8-8.1-10.8-16-10.4c-0.8,0-2,0.7-2.7-1c2.5-1.2,5.1-0.1,7.5-0.1c18.1-0.4,36.2-2.1,54.4-1.7c1.5,0,4.1-1.2,4.4,1.5
	c0.2,2.4-1.7,3-4,3.4c-7.3,1.2-9.3,5.2-6.7,12c9.6,26.2,19.2,52.4,28.8,78.6c0.5,1.2,0.9,2.5,1.4,3.7c1,2.1,2.5,3.5,5,3.6
	c2.6,0,3.2-1.9,4-3.8c12.9-29.2,25.9-58.3,38.8-87.5c0.3-0.8,0.6-1.5,1-2.3c3.5-7,2.8-8.1-5.4-8.5c-6.4-0.2-12.8-0.4-19.1-1.4
	C412.6,303.6,424.1,305.6,436.6,304.9z"/>
<path class="st7" d="M173.5,433.3L173.5,433.3c-0.2,0.2-0.2,0.4-0.1,0.6h0.1c0,0,0,0,0,0C173.5,433.6,173.6,433.5,173.5,433.3z
	 M198.4,438.7v0.3C198.5,438.9,198.5,438.8,198.4,438.7z M255.3,395.8c-1.9-5.1-3.6-10.3-5.3-15.5c-3.4-10.2-6.8-20.5-10.2-30.7
	c-0.6-1.9-1.6-3.9-4-3.7c-2.1,0.1-2.9,1.9-3.5,3.7c-0.4,1.4-1,2.8-1.7,4.1c-6.3,11.1-12.7,22.2-19,33.3c-3.7,6.5-2.6,8.7,5,9.7
	c9.2,1.3,18.4,2.5,28.1,3.8c2.6,0.2,4.7,0.5,6.8,0.7C255.8,401.4,256.8,399.8,255.3,395.8z M220.6,390.4c-2.1-0.3-2.4-1.3-1.4-3
	c5.1-8.9,10.2-17.9,15.4-26.7c1.4-2.6,1.3,0.4,2,1c3.5,10.7,7,21.1,10.7,32.1C238,392.6,229.3,391.5,220.6,390.4z"/>
<path class="st8" d="M173.5,433.3v0.6C173.5,433.6,173.6,433.5,173.5,433.3z M173.4,433.9C173.4,433.9,173.4,433.9,173.4,433.9
	C173.4,433.9,173.5,433.9,173.4,433.9C173.5,433.9,173.5,433.9,173.4,433.9L173.4,433.9z"/>
<path d="M312,447.5c-1,0-2-0.1-3,0c-3.5,0.5-5.7-1.1-6.9-4.3c-0.7-1.8-1.6-3.6-2.3-5.5c-12.3-32.3-24.5-64.7-36.7-97
	c-4-10.8-8.2-21.5-12.4-32.6c-0.8,0.9-1.2,1.2-1.4,1.6c-22.3,39.7-44.6,79.4-66.6,119.3c-0.2,0.4-0.5,0.8-0.7,1.2c0,0,0,0,0,0
	c-1.8,2.8-3.7,3.7-6.4,3.5c-0.7,0-1.3-0.2-2.1-0.3c0.1,0.2,0,0.3,0,0.6c0,0-0.1,0-0.1,0c0.1,0.2,0.2,0.4,0.4,0.6
	c6.8,1.4,13.4,3.1,20,4c1.5,0.2,3.1,0.4,4.6,0.5v-0.3c-0.1-0.1-0.2-0.3-0.4-0.4c-8.6-3.9-10.3-6.4-9.4-13.5
	c1.8-13.7,14.7-24.8,28.4-24.1c12.5,0.6,24.8,2.7,37.2,4c3.2,0.3,5.3,1.3,6.9,3.9c4.6,7.4,7.5,15.5,10,23.8
	c2.3,7.8-1.9,13.3-10.2,14c-4,0.3-7.9,0.3-11.9,0.5c21.1,2.1,42.1,3.8,63.2,5.4c1.5,0.1,4.3,1.4,4.6-1
	C317.1,448.6,314.6,447.6,312,447.5z M251.5,401.2c-2.1-0.2-4.2-0.5-6.8-0.7c-9.7-1.3-18.9-2.5-28.1-3.8c-7.6-1-8.7-3.2-5-9.7
	c6.3-11.1,12.7-22.2,19-33.3c0.7-1.3,1.3-2.7,1.7-4.1c0.6-1.8,1.4-3.6,3.5-3.7c2.4-0.2,3.4,1.8,4,3.7c3.4,10.2,6.8,20.5,10.2,30.7
	c1.7,5.2,3.4,10.4,5.3,15.5C256.8,399.8,255.8,401.4,251.5,401.2z"/>
<path class="st9" d="M208.3,441.5c-3.9-0.8-6.6-1.4-9.6-2.1c-0.2-0.1-0.2-0.2-0.3-0.4v-0.4C201.2,439.6,204.5,439.1,208.3,441.5z"/>
<path class="st9" d="M173.5,433.9C173.5,433.9,173.4,433.9,173.5,433.9c-2,0.5-3.8,0-6.6-1.5c2.9,0.2,4.5,0.2,6.4,0.4
	c0.2,0.2,0.2,0.4,0.2,0.5C173.6,433.5,173.5,433.6,173.5,433.9z"/>
<path class="st10" d="M77.2,269.5c0,0.2,0,0.3,0.2,0.5v-0.5H77.2z M144.5,305.3c-5.4-9.4-13.8-15.6-24.5-18.4
	c-3.3-0.9-5.3-0.3-6.4,3.6c-2.5,8.5-5.6,16.9-8.6,25.8c-2.2,6.4-4.2,12.3-6.4,18.4C91,356.9,83.5,379,75.9,401.2
	c-0.8,2.3-1.6,4.6,1.1,6.1c2.5,1.4,5,2.6,7.6,3.6c17.1,6.2,31.2,0.3,44.1-10.7c8-6.8,13.2-15.6,17.5-25.1
	C156.8,351.5,157.6,328.1,144.5,305.3z M143.7,363.5c-5,15.3-12.9,28.2-26.4,36.9c-9.6,6.2-19.9,8-30.9,4c-2.7-1-3.6-2.1-2.5-5.1
	c11.7-33.9,23.3-67.8,34.9-101.8c1.2-3.5,2.8-3.1,5.3-1.8c12.6,6.2,18.6,17.2,21.6,30.1C148.5,338.2,147.6,350.8,143.7,363.5z"/>
<path class="st8" d="M77.3,270c0.1,0.1,0.1,0.2,0.3,0.3C77.5,270.2,77.4,270.1,77.3,270z"/>
<path d="M175.1,323.9c-5.2-15.2-14.3-26.8-29.6-33c-8.4-3.4-16.8-7.1-25.5-9.8c-13.9-4.4-28.1-8.8-42.6-11.6v0.5c0,0,0,0,0,0h-0.1
	c0.1,0.1,0.2,0.2,0.3,0.3c3.1,1.4,6.6,1.2,4.6,6.6c-13.4,37.2-26.3,74.5-39.4,111.8c-3.5,9.9-3.6,9.9-14.2,8.6
	c-0.7-0.1-1.7-0.5-2.1,0.5c-0.4,1.2,0.1,1.9,1.3,2.2c1.3,0.4,2.5,0.9,3.8,1.3c26.8,7.8,53.5,15.6,81.5,18.7
	c12.8,1.5,23.7-1.7,33.8-8.6C173.7,392.9,185.7,355,175.1,323.9z M146.2,375.1c-4.3,9.5-9.5,18.3-17.5,25.1
	c-12.9,11-27,16.9-44.1,10.7c-2.6-1-5.1-2.2-7.6-3.6c-2.7-1.5-1.9-3.8-1.1-6.1c7.6-22.2,15.1-44.3,22.7-66.5
	c2.2-6.1,4.2-12,6.4-18.4c3-8.9,6.1-17.3,8.6-25.8c1.1-3.9,3.1-4.5,6.4-3.6c10.7,2.8,19.1,9,24.5,18.4
	C157.6,328.1,156.8,351.5,146.2,375.1z"/>
<path class="st9" d="M77.4,269.5v0.5c0,0,0,0,0,0c-1.1-0.1-2.1-0.1-2.6-1.2c0.7,0,1.5,0,2.4,0.3C77.3,269.2,77.3,269.4,77.4,269.5z"
	/>
<path d="M537.2,441.9c-19.3,2-38.6,4-57.8,6c-0.8,0.1-1.8,0.6-2.2-0.3c-0.6-1.1,0.4-1.9,1.1-2.5c2.2-1.8,4.6-3.4,6.7-5.2
	c4-3.6,6.4-7.7,5.9-13.5c-2.2-29-4.2-58.1-6.2-87.1c-0.3-4.1-0.3-8.2-1.3-12.4c-2-8.1-6.7-13.9-13.4-18.5c-1.8-1.2-3.1-2.6-2.5-4.9
	c0.6-2.5,2.8-1.1,4.5-2c14.6-1.7,28.9-3.4,43.1-5c1.3-0.1,3-1.1,4,0.9c0.8,1.5,0.4,2.9-0.6,4.2c-8.2,10.4-8.1,22.3-6.8,34.7
	c3,28.1,5.8,56.2,8.4,84.4c0.8,8.2,4.1,14.2,12.1,17.1C534.2,438.5,536.3,439.2,537.2,441.9z"/>
<path d="M285.9,107.6c-9,21.3-35,35.7-57.4,20.3c-13.7-9.2-18.5-23.1-18.5-39.4c1.6-14.7,6.8-27.2,18.4-36.3
	c20.4-16.2,48.2-8.5,57.9,15.9c-4.1,2.2-7,2-10.3-2.3c-7.5-9.6-18-13.7-30.1-11.3C233.4,57,225.3,65,221,76.7
	c-6.6,17.8,0.8,37.8,16.5,45.5c15.2,7.5,32.7,1.9,41.8-13.3c0.6-1,0.9-2.2,1.7-3c1.3-1.5,3.1-1.1,4.7-0.7
	C287.1,105.6,286.3,106.8,285.9,107.6z"/>
<path d="M388.1,192.8c0.1,4.8,0.1,9.7,0.1,14.5c0,5.4,0.8,6.4,6.8,6.6c12.3,0.5,24.6,0.9,36.9,1.2c2.8,0.1,4.2,0.6,4.1,3.9
	c-0.1,3.2-1,4.2-4.3,4.1c-12.6-0.3-25.3-0.2-37.9-0.3c-5.8,0-6.2,0.5-6.4,6.7c-0.2,11.6-0.8,23.3-0.8,34.9c0,4.3-2.3,3.4-4.8,3.4
	c-2.7,0-4.6,0.1-4.4-3.8c0.7-10.7,0.8-21.4,1.1-32.5c0.4-17.8,0.8-35.1,1.2-52.4c0.1-6.7,0.1-6.9,6.9-6.8c16.5,0.2,32.9,0.5,49.4,1
	c4.3,0.1,2.6,3.8,2.9,6c0.3,2,0.6,4.3-2.9,4.3c-12.8-0.2-25.6-0.2-38.4-0.4C389.4,183.1,388,184.6,388.1,192.8z"/>
<path d="M501,48.5c-0.1,2-1.8,3.2-2.9,4.7c-8.8,11.9-17.7,23.8-26.7,35.5c-2.1,2.7-2.9,5.4-2.6,8.7c0.8,11,0,22-0.3,33
	c0,1.3,0.7,3.3-1.8,3.3c-2.8,0.1-2.1-2-2.1-3.5c-0.1-10.5-0.1-21-0.1-31.5c0-3.3-1-5.8-3-8.6C451.1,76.3,441.2,62.2,431,48
	c5.4-1.6,8.9-0.6,11.7,4.1c4.2,7.1,9.3,13.8,14,20.7c4.5,6.8,11.4,7.5,17,1.6c1.6-1.8,3.1-3.8,4.9-6c3.4-4.8,6.9-9.1,9.6-13.8
	C491.1,49.5,495,47.3,501,48.5z"/>
<path d="M412.9,52.5c-0.2,2.4-0.9,3-3.2,3c-7.2-0.1-14.3,0.4-21.5,0.1c-4-0.1-4.9,1.7-4.9,5c-0.2,22.3-0.5,44.6-0.4,66.9
	c0,4.2-1,5.5-5.2,5c-2.5-0.3-2.9-1.2-2.8-3.4c0.2-16.6,0.2-33.3,0.3-49.9c0-6.3-0.2-12.7-0.2-19c0-3.6-1.7-5.2-5.1-5.2
	c-7.7,0-15.3-0.1-23,0c-2.1,0-4,0.3-3.8-2.9c0.1-2.6,0.2-4.6,3.7-4.2c1.9,0.2,3.9,0,6.4-0.1c18.8,0.5,37.1,1.1,55.4,0.6
	C411.6,48.3,413.3,48.8,412.9,52.5z"/>
<path class="st11" d="M349.3,212.4c-2.2-14.1-10.1-24.5-24.1-28.5c-13.1-3.7-24.7,0.3-33.8,10.5c-8.4,9.4-11.4,20.5-10,32.9
	c2.9,26.1,28.8,39.2,51.4,25.7C346.8,242.6,351.8,228.8,349.3,212.4z M343,222.4c-1.3,14.9-11.7,27-25.1,29.1
	c-7.5,1.2-14.2-1.2-19.8-6.2c-16.6-14.6-11.8-44.9,8.5-53.6c5.4-2.3,10.9-3.1,16.9-1C336.8,195.6,344.3,208,343,222.4z"/>
<path d="M355.5,201.7c-9.1-29.4-40.3-40.4-63.8-22.5c-22.3,17-26.5,53.5-8.7,75.2c15.4,18.7,40.3,20.5,58.1,4.1
	c9.1-8.3,13.9-18.9,16.4-31.2C358.5,218.3,358.1,210,355.5,201.7z M332.8,253c-22.6,13.5-48.5,0.4-51.4-25.7
	c-1.4-12.4,1.6-23.5,10-32.9c9.1-10.2,20.7-14.2,33.8-10.5c14,4,21.9,14.4,24.1,28.5C351.8,228.8,346.8,242.6,332.8,253z"/>
<path d="M325.1,52.4c-0.7,17.6-1.2,35.2-1.7,53.4c-0.2,7.5-0.3,14.5-0.7,21.4c-0.1,1.5,1.5,4.3-2.2,4.3c-3.1,0-3.7-1.5-3.6-4.4
	c0.4-22.1,0.5-44.2,0.7-66.3c0-2.8,0.1-5.7-0.1-8.5c-0.1-2.6-0.6-4.8,3.5-4.6C324.7,47.8,325.2,49.2,325.1,52.4z"/>
<path class="st1" d="M255.3,395.8c-1.9-5.1-3.6-10.3-5.3-15.5c-3.4-10.2-6.8-20.5-10.2-30.7c-0.6-1.9-1.6-3.9-4-3.7
	c-2.1,0.1-2.9,1.9-3.5,3.7c-0.4,1.4-1,2.8-1.7,4.1c-6.3,11.1-12.7,22.2-19,33.3c-3.7,6.5-2.6,8.7,5,9.7c9.2,1.3,18.4,2.5,28.1,3.8
	c2.6,0.2,4.7,0.5,6.8,0.7C255.8,401.4,256.8,399.8,255.3,395.8z M220.6,390.4c-2.1-0.3-2.4-1.3-1.4-3c5.1-8.9,10.2-17.9,15.4-26.7
	c1.4-2.6,1.3,0.4,2,1c3.5,10.7,7,21.1,10.7,32.1C238,392.6,229.3,391.5,220.6,390.4z"/>
<path class="st2" d="M144.5,305.3c-5.4-9.4-13.8-15.6-24.5-18.4c-3.3-0.9-5.3-0.3-6.4,3.6c-2.5,8.5-5.6,16.9-8.6,25.8
	c-2.2,6.4-4.2,12.3-6.4,18.4C91,356.9,83.5,379,75.9,401.2c-0.8,2.3-1.6,4.6,1.1,6.1c2.5,1.4,5,2.6,7.6,3.6
	c17.1,6.2,31.2,0.3,44.1-10.7c8-6.8,13.2-15.6,17.5-25.1C156.8,351.5,157.6,328.1,144.5,305.3z M143.7,363.5
	c-5,15.3-12.9,28.2-26.4,36.9c-9.6,6.2-19.9,8-30.9,4c-2.7-1-3.6-2.1-2.5-5.1c11.7-33.9,23.3-67.8,34.9-101.8
	c1.2-3.5,2.8-3.1,5.3-1.8c12.6,6.2,18.6,17.2,21.6,30.1C148.5,338.2,147.6,350.8,143.7,363.5z"/>
<path class="st5" d="M349.3,212.4c-2.2-14.1-10.1-24.5-24.1-28.5c-13.1-3.7-24.7,0.3-33.8,10.5c-8.4,9.4-11.4,20.5-10,32.9
	c2.9,26.1,28.8,39.2,51.4,25.7C346.8,242.6,351.8,228.8,349.3,212.4z M343,222.4c-1.3,14.9-11.7,27-25.1,29.1
	c-7.5,1.2-14.2-1.2-19.8-6.2c-16.6-14.6-11.8-44.9,8.5-53.6c5.4-2.3,10.9-3.1,16.9-1C336.8,195.6,344.3,208,343,222.4z"/>
<path class="st12" d="M247.3,393.8c-9.3-1.2-18-2.3-26.7-3.4c-2.1-0.3-2.4-1.3-1.4-3c5.1-8.9,10.2-17.9,15.4-26.7
	c1.4-2.6,1.3,0.4,2,1C240.1,372.4,243.6,382.8,247.3,393.8z"/>
<path class="st12" d="M143.7,363.5c-5,15.3-12.9,28.2-26.4,36.9c-9.6,6.2-19.9,8-30.9,4c-2.7-1-3.6-2.1-2.5-5.1
	c11.7-33.9,23.3-67.8,34.9-101.8c1.2-3.5,2.8-3.1,5.3-1.8c12.6,6.2,18.6,17.2,21.6,30.1C148.5,338.2,147.6,350.8,143.7,363.5z"/>
<path class="st12" d="M343,222.4c-1.3,14.9-11.7,27-25.1,29.1c-7.5,1.2-14.2-1.2-19.8-6.2c-16.6-14.6-11.8-44.9,8.5-53.6
	c5.4-2.3,10.9-3.1,16.9-1C336.8,195.6,344.3,208,343,222.4z"/>
</svg>
