<?xml version="1.0" encoding="utf-8"?>
<!-- Generator: Adobe Illustrator 27.7.0, SVG Export Plug-In . SVG Version: 6.00 Build 0)  -->
<svg version="1.1" id="Layer_1" xmlns="http://www.w3.org/2000/svg" xmlns:xlink="http://www.w3.org/1999/xlink" x="0px" y="0px"
	 viewBox="0 0 99.4 96.1" style="enable-background:new 0 0 99.4 96.1;" xml:space="preserve">
<style type="text/css">
	.st0{display:none;}
	.st1{display:inline;}
</style>
<g id="Layer_1_00000069375697425858688680000018163382088473342353_" class="st0">
	<g class="st1">
		<path d="M48.7,18.7h33.5c4.4,0,7.1,4.7,4.9,8.5l-16.7,29l-16.7,29c-2.2,3.8-7.6,3.8-9.8,0l-16.7-29l-16.7-29
			c-2.2-3.8,0.5-8.5,4.9-8.5C15.4,18.7,48.7,18.7,48.7,18.7z"/>
	</g>
</g>
<g id="Layer_2_00000037676678230854488570000013484271083424079292_">
	<g>
		<path d="M49.5,13.3H83c4.4,0,7.1,4.7,4.9,8.5l-16.7,29l-16.7,29c-2.2,3.8-7.6,3.8-9.8,0L28,50.8l-16.7-29
			c-2.2-3.8,0.5-8.5,4.9-8.5C16.2,13.3,49.5,13.3,49.5,13.3z"/>
	</g>
</g>
</svg>
