<?xml version="1.0" encoding="utf-8"?>
<!-- Generator: Adobe Illustrator 27.7.0, SVG Export Plug-In . SVG Version: 6.00 Build 0)  -->
<svg version="1.1" id="Layer_1" xmlns="http://www.w3.org/2000/svg" xmlns:xlink="http://www.w3.org/1999/xlink" x="0px" y="0px"
	 viewBox="0 0 928.6 1035.3" style="enable-background:new 0 0 928.6 1035.3;" xml:space="preserve">
<style type="text/css">
	.st0{fill:#161B18;}
	.st1{fill:#FEFEFE;}
	.st2{fill:#FDFDFD;}
	.st3{fill:#FFFFFF;}
	.st4{fill:#FCFCFC;}
	.st5{fill:#121713;}
	.st6{fill:#171C19;}
	.st7{fill:#181C1A;}
	.st8{fill:#181D1A;}
	.st9{fill:#181C19;}
	.st10{fill:#191D1B;}
	.st11{fill:#F7F8F7;}
	.st12{fill:#B3B9B5;}
</style>
<g>
	<path class="st0" d="M783.7,687.6c3.3,8.2,6.5,16.3,7.4,25.2c0.3,3.7,0.6,7.3-0.2,10.9c-0.7,3.4,0.3,5.4,3.6,7
		c18.4,8.6,26.6,23.9,25.8,43.5c-0.3,6.7,1,11.8,4.2,17.4c6.7,11.3,6.2,23.3,1,35c-1.8,4-0.9,6.4,2,9c7.2,6.4,13.1,13.7,14.9,23.6
		c1.5,8.6,2.2,17.2-0.1,25.8c-0.8,3.1-0.4,5.3,2.8,6.4c3.6,1.2,2.3,4.8,3.6,7.2c5.9,10.9,7.1,22.6,5.3,34.9
		c-1.3,8.8-6.2,15.2-11.9,21.4c-14.6,15.6-32.5,23.2-53.8,25c-14.7,1.3-29.3,4.1-44.1,5.2c-18.8,1.4-37.5,2.9-56.3,4.5
		c-18.1,1.6-36.1,3.2-54.2,5.1c-32.1,3.5-63.7,1.7-95.3-4.9c-31.7-6.6-63.3-4.9-95,2.9c-23.3,5.7-47.3,10.2-71.3,11.7
		c-25.9,1.6-51.9,0.3-77.7-4.2c-12.3-2.1-25-1.2-37.1-4.8c-19.7-5.7-39.6-10.3-59.8-13.8c-14.9-2.6-29.8-5.6-43.9-11.2
		c-10.8-4.3-21.6-9.2-29.7-17.7c-8.9-9.3-11.4-21.5-12.6-34c-0.9-9.6,1.4-18.5,6.1-26.8c0.9-1.6,1.1-2.8,0.4-4.6
		c-5.4-13.9-1.4-30.5,9.9-40.6c2.2-2,2-3.1,1.1-5.7c-6.1-16.8-8-33.4,4.6-48.5c1.4-1.7,1.1-2.9,0.4-4.5c-4.5-10.4-5.1-20.9-0.7-31.5
		c0.7-1.7,0.7-3.1-0.2-4.7c-6.1-10.7-8-22.4-7.3-34.8c-0.7,0.1-1.2,0.1-1.5,0.3c-11.7,11.3-25.6,12.3-40.5,9
		c-8.4-1.9-16.7-4.1-24.3-8.6c-9.4-5.6-15.1-13.7-19-23.6c-9.4-23.4-10.7-47.4-7.5-72.1c4.3-33.2,16.8-63.9,26.7-95.4
		c10.6-33.7,27.6-64.1,45.1-94.3c6.4-11,14.9-20.4,26.1-27c10.6-6.3,21.1-7.8,32,0.3c2.3-11.1,4.3-22,6.7-32.8
		c15.1-69.8,37.5-137,72.9-199.3c23.2-40.9,51.1-78,87.5-108.1C359.2,41,392.1,23.3,430,16.3c42-7.8,82.1-1.5,120.6,16.6
		c39.1,18.4,71.3,45.7,99.6,78c41.1,47,71.1,100.7,95.2,157.9c17.6,41.6,31.1,84.6,42,128.4c0.6,2.2,0.5,4.2,3.9,2.9
		c15.2-6,27.3-0.1,37.6,10.9c10.2,10.8,16.7,24.1,22.1,37.7c12.8,32.7,26.3,65.1,34.8,99.3c6.6,26.3,9.4,53.2,4.7,80.2
		c-3.1,18.3-10.9,34.5-25,47.2c-4.3,3.8-9.2,6.7-14.5,8.7c-21.4,8.1-43.1,11.2-65.6,2.8C784.8,687.1,783.8,686.6,783.7,687.6z"/>
	<path class="st1" d="M881.5,575.3c2.2,20.5,4.2,40.7-2.2,60.4c-5.2,16.2-12.7,31.3-29.3,38.5c-18.6,8.1-38,12.2-58.2,4.8
		c-2.2-0.8-4.1-2.3-6.3-2.7c-4-0.7-7.8,0.3-10,4.1c-2.3,4-3.6,8.3-0.6,12.7c6.1,9.3,8.4,19.5,6.9,30.4c-0.8,6.1-1.1,10.9,5.7,14
		c4.6,2.1,0.8,5-1,7c-8.2,8.9-18.8,13.8-30.2,16.6c-18.4,4.5-36.5,10-54.6,15.8c-17.4,5.6-34.1,13.2-51.5,18.8
		c-21,6.7-42.2,11.7-64,14.8c-13.9,2-27.8,3.6-41.8,2.6c-24.4-1.7-48.7-3.8-72.8-8.1c-18.2-3.2-35.7-7.9-51.4-17.8
		c-7.8-4.9-15.3-5-23.6-1.4c-22.2,9.7-45.9,13.8-69.7,15.9c-15.3,1.4-31,0.4-46.2-2.7c-19.8-4-39.9-5-59.7-8.6
		c-21.2-3.9-40.5-12.7-59.7-21.7c-3.8-1.8-6.6-5-9.3-8.2c-2.3-2.7-3.6-6.6-7.9-7.1c-0.4-0.1-0.9-0.9-1.2-1.5
		c-6.4-12.7-11-25.7-6.5-40.2c1-3.2,2.1-6.3,4.9-8.5c1.7-1.3,2.6-3.1,1.7-5.3c-0.9-2.5-3-2.9-5.3-2.8c-3.7,0.1-6.6,2.2-9.1,4.7
		c-3.4,3.4-6.8,6.9-10.2,10.3c-6.2,6.1-13.5,9.8-22.4,9c-10-0.8-19.7-3.1-28.8-7.4c-9.6-4.5-15.1-12.4-18.9-22.1
		c-8.6-22.1-9.5-44.7-6.2-67.8C45.9,595.3,54,570,63.2,545c1.7-4.5,3.4-9.1,4.7-13.7c6.7-23.5,17.4-45.3,29.1-66.6
		c4.6-8.3,8.9-16.7,13.8-24.9c6.7-11.3,14.9-21.3,26.7-27.8c3.6-2,7.3-3,11.5-2.7c5,0.3,8.1,2.5,8.7,7.7c0.4,3.1,1.2,5.7,4.8,6.8
		c3.8,1.1,6,0.3,7.5-3.4c1.4-3.5,1.6-7.1,2.1-10.7c4.8-34.9,13.6-68.9,23.8-102.5C212.7,252,235,199.3,266.8,151
		c25.1-38,54.9-71.7,93.5-96.6c27.4-17.7,57.2-29.1,89.9-31.8c37.7-3.1,73,5.7,106.3,23.3c39.4,20.9,71.2,50.6,98.9,85.1
		c38.1,47.4,65.9,100.7,88.1,157c14.3,36.3,25.9,73.4,35.1,111.3c1.7,7,1.7,7-1.8,13.6c-0.7,1.3-1.2,2.8-1.3,4.2
		c-0.3,3-0.6,6.4,3.4,7.2c3.8,0.7,4.5-2.2,5.3-5.1c2.7-9.6,16.2-15.3,25.9-11.1c7.4,3.2,12.8,8.8,17.4,15.3
		c6.2,8.7,11.1,18.3,14.9,28.2c13,33.5,26.6,66.8,35.6,101.6C879.7,560.3,881.1,567.5,881.5,575.3z"/>
	<path class="st2" d="M145.2,921.5c23.8,18.5,49.7,32.8,76,46.4c13,6.7,27.1,10.1,41.6,11.4c1.5,0.1,3,0.1,4.5,0.1
		c3.3,0.1,7.6-0.3,7.7-3.7c0-3.3-4.4-2.3-7.1-2.5c-19.2-0.9-36.7-7.3-53.4-16.4c-27.1-14.7-53.4-30.7-77.4-50
		c-2.2-1.8-4.2-3.7-6.3-5.7c-2.8-2.7-5.8-5.3-3.1-10c1.2-2,0.1-4.6-1-6.7c-3.9-7.3-1.9-14.6,0.4-21.8c0.7-2.2,1.8-2.4,3.4-0.7
		c11.1,11.7,25.1,19.7,38.5,28.3c13.2,8.4,27.8,13.5,43.1,16.4c26.8,5.1,53.1,12.2,79.6,18.9c23.7,6,47.8,8.2,72.3,7
		c13.3-0.7,26.7,0.3,39.9-1.9c16.5-2.8,32.3-8.1,47.9-13.7c26.3-9.5,52.7-10.5,79.6-4.3c16.2,3.8,32.5,6.9,48.8,10.4
		c11,2.3,22.2,2.3,33.3,3.1c29.4,2.1,58.1-1.5,86-11.3c42.9-15.1,82.6-36.6,120.7-61c2.4-1.5,4.4-3.5,7-5.5
		c6.9,7.5,7.5,16.8,7.5,26.3c0,3.6-1,7.2-1.7,10.8c-0.5,2.9-0.5,5.9,1.4,8.1c2.3,2.7,1.7,4.4-0.2,7.2c-14.2,20-34.3,31.6-56.4,40.4
		c-14,5.6-28.3,10.7-42.4,16.1c-3.8,1.5-7.7,2.8-10.9,6.3c3.9,1.7,7.5,1.2,10.9,0.1c19.1-6.3,38.2-12.6,56.4-21.1
		c18.9-8.8,35.9-20.3,47.9-37.9c0.2-0.2,0.6-0.3,0.8-0.5c8.2,11.3,6.2,31-3.6,42.5c-12.6,14.8-28.5,22-47.7,23.7
		c-14.1,1.3-27.9,4.3-42.1,5.2c-18.4,1.2-36.8,3.1-55.2,4.5c-15.9,1.2-31.8,2.7-47.7,4.5c-34.4,3.9-68.7,4.3-102.8-3.5
		c-9.6-2.2-17.6-6.6-24.2-13c-14.2-13.9-31-21.4-50.4-23.9c-5.1-0.7-10.2-1.5-14.3-5.2c-1.1-1-2.5-1.3-3.7-0.5
		c-1.2,0.9-0.8,2.4-0.4,3.7c0.7,2.7,2.9,4,5.2,5c3.8,1.7,7.8,2.9,11.9,3.5c19.9,2.6,36.9,10.8,50.5,26.4c-5,0-10,0.3-14.9-0.1
		c-21.3-1.7-41.6,3.2-62.2,7.4c-22.3,4.5-44.8,9.3-67.4,10.9c-23.7,1.8-47.6,0.5-71.2-3.6c-9-1.6-18.2-2.1-27.3-2.8
		c-11.9-1-23-5.2-34.4-8.2c-15.3-4.1-31-6.3-46.4-9.4c-16-3.2-31.8-6.7-46.2-15c-1.7-1-3.8-1.2-5.5-2.1
		c-15.3-8.9-24.3-32.3-18.8-49.1c0.2-0.6,0.6-1.2,1.1-2.4C129.2,910.4,137.3,915.5,145.2,921.5z"/>
	<path class="st3" d="M500.2,816.5c5.7,0.2,11.2,0.6,17,1.1c4.6,4.5,7.3,4.9,12,1.5c1-0.1,1.8-0.1,2.9,0.1c1.7,1.5,3,3.4,5.1,0.5
		c4.3,0,8.4,0.2,12.8,0.5c4.6,2.1,8.7,1.2,13.1-0.3c1.1-0.2,1.8-0.3,2.9-0.2c1.8,1,3.3,1.8,5.1,0.2c0.7-0.3,1.1-0.4,1.9-0.5
		c1.2,1.2,2,2.5,3.2-0.2c1.3-0.5,2.4-0.7,3.8-0.9c2,1.7,3.4,0.4,5.1-0.6c1.6-0.5,2.9-0.8,4.7-1c1.3,0.6,2.2,1,3.3,0
		c1-0.3,1.7-0.5,2.8-0.5c5.7,2.2,10.3,0.3,15.1-2.4c1.4-0.5,2.5-0.9,3.9-1.2c5.3-0.3,10.5,0.3,15.1-3.3c1-0.6,1.8-0.8,2.9-1
		c4.6,0.9,8.3-0.7,12.1-3.1c0.8-0.6,1.4-0.9,2.4-1.1c2.5-0.1,5.2,1.2,6.7-2.3c1.6-0.7,3-1.2,4.8-1.6c1.8,0.1,3.3,0.2,4.6,1
		c1.7,1,2.6,0.5,4.1-0.9c2.7-2.5,7.3-2.6,9.4-6.7c1-0.6,1.8-1,2.8-1.4c7.8,0.7,14.5-1.5,21.3-4.2c6-2.4,10.9-6.6,18-7.4
		c4.1-0.4,9.7-1.5,13.5-4.8c1.2-1,2.7-1.3,4.3-2.2c1.4-0.6,2.5-0.9,3.9-1.2c4.9,2.2,8.6,3.1,14.1,0c5.1-3,11.1-6.8,18.2-5.3
		c2.9,0.6,5.7-0.1,6.4-3.9c0.4-1.8,2-2.6,3.5-3.4c2-1.1,3.6-2.4,3.4-5.3c0-0.5,0.1-0.7,0.5-0.9c1.6-1.1,3.3-1.5,4.8-2.1
		c3.5-1.5,8.6,0.5,9.2,4.1c0.7,4,2.5,5.8,6.4,6c0.8,0,1.5,0.6,2.3,1.6c0.4,1.1,0.6,1.8,0.7,2.9c-3.9,3.3-5.1,7.1-4.2,11.8
		c0.7,4.2-0.2,8-4.5,10c-1.4,0.7-2.4,1.8-3.2,3.1c-1.9,3.1-4.6,5.2-7.8,6.8c-1.8,0.9-3.7,1.8-5,3.2c-4.8,5-11.3,7.4-17.2,10.5
		c-7.1,3.7-14.5,7.4-22.5,9.2c-0.7,0.1-1.5,0.2-1.9,0.7c-3.7,5.5-9.6,5.2-15.2,6c-2.4,0.4-4,1.6-5.6,3.6c-3.5,4.4-6.7,8.3-13.3,9.9
		c-7.2,1.8-15.5,2.1-21.6,7.9c-2.2,2.1-5.8,2.7-8.9,3.1c-3.8,0.5-7,1.5-9,5.5c-2,1-3.7,1.6-5.8,2.3c-4.2-1.8-8.1-0.5-11.9,0
		c-2.2,0.3-1.8,1.9-2.3,3.5c-0.6,0.5-1,0.7-1.7,0.9c-4.8,0-9.3-0.7-13.3,2.5c-1.8,0.7-3.5,1-5.6,1.4c-3.4-1.5-6.4-1.3-9.4,0.8
		c-10.1,1.5-20.1,1.9-30.7,1.5c-2.4-3.7-5.1-2.7-8.2-1.1c-1.4,0.2-2.4,0.2-3.9,0.1c-4.3-2.7-8.4-4-13.3-2.2
		c-0.7,0.2-1.2,0.1-1.9-0.1c-0.5-0.8-0.3,0-0.6-0.6c-2.2-5.6-2.2-5.6-7.4-2c-0.8,0.2-1.4,0.1-2.2-0.2c-2.4-3.3-5.6-4.9-9.3-5.3
		c-3.2-0.3-5.8-1.3-8-4c-2.7-3.3-6.4-3.6-10.5-1.2c-2.5-0.4-4.6-0.9-7-1.7c-2.3-3.9-5.6-2.5-9-2.2c-10.6-0.9-21-0.2-31.7-0.5
		c-8.6-4.7-16.4-2.7-24.2,1.5c-2.2,0.6-4.3,0.8-6.9,0.9c-2-1.4-3.4-0.2-5.1,0.5c-2.3,0.6-4.4,1-6.9,1.4c-6.7-2.8-7.8-2.6-11.2,2.5
		c-0.6,0.4-1.1,0.5-1.8,0.7c-3.8-2.3-7.1-2-10.4,0.5c-2,1.5-4.4,2.6-6.9,2.5c-5.6-0.2-9.9,2.4-13.8,6.6c-2.1,1.5-4.4,1.5-6.9,2.1
		c-6.9-1.7-13.3-2.5-19.1,2.7c-3,0.6-5.7,0.9-8.8,1.1c-2.5-2.3-4.7-2.2-7.2-0.1c-12.7,1.1-25.1,1.6-37.9,0.7
		c-4.7-3.2-9.2-2.2-14.1-0.9c-1.7,0.1-3.2,0.1-5-0.2c-5.4-4.7-11.7-3-17.5-3.5c-8-0.7-16.2-0.5-24.5-1.8c-1.2,0.1-2.1,0-3.2-0.4
		c-0.8-1.3-1.7-1.5-3-1.1c-0.7,0-1.1-0.1-1.8-0.4c-2.4-3.9-4.8-6.5-9.8-5.4c-2.6,0.6-4.8-1.3-6.3-3.4c-2-2.9-4.6-4.2-8-4.1
		c-1.3,0-3-0.1-3.8-1c-4.5-4.5-11-4.5-16-7.8c-1.2-0.8-2.4-1-3.8-1.2c-1.2-0.1-2.6-0.2-3.2-1.2c-2.2-3.4-5.7-4.7-9-6.6
		c-3.2-1.9-6.4-3.6-9.8-5.3c-9.8-4.7-17.3-12.3-24.4-20.3c-0.5-0.6-0.9-1.5-1.5-2c-3.3-2.6-4-5-0.2-7.9c2.3-1.7,1.7-3.7-0.3-5.7
		c-0.4-1.2-0.6-2.3-0.7-3.7c1.5-2.4,3.1-4.1,0.2-6.6c-2.6-2.3-2.6-5.9-0.3-8.5c2.4-2.7,4.9-0.5,7,1.1c2.2,1.6,4.3,2.8,7.2,2.8
		c3.6,0.1,6.4,2.5,9.2,4.6c2.7,2.1,5.8,2.9,8.8,4.2c4.9,2.1,10.4,3.1,14.9,6.1c3.2,2.2,6.9,0.6,10,2.1c0.7,0.3,2-0.2,2.4,0.4
		c3.6,5.6,8.4,2.4,13.2,1.8c1.4-0.1,2.4,0.1,3.8,0.4c1.6,1.5,2.5,4.3,5.2,1.3c1.6-0.1,3,0.1,4.8,0.5c3.4,2.7,7.4,3.2,10.8,5.3
		c1.9,1.2,3.3-1.6,5.3-2.5c1.7-0.2,3-0.1,4.8,0c3,2,5.5,4.8,9.3,1.3c1.3-0.1,2.4,0,3.8,0.3c2.8,2.8,5.1,5.3,9.2,1.9
		c2.1,0.1,3.8,0.3,5.9,0.7c0.9,1.3,1.7,1.8,3.2,0.9c1.6-0.1,3,0,4.7,0.3c4.1,1.8,7.8,3.1,12.1,1.5c1.6-0.2,3-0.2,4.8-0.2
		c1.1,0.7,1.9,1,3.1,0.4c6.3-0.2,12.3-0.2,18.8-0.1c0.9,0.4,1.4,0.5,2.2,0.2c1.6-0.2,3-0.4,4.8-0.5c2.8,1.8,4.7-0.4,7.2-0.8
		c6-1.3,11.7-2.4,17.8-3.5c3.6,1.6,6.2-0.3,9.2-1.5c1-0.5,1.8-0.8,2.9-1.1c5.7,3.5,5.7,3.5,9.1-1.9c0.6-0.4,1-0.6,1.8-0.8
		c5.1,1,9.7-0.3,14.4-1c2.2-0.3,1.3-2.6,1.8-4.4c1-0.6,1.7-1,2.8-1.4c5.7,1.4,11.6,0.2,16.6,3.8c2.6,1.9,5.3,3.3,7.3,5.9
		c2.8,3.5,6,5.7,10.8,4.4c2.4-0.7,5,0.4,7.8-0.1c2,0.4,3.6,0.7,5.5,1.2c2.9,2.6,5.7,4.6,9.6,4.3c1.4-0.1,2.5,0.7,3.6,1.5
		c0.9,0.7,2,1.7,3.1,1.3c8.7-2.6,16.9,1.9,25.7,1.3c1.7-0.2,3.1-0.1,4.9,0C496.9,816.5,498.1,817.9,500.2,816.5z"/>
	<path class="st4" d="M360.5,926.1c-30.7,0.8-60.1-4.3-89-12.8c-20.1-5.9-40.7-10-61.3-14c-10.2-2-20.1-5.2-29.1-10.2
		c-16.3-9.1-32.3-18.6-45.8-31.8c-2.1-2.1-2.7-3.2,0-5.4c5.1-4,5.8-7.2,2.5-13c-4.9-8.6-4.6-17.7-4.2-27
		c14.2,11.1,26.5,24.4,42.8,32.3c20.5,9.9,41.1,19.5,62.7,26.9c16.3,5.6,33.4,5.7,50.3,7.2c19.9,1.8,40,1.4,59.9,0.7
		c18.4-0.6,36.4-3.3,53.8-9.8c23-8.6,46.8-12.6,71.3-13.3c14.8-0.4,29.7-1.7,44.1,3.2c9,3.1,18,6,26.8,9.5
		c13.4,5.3,27.3,6.8,41.5,7.8c40.5,2.7,78.3-8.4,115.6-22.5c16.5-6.2,31-16,47-23c13.8-6.1,28.2-11,40.6-20c8.2-6,16.5-11.8,25-17.8
		c7.1,10.3,6.6,21,1.4,31.8c-2.5,5.3-2.1,9.8,2,14.1c4.1,4.4,3.9,4.9-1.4,8.6c-14.5,10.1-30,18.5-45.5,26.9
		c-20,10.9-40.5,20.9-61.6,29.3c-20.4,8.1-41.5,13.4-63.2,15.8c-13.1,1.4-26.6,0-39.9-0.6c-16.4-0.7-32.3-4.2-48.3-7.1
		c-13.1-2.3-25.8-6.4-39-8.3c-20.6-3-40.8-2.3-60.7,3.9c-14.3,4.5-28.6,8.9-42.9,13.3C398,926.5,379.4,925.6,360.5,926.1z"/>
	<path class="st4" d="M670.9,857.4c0-1.8,2.6-3.9-2.8-5.6c6.6-0.6,11.3-1.2,15.9-2.4c4.5-1.2,7.3-5.5,11.7-6.2
		c6-1,11.4-3.7,17.6-4.2c3.8-0.3,7.4-4.7,8.4-7.6c1.8-5.6,5.9-5.3,9.7-5.9c4.4-0.7,8.1-0.6,11.4-5c1.9-2.4,8-2.2,11.7-4.3
		c6.4-3.7,13.6-5.7,20-9.8c5.1-3.2,9.8-7.5,15.5-9.9c3.5-1.5,6.3-3.7,8-7.2c0.5-1.1,1.2-2.1,2.4-2.4c5.5-1.7,5.5-5.6,4.5-10.3
		c-1.1-4.6,1.1-8.8,5.4-10.3c1.7,4,1.8,8.1,0.5,12.2c-0.3,0.9-1,2-0.8,2.8c1.1,7.2-4.2,9.9-8.8,13.4c-15.5,11.8-32.1,21.8-50.6,28.3
		c-7,2.5-13.6,6.1-20,10C711.9,844,691.6,850.8,670.9,857.4z"/>
	<path class="st4" d="M144,792.5c2.1-0.5,3.4,0.1,4.1,2c0.8,2-0.4,3.3-1.7,4.2c-3.2,2.1-4.2,3-0.5,6.4c3,2.8,5.6,6.6,8.7,9.7
		c1.8,1.8,3.5,3.6,6,4.3c0.6,0.2,1.6,0.3,1.8,0.7c2.4,6.9,8.7,7,14.3,8.6c1,0.3,2.1,1.2,2.7,2.1c1.4,2.2,2.7,4,5.9,2.7
		c1.5-0.6,2.8,0.5,3.2,2.3c0.2,0.9,0.3,2.4,0.9,2.7c4.5,2,9,4.3,13.8,5.3c1.9,0.4,3.9,0.2,5.1,1.9c2.7,3.9,6.5,4.9,10.8,4.7
		c2.4-0.1,4.1,0.7,5.4,2.8c2.1,3.6,4.8,5.5,9.4,4.3c4.7-1.2,5.9,2.3,6.7,6.3c-29.4-10.9-59.4-21-84.1-41.6
		c-4.5-3.7-8.5-7.9-13.3-11.2c-2.7-1.8-5.3-2.5-8.5-0.2c0.3-5.1,2.6-8.8,5.6-12.1C141.7,796.8,143.5,795.3,144,792.5z"/>
	<path class="st4" d="M216.3,796.4c-2.1,2.4-5.4,2.7-8.4,3.8c-0.9,0.3-2.2,0-2.7-0.9c-2.6-4.8-6.8-4.5-11.2-3.4
		c-0.2,0-0.4,0.2-0.5,0.1c-3.6-4-9.1-3.9-13.3-6.1c-2.1-1.1-3.8-2.7-6.4-2.6c-3.7,0.1-5.7-3.1-8.5-4.8c-3.2-1.9-5.7-4.7-10.2-3.5
		c-2.6,0.7-3.7-3-6-4c-1.7-0.7-3.6-3.1-5-0.4c-1.2,2.2-1.9,5.8,0.9,7.2c6.2,3,2.4,4.5-0.8,6.6c-4.3-8.4-6.6-17-3.5-26.3
		c0.3-0.8,0.7-1.5,1-2.2c1,0,1.5,0.6,2,1.3c6.9,10.3,16.8,16.3,28.2,20.3c12,4.3,23.3,10.4,35.8,13.4
		C210.4,795.3,213.2,795.7,216.3,796.4z"/>
	<path class="st4" d="M786.4,754.1c3.2,1.8,2.2,3.4,0,5.2c-2.3,1.8-6.5,1.7-5.7,6.7c0.2,1.4-3.1,2.7-5,2.2c-7.4-2.2-14,1.8-19.4,4.8
		c-4.4,2.4-7.5,3.2-11.8,2.3c-1.4-0.3-2.5-0.7-3-2.6c11.3-3.9,23.2-5.7,33.8-11.5C779.1,759,782.9,757.2,786.4,754.1z"/>
	<path class="st4" d="M737.1,773.1c-2.6,3-5.1,6.9-10.3,6.1c-0.8-0.1-2.2-0.1-2.4,0.3c-2,4.4-5.7,2.5-8.9,2.6c-1,0.1-2.5,0-2.8,0.5
		c-2.6,4.4-7.9,4.1-11.5,6.9c-3.6,2.7-8.6,2.8-13.1,3.4c-2.3,0.3-5.1,2.8-7.5-0.7C698.8,784.6,717.7,778.8,737.1,773.1z"/>
	<path class="st4" d="M442.7,805.8c-10,4.1-13.5,3-20.9-4.5c-4.1-4.2-9.1-7.5-15.5-7.1c-2,0.1-4-0.2-5.8-1.9c4.6-3.4,9.1-3,14.2-0.4
		C423.9,796.7,432.7,802.2,442.7,805.8z"/>
	<path class="st4" d="M810.2,762.9c-2-0.2-3.8-0.8-5.9-0.7c-2.7,0.2-3.7-1.2-3.9-3.9c-0.4-5.4-3.8-7.5-8.8-5.8
		c-1.1,0.4-2.2,0.4-3.7,0.6c2.2-3.4,6.1-5.6,7.6-9.9c0.8-2.4,2.1-0.3,2.8,0.3C804.5,748.5,808.6,754.8,810.2,762.9z"/>
	<path class="st4" d="M490.1,815.1c0.2,2-1.2,2.5-2.5,2c-3.9-1.5-8.3,0-12-2.3c-1.5-0.9-3.1-0.7-4.8-0.3c-1.7,0.5-3.5,0.8-5.3,1.1
		c-3,0.6-15.5-5-17.1-8C462.2,809.9,476,812.4,490.1,815.1z"/>
	<path class="st4" d="M248.8,866.5c0-3,1.7-1.6,3-1.3c6.4,1.8,13,0.5,19.4,1.2c5.2,0.6,10.4,0.6,15.6,1.1c1.5,0.2,3.2,1,3.7,3.3
		C276.6,870.6,262.7,869.9,248.8,866.5z"/>
	<path class="st4" d="M389.9,866.3c1-4.2,5.9-8.1,10.6-8c4.4,0.1,7.9-1.1,11.4-3.8c2.9-2.3,6.1-2.2,8.6,1.5
		C410.4,859.7,400.3,863,389.9,866.3z"/>
	<path class="st4" d="M524.6,853.8c2.2-4.2,9.8-4.5,11.6-0.3c1.5,3.3,3.6,3.7,6.6,3.8c4,0.2,7.9,1.1,9.5,6
		C543.2,860.5,534,857.3,524.6,853.8z"/>
	<path class="st4" d="M453.1,850.8c-0.7-1.5-0.2-2.6,0.9-3.5c3.7-3.1,18.3-2.5,22.4,1.3C468.8,849.5,461.2,850.2,453.1,850.8z"/>
	<path class="st4" d="M363.9,871.1c-0.5-1.9-0.5-3.6,2-4.2c4.9-1.2,10-1.2,15-1.3c0.5,0,1,1.1,1.6,2.1
		C376.6,869.9,370.5,870.6,363.9,871.1z"/>
	<path class="st4" d="M677.1,793.2c-1,3.2-1.7,7-6.6,6.2c-0.4-0.1-1.3,0.1-1.3,0.3c-2.3,8.6-6.2,0.5-9.5,0.6
		C665.2,797.8,671,795.5,677.1,793.2z"/>
	<path class="st4" d="M397.1,793.1c2,4.1,0,7.4-4.5,6.9c-3.1-0.4-5.7-0.6-8.4,1c-1,0.6-2.3-0.1-2.7-1.9
		C386.6,797.2,391.7,795.4,397.1,793.1z"/>
	<path class="st4" d="M650.9,863.3c-2.6-4-1.8-5.4,3-5.2c3.5,0.1,7.1-2.3,10.6,1C660.3,861.5,655.8,862.4,650.9,863.3z"/>
	<path class="st4" d="M246.1,801.2c-3.3,6-3.7,6.3-8.7,2.2c-2.2-1.8-6.1,0.2-6.9-4C235.5,799.7,240.6,800.4,246.1,801.2z"/>
	<path class="st4" d="M529.2,818.7c-0.7,1.9-1,5-3.8,4.2s-7.1,0.4-7.8-4.8C521.4,818,525.1,818.3,529.2,818.7z"/>
	<path class="st4" d="M422.8,856c-0.6-2.5-0.1-4.9,2.6-5.5c2.8-0.6,5.9-1.1,8,2.3C430.1,854.2,426.6,855.1,422.8,856z"/>
	<path class="st4" d="M554.8,864.5c-0.2-3.2,2.5-4.5,4.4-4.7c5-0.7,2.8,3.5,3.3,6.3C559.9,866.5,557.5,865.4,554.8,864.5z"/>
	<path class="st4" d="M295.9,871.9c-0.2-0.8-0.1-2.2,0.3-2.2c4.2-0.7,8.4-0.9,12.5,0.1c0.3,0.1,0.5,1.1,0.7,2.1
		C305.1,872.2,300.7,872.1,295.9,871.9z"/>
	<path class="st4" d="M611.1,813.4c-3.5,4.9-9.5,6.3-14.5,3.1C601.2,815.2,605.9,814.2,611.1,813.4z"/>
	<path class="st4" d="M379.1,799.2c0.3,0.5,0.3,1.1,0.1,1.4c-1.1,1.6,0,4.7-2.3,5c-2.5,0.3-5-1-6.4-3.9
		C373.2,800.7,375.9,799.9,379.1,799.2z"/>
	<path class="st4" d="M629.9,808.9c0.5,1.3,0.7,3.2-0.8,3.3c-4.5,0.3-8.9,2.1-13.6,0.7C620.2,811.3,624.8,810.1,629.9,808.9z"/>
	<path class="st4" d="M564.6,867.1c3.4-3.9,8-3.4,12.8,1.4C573.3,868.3,569.2,867.7,564.6,867.1z"/>
	<path class="st4" d="M273.3,804.7c0.1,2.6-1.2,3.8-3.6,3.5c-2.5-0.3-4.9-0.9-5.2-4.5C267.3,803.7,270.1,804.1,273.3,804.7z"/>
	<path class="st4" d="M635.9,866.7c0-3.5,1.7-5.2,5.3-3.7c2.4,1,4.7-2.1,7.3,0.4C644.6,864.7,640.4,865.7,635.9,866.7z"/>
	<path class="st4" d="M299.1,808c-1,3.6-4.5,3.2-6.4,2.3c-1.6-0.7-4-0.7-5.2-2.9C291.2,807.4,295,807.6,299.1,808z"/>
	<path class="st4" d="M260.2,802.5c-2.2,5.1-4.5,5-8.7-0.6C254.3,801.9,257.1,802.2,260.2,802.5z"/>
	<path class="st4" d="M644.9,804.8c-0.8,3.5-7.6,5.9-11.4,3.7C637.2,807.1,640.8,806,644.9,804.8z"/>
	<path class="st4" d="M563.1,819.5c-3.5,4.3-7.9,3.1-12.5,1.1C554.5,820,558.6,819.7,563.1,819.5z"/>
	<path class="st4" d="M581.9,869.1c0.5-3.2,3.4-3.2,5.7-3.4c1.9-0.2,1.9,1.9,1.9,3.8C587.1,869.6,584.7,869.4,581.9,869.1z"/>
	<path class="st4" d="M508.7,849.8c5.3-3.4,6.8-3.2,8.7,1.3C514.6,851,511.8,850.5,508.7,849.8z"/>
	<path class="st4" d="M621,868.8c1.5-4,4.4-4.6,8.5-1.5C626.9,868.1,624.1,868.5,621,868.8z"/>
	<path class="st4" d="M347.9,872.2c2.1-4.6,3.8-4.8,6.6-0.6C352.4,872,350.4,872.1,347.9,872.2z"/>
	<path class="st4" d="M225.2,797.9c-0.2,2-0.2,4.3-2.7,4.1c-2.2-0.2-2.1-2.2-2.1-4.3C222,797.4,223.5,797.5,225.2,797.9z"/>
	<path class="st4" d="M367.1,802.2c-2,2.8-4.7,4.7-8.6,2.2C361.2,803.4,364,802.8,367.1,802.2z"/>
	<path class="st4" d="M537.1,819.3c0.2,1.6,1,3.7-1.6,3.8c-2.1,0.1-2.9-1.2-3-3.5C533.9,819.2,535.3,819.2,537.1,819.3z"/>
	<path class="st4" d="M654.1,801.5c-0.3,5-1.2,5.4-5.9,2.7C649.8,803.1,651.8,802.3,654.1,801.5z"/>
	<path class="st4" d="M576,818.7c0.4,0.5,0.5,1,0.4,1.5c-0.2,1.3,0.6,3.5-1.3,3.6c-2.5,0.1-1.3-2.3-1.7-4.1
		C574.2,819.1,574.9,818.9,576,818.7z"/>
	<path class="st4" d="M340.1,807.3c-1.4,2.6-3.6,3.6-6.5,1.4C335.5,808,337.6,807.6,340.1,807.3z"/>
	<path class="st4" d="M571.1,819.5c-0.6,4.5-2.4,3.3-4.5,0.5C567.9,819.6,569.3,819.5,571.1,819.5z"/>
	<path class="st4" d="M440.8,852.2c0.8-2.2,1.9-4.3,4.6-1.2C444.2,852.4,442.6,852,440.8,852.2z"/>
	<path class="st4" d="M585.1,817.4c-0.5,3-2,4-4.6,1.2C581.9,817.9,583.3,817.6,585.1,817.4z"/>
	<path class="st4" d="M500.1,816.1c-1.3,3.5-2.9,2.3-4.6-0.2C496.9,815.8,498.3,815.9,500.1,816.1z"/>
	<path class="st4" d="M282.3,806.3c0,1.2-0.3,2.4-1.6,2.4c-1.3,0-1.1-1.2-1.2-2.4C280.3,806,281.2,806.1,282.3,806.3z"/>
	<path class="st4" d="M593.2,816.3c0.2,1.1-0.1,2.1-1.2,2.4c-1.1,0.3-1.4-0.6-1.6-1.7C591.2,816.5,592,816.4,593.2,816.3z"/>
	<path class="st4" d="M307.1,808.3c-0.2,2.2-1.2,2.6-2.6,0.3C305.2,808.3,306,808.3,307.1,808.3z"/>
	<path class="st4" d="M242.6,864.9c0.8-1.8,1.8-2.4,2.8,0.2C244.5,865.3,243.7,865.2,242.6,864.9z"/>
	<path class="st4" d="M328.1,808.6c0,1.4-0.5,2.1-1.6,0.4C326.9,808.6,327.4,808.5,328.1,808.6z"/>
	<path class="st3" d="M783.8,687.4c-1.2-1.1-0.4-1.2,0.9-1C784.7,686.8,784.5,687,783.8,687.4z"/>
	<path class="st5" d="M553.1,304.6c24.6,18.2,40.7,41.7,48.8,70.8c0.6,2.1,1,4.2,2.2,6c1,1.5,1.1,3.3-0.5,4.5
		c-1.5,1.2-3.1,0.9-4.5-0.3c-0.5-0.4-1.1-0.8-1.5-1.3c-22.8-26.2-52.4-40.8-86-45.2c-41-5.4-81.9-2.5-120.5,14.1
		c-19.8,8.5-37.9,20.2-50.2,38.8c-0.6,1-1.3,1.9-2.5,2.3c-1.9,0.6-3.5,3.1-5.8,1.2c-2-1.7-1.5-4-0.8-6
		c18.9-58.3,57.8-95.1,118.1-107.1C486.9,274.9,521.7,282.4,553.1,304.6z"/>
	<path class="st6" d="M237.2,727.6c10.4,8.4,22.7,9.7,34.9,11.6c9.3,1.5,18.6,0.3,27.9,0.4c30,0.2,59.1-6.9,88.6-10.5
		c14.1-1.8,27.8-7,41.9-9.1c21-3.2,42-2.2,62.9,2.7c27.5,6.4,55,13,83.4,14.5c41,2.2,77.7-10.3,111.6-32.4c4.5-2.9,8.9-5.9,13.3-8.8
		c2.4-1.6,4.9-2.9,7.8-3.1c1.8-0.1,3.3,0.5,3.8,2.5c0.4,1.7-0.5,3-2,3.7c-11.3,5.1-20.8,13-31.5,19.1c-23,13-47.2,22.3-73.6,25
		c-24.9,2.6-49.5,0.2-73.9-5.1c-16.2-3.6-32.5-7.3-48.8-10.4c-20.3-3.9-41.2-4.6-61.4,1.1c-21.3,5.9-43.1,8.1-64.7,12
		c-24.9,4.4-49.9,6.3-75.1,6c-18.2-0.3-36.1-2.7-51.3-14.7c-7.5-6-16.9-8.6-25.8-11.5c-17.1-5.7-31.6-15.4-45.1-26.9
		c-1.7-1.4-2.3-3-1.2-4.8c1.2-2,3.1-1.6,4.8-0.6c1.6,0.9,3.2,1.8,4.6,3c12.9,12.1,28.7,19,45.1,24.9
		C221.5,718.9,229.8,721.9,237.2,727.6z"/>
	<path class="st7" d="M96.4,512c-3.2,2.3-3.7,5.5-3.9,8.6c-0.3,5.7-0.6,11.3-0.5,17c0.1,5.2-1.5,9.8-4.4,14
		c-4.4,6.4-8.7,13-13.2,19.4c-8.3,11.7-11.7,25-12.6,38.9c-0.8,11.6-1.5,23.3,1.9,34.7c3.1,10.4,9,18.9,18.4,24.6
		c11,6.7,19.7,1.3,24.5-9.1c2.2-4.8,3.1-10.1,4.9-15.2c2.5-7.1,6.5-13.1,13.3-16.8c2.1-1.1,4.5-2.6,6.2,0c1.9,2.9-0.4,4.6-2.7,5.9
		c-5.7,3.3-8.9,8.4-10.8,14.4c-1.3,4-2.1,8.1-3.6,11.9c-7.4,19.5-24.5,24.8-41.1,10.8c-10.7-9-16.4-20.9-17.7-34.7
		c-1.9-20.3-0.8-40.3,7.8-59.2c4.7-10.4,12-19.2,18.4-28.5c2.8-4.2,4.3-8.4,4.2-13.5c-0.1-6.8-0.8-13.7,1.1-20.4
		c1.5-5.2,4.3-9.1,9.8-10.1c6.6-1.2,10.6-5,12.5-11.4c0.7-2.5,2.1-4.9,3.2-7.3c6.6-14.1,19.5-17,31.9-7.3c7.8,6.1,10,14.7,10.5,23.8
		c0.7,14.2-5.5,25-16.7,33.3c-4,3-8.2,5.7-11.2,9.8c-3.3,4.4-4.3,9.2-3.5,14.6c1.9,13.3,9.1,23.7,17.9,33.3c1.6,1.7,2.8,3.6,0.8,5.6
		c-1.8,1.8-3.9,1-5.3-0.5c-9.9-10.6-17.9-22.3-20-37.2c-1.7-12.4,3.5-21.3,13.1-28.2c6.8-4.8,13-9.9,16.1-17.9
		c3.4-8.9,2.7-17.8-1.4-26.1c-3.2-6.5-9.5-9-16.7-9.1c-3.9,0-6,2.7-7.7,5.6c-1.6,2.9-3.2,5.9-4.1,9.1
		C112.8,504.6,106.5,510,96.4,512z"/>
	<path class="st8" d="M787.2,581.7c-0.6-2.3-1.3-4.2-1.6-6.2c-0.4-1.9-0.2-3.8,2.1-4.4c2.2-0.6,3.3,0.8,4.1,2.7
		c3.4,8.7,5,17.8,3.1,26.9c-3.1,15,1.1,27.8,9.5,39.9c12.3,17.7,31.2,16.4,42.5,5.4c5.4-5.2,10.8-10.4,15.2-16.5
		c2.9-4.2,4-8.5,2.4-13.6c-6.4-20.3-11.7-40.9-16-61.7c-0.9-4.6-2.9-8.8-5.4-12.8c-6.4-10.3-7.7-22.2-9.5-33.8
		c-1.5-9.8-1.8-19.9-5.6-29.3c-1.2-2.9-2.5-5.8-4.4-8.3c-3.7-4.7-11.1-7.4-15.5-5.5s-7.5,8.3-6.8,14.5c0.4,3.6,1.2,7.2,1.8,10.8
		c1.2,7,0.9,14.1-1.6,20.7c-2.6,7-2.1,13.6-0.4,20.5c1.2,4.7,2.4,9.3,2.6,14.2c0.1,2.2-0.2,4.2-2.8,4.5c-2.8,0.3-3.9-1.6-4.1-4
		c-0.3-5.4-1.8-10.5-2.9-15.7c-1.5-6.7-2-13.3,0.7-20.1c3.1-8.1,2.8-16.7,0.8-25.1c-1-4.1-1.3-8.3-0.5-12.4
		c1.4-7.1,4.9-13.1,12.4-14.9c8.5-2,15.9,1.1,21.4,7.7c6.6,8,8.9,17.8,10.1,27.8c1.3,10.9,2.6,21.8,5.2,32.5c1.2,4.8,3,9.5,5.9,13.7
		c4.6,6.8,5.8,14.8,7.3,22.6c3.6,17.8,9,35.1,14,52.5c1.9,6.8,1,13.1-3.1,19c-6,8.5-13.2,16-21.6,22c-10.7,7.7-30.4,10-44-6.4
		c-11.1-13.3-18.1-28.1-14.3-46.4C789.3,595.8,788.9,588.9,787.2,581.7z"/>
	<path class="st8" d="M552.6,545.2c-4.1-3.5-2-7-0.3-10.1c4.5-8.4,11.1-15,19.3-19.7c10.5-6,21.4-11.4,32.6-16.1
		c15.7-6.6,30.9-14,44.1-25c13.1-11,21.4-24.5,21.4-42.1c0-6.3,0-12.7-0.2-19c-0.1-2.4,0.1-4.9-3.4-5.8c-2.5-0.6-1.7-3.3-1.7-5.2
		c-0.4-26.2-4.5-52-10.7-77.4c-1.4-5.6-4-10.4-7.7-14.9c-8.7-10.5-15.6-22.3-22.8-34c-0.6-1-1.2-2-1.4-3.2c-0.3-1.4-0.9-3.2,0.5-4.2
		c1.6-1,2.8,0.5,3.8,1.6c1.7,1.9,3.2,3.8,4.6,5.9c7.4,11.1,14.5,22.3,23,32.6c7.2,8.8,8.9,20.1,10.6,30.8c3,19,6.9,38,6.9,57.4
		c0,2.8,2.3,4.2,3.1,6.6c3.7,11.3,3,22.8,2,34.2c-2.2,25.2-18.5,40.3-38.4,52.7c-17.6,10.9-37.4,17.3-55.5,27.1
		c-8,4.3-15.6,9-21,16.5c-1.8,2.5-3.4,4.9-4.2,7.9C556.4,543.8,555.6,545.5,552.6,545.2z"/>
	<path class="st9" d="M542.2,269.5c32,19.6,55.7,45.7,67.8,81.3c2,5.8,3.3,11.9,4.3,17.9c0.4,2.4,1,5.5-2.4,6.2
		c-3.5,0.7-4-2.4-4.4-4.8c-8.9-46.9-37.6-78.2-78.4-99.9c-22.7-12-47.3-18.2-73-17.6c-33.9,0.7-64.1,11.2-87.1,37.6
		c-5.1,5.8-9.2,12.2-12.6,19.1c-1.2,2.4-2.3,5.6-5.6,4c-3.6-1.8-1.6-4.9-0.4-7.3c13.8-27.2,36-44.7,64.7-53.6
		c38.7-12,76.3-7.2,112.7,9.5C532.6,264.1,537.2,266.8,542.2,269.5z"/>
	<path class="st7" d="M391.2,665.7c14.2,2.2,27.9,5.3,41.9,5.6c7,0.2,14-0.4,20.9-1.1c12.9-1.3,25,2.5,37.1,6.2
		c20.9,6.5,41.6,5.7,62-2.4c2.1-0.8,4.7-2.5,6.1,0.2c1.5,3-1.2,4.4-3.5,5.5c-15.7,7.7-32.3,8.5-49.3,7c-8.5-0.7-16.8-3-24.7-6
		c-9.8-3.7-19.8-4.5-30-3.5c-17.2,1.8-34.1-0.3-51.1-3.1c-28.4-4.8-56.6-10.5-84.8-16c-9.7-1.9-18.5-6.3-27.7-9.7
		c-3.3-1.2-6.5-2.5-10.2-2.1c-2.2,0.2-4.2-0.5-4.2-3.1c0-2.5,1.9-3.3,4-3.6c3.2-0.4,6.4-0.1,9.3,1.2c27,12.3,56.3,15.5,84.9,21.3
		C378.3,663.5,384.5,664.5,391.2,665.7z"/>
	<path class="st8" d="M317.1,461.6c28.2,13.8,50.9,33.9,70.9,57.2c7.8,9.1,15.2,18.6,21.8,28.6c0.6,0.8,1.1,1.6,1.7,2.5
		c1.1,1.8,1.3,3.5-0.7,4.8s-3.3,0.3-4.5-1.4c-5.9-7.7-11.8-15.3-17.8-22.9c-18.8-23.7-40.5-44.2-67.3-58.7
		c-14.7-8-29.8-15.4-44.6-23.4c-6.4-3.4-7.9-5.8-6.4-12.9c4.3-19.8,0.4-39.1-3.6-58.3c-2-9.4-4.5-18.8-6.8-28.1
		c-0.2-1-0.6-1.9-0.6-2.9c-0.1-1.7-0.3-3.5,2-4c2.1-0.4,3.2,0.8,3.7,2.6c2,6.5,4.2,13,5.8,19.6c4.7,19.6,9.2,39.2,7.8,59.6
		c-0.1,1.7-0.1,3.3-0.3,5c-0.5,3.9-2.6,8.5-1.3,11.6c1.2,2.7,6.3,3.7,9.6,5.5C296.7,451,306.8,456.2,317.1,461.6z"/>
	<path class="st6" d="M719.4,613.3c13.5-2.5,25.1-7.6,34.2-17.9c5.1-5.7,11.9-6.9,19.2-6.2c2,0.2,3.7,0.8,3.8,3.1
		c0.2,2.7-1.8,3.9-3.8,3.6c-9.1-1.3-14.4,4.2-20.1,9.8c-9.2,9-21.3,11.8-33.3,14.7c-21.1,5.1-41.3,0.1-61.5-4.8
		c-16.8-4.1-33.4-9.2-50.5-11.8c-8.1-1.2-16.2-1.8-24.4-1.4c-4.1,0.2-7.6,2.3-11.2,4c-3.3,1.6-6.5,3.3-9.9,4.6
		c-1.6,0.6-3.5,0.5-4.3-1.4c-0.6-1.5,0.1-3.1,1.5-3.9c9.4-5.1,18.1-10.7,30-10.3c25.2,0.8,48.7,8.4,72.8,14
		c8.1,1.9,16.3,3.5,24.4,5.2C697.3,617.1,708.2,615.9,719.4,613.3z"/>
	<path class="st6" d="M193.4,570.2c23.2,20.3,50.1,31.9,80,36.6c9,1.4,17.9-1.3,26.5-4c19.3-6,38.5-6.6,57.9-0.7
		c9.7,3,19.5,5.7,29.2,8.6c2.2,0.7,5.1,1.3,4.4,4.3c-0.8,3.5-4,2.5-6.2,1.9c-8.5-2.2-17.1-4.4-25.4-7.2c-19.6-6.7-39.1-6.8-58.7-0.1
		c-18.3,6.3-36.3,4.1-54.3-2c-22.2-7.5-42.5-18-59.6-34.2c-1.2-1.1-2.2-1.9-3.9-0.7s-3.6,1.2-4.7-0.8c-1.1-2-0.3-4,1.3-5.4
		c2.5-2.3,5.5-2,8.4-0.7C190.2,566.8,191.6,568.5,193.4,570.2z"/>
	<path class="st7" d="M431.3,531.4c10.1,19.9,13.2,40.7,11.2,62.4c-0.2,2.3-0.3,5.3-3.4,5.1c-3.3-0.1-2.9-3.2-2.7-5.4
		c0.9-18.7-1.3-36.8-8.8-54.2c-5-11.6-14-20.2-21.4-29.9c-3.1-4.1-6.5-8-9.4-12.3c-8.2-12.1-8.7-26.6-1.4-37.5
		c4.2-6.2,9.7-9.7,17.5-9.7c10.5,0.1,21-0.2,31.3-2.5c3.6-0.8,7-2,10.2-3.8c2.1-1.1,4.6-2.4,6.1,0.4c1.6,3-0.7,4.5-3,5.8
		c-9,5-19,5.8-29,6.5c-4.5,0.3-9,0-13.5,0.1c-9.2,0-15.8,6-17.5,15.2c-1.5,8.3,0.7,15.6,5.4,22.1c5.2,7.1,10.8,13.9,16.5,20.7
		C423.6,519.7,427.9,525,431.3,531.4z"/>
	<path class="st7" d="M674.9,647c10.6,2.1,20.9,3.2,31.2,2.7c8.1-0.4,14.3-6,21.3-9.4c1.2-0.6,2.3-1.3,3.5-2
		c2.1-1.1,4.5-2.4,6.2,0.2c1.6,2.6-1.1,3.7-2.7,5c-15.7,13.1-33.8,15.6-53.1,11.6c-21.5-4.4-43.1-4.7-65-3.8
		c-21,0.9-41.9-1.6-60.5-13.1c-5.9-3.6-11.3-7.6-15.4-13.2c-1.2-1.7-2.3-3.6-0.4-5.4c1.9-1.6,3.8-0.8,5.3,0.8
		c14.9,16.7,34.5,21.8,55.8,23.8c11.6,1.1,22.9-0.1,34.3-0.6C648.4,643,661.4,644.8,674.9,647z"/>
	<path class="st6" d="M540.5,552.4c-1.2,13.8-1.2,27.1,0.2,40.3c0.2,1.5,0,3,0,4.5c0,1.8-0.3,3.5-2.5,3.7c-2.1,0.2-2.9-1.5-3.2-3.2
		c-0.6-3.3-1.2-6.6-1.4-9.9c-0.9-19.7-0.7-39.3,3.3-58.7c2.9-14.6,11.4-26,20.3-37.3c2.5-3.1,4.9-6.3,6.5-10
		c3.9-9.2-0.7-17.8-10.5-19.4c-6.1-1-12.2-1.6-18.3-2.1c-7.9-0.6-14.9-3.4-20.8-8.6c-1.8-1.5-3.2-3.3-1.3-5.5
		c1.8-2.2,3.9-1.3,5.7,0.3c6,5.4,13.4,6.9,21.2,7.5c5.3,0.4,10.6,0.9,15.8,1.9c13,2.6,19.7,14.9,15.2,27.4
		c-1.6,4.5-4.3,8.2-7.2,11.9c-9,11.4-18,22.8-20.1,37.8C542.2,539.4,541.4,545.7,540.5,552.4z"/>
	<path class="st8" d="M617.9,227.9c0.5,2.5-0.2,4-2.4,4.4c-2.1,0.4-3.3-0.9-4.5-2.4c-22-27.5-49.7-46.7-83-58
		c-14.9-5-30.3-7.8-46.1-5.4c-2.4,0.4-5,0.6-5.4-2.7c-0.4-3.1,2.1-3.6,4.6-4c17.7-2.6,34.8,0.4,51.4,6.3
		c33.2,11.7,61,31.2,83.3,58.6C616.5,225.6,617.1,226.6,617.9,227.9z"/>
	<path class="st6" d="M705.2,568.1c18.1-8.8,33.7-20.1,45.2-36.5c0.8-1.1,1.5-2.4,3.1-1.7s2,2.1,1.8,3.8c-0.4,2.7-1.9,4.9-3.7,6.9
		c-25.1,28.7-55.8,44.9-94.8,44c-13.7-0.3-26.7-3.2-39.6-7c-2.4-0.7-6-1.2-4.9-4.9s4.6-2.1,6.9-1.5c8.5,2.2,16.9,4.9,25.7,5.9
		C665.8,579.7,685.8,577.3,705.2,568.1z"/>
	<path class="st9" d="M380,630c4.5,1.1,5.4,2.9,2.9,6c-2.2,2.7-4.7,5.3-8.2,6.3c-13.3,3.8-25.8,5.3-39.3-2.2
		c-17.6-9.8-37.4-10.5-57.3-6.5c-11.3,2.3-22.7,2.9-34.2,3.6c-2.3,0.1-5.2,0.4-5.4-2.8c-0.3-3.5,2.8-3.1,5-3.2
		c15.6-1.3,30.9-5,46.4-5.9c18.5-1.1,36.9,0.7,53.4,11c5.6,3.5,11.6,3.6,17.8,2.3C367.9,637,374.7,635.8,380,630z"/>
	<path class="st8" d="M504.3,631.1c4.9-3.8,9.5-7.4,11.8-13.1c0.6-1.6,2-2.2,3.7-1.8c1.9,0.5,2.7,2.1,2.4,3.8
		c-0.2,1.4-0.6,3-1.5,4.2c-8.3,10.6-17.9,20-31.7,22.7c-10.3,2-20.4-1.3-30.2-4.7c-10.8-3.8-21.3-8.8-33.2-7.8
		c-3.5,0.3-6.9,0.7-10.4,1.2c-2.1,0.3-4.3,0.7-5-1.8c-0.8-2.9,1.8-3.9,3.8-4.3c10-2.2,19.9-2.9,30,0.2c10.8,3.2,21.1,8,32.3,10.1
		c9.1,1.8,16.7,0.1,23.8-5.5C501.4,633.4,502.7,632.3,504.3,631.1z"/>
	<path class="st10" d="M232.5,523.2c-3.4-2.7-6.5-5.2-9.7-7.6c-1.9-1.4-2.8-3.2-2.3-5.6c0.3-1.5,1.4-2.4,2.7-2.6
		c2.4-0.4,3.1,1.5,4.5,3c2.6,2.8,5.9,4.8,8.8,7.2c12.9,10.8,26.4,20.6,41.7,28.1c11.4,5.6,23.1,8.2,35.7,7.5
		c2.4-0.1,5.5-0.9,5.7,2.9c0.2,3.5-2.8,3.9-5.2,4c-11.2,0.5-22.2-0.7-32.7-5.2C263.6,547.1,247.5,536.3,232.5,523.2z"/>
	<path class="st11" d="M373.3,353.3c13.1-12.6,28.5-21.6,45.3-27.6c50-18.1,96.8-11.2,140.5,19.4c0.5,0.7,0.3,1.2-0.5,1.4
		c-29.8-14.8-61.1-18.1-93.6-15.7c-21.3,1.6-42.3,4.1-62.8,10.4c-9.7,3-18.9,7.2-28,12.5C373.8,353.8,373.6,353.7,373.3,353.3z"/>
	<path class="st12" d="M558.5,346.6c0.1-0.5,0.4-0.7,0.8-1.1c0.8,0.1,1.5,0.5,2.3,1.1c0.1,0.5,0,0.7-0.3,1.1
		C560.2,347.6,559.4,347.3,558.5,346.6z"/>
	<path class="st12" d="M563.6,349.5c-0.2-0.5-0.1-0.7-0.1-0.9c0.2,0.1,0.5,0.1,0.7,0.2C564,349.1,563.9,349.4,563.6,349.5z"/>
	<path class="st12" d="M372.6,354.4c-0.6,0.7-1.1,1.3-1.5,0.5c-0.1-0.3,0.4-0.9,1-1.5C372.6,353.6,372.7,353.8,372.6,354.4z"/>
	<path class="st12" d="M561.5,347.2c0.5,0.1,0.9,0.4,1.2,0.7c-0.4,0.2-0.8,0.3-1.4,0.3C561.1,347.8,561.2,347.6,561.5,347.2z"/>
	<path class="st11" d="M372.8,354.6c-0.2-0.1-0.2-0.3-0.2-0.9c0-0.4,0.3-0.6,0.5-0.7c0.3,0.1,0.5,0.3,0.7,0.6
		C373.7,354.1,373.3,354.3,372.8,354.6z"/>
	<path class="st12" d="M369.8,356.3c0-0.4,0.2-0.7,0.5-1C370.6,355.7,370.5,356.1,369.8,356.3z"/>
	<path class="st12" d="M369.4,356.2c-0.1,0.2-0.1,0.5-0.1,0.7c0,0-0.2,0-0.4,0c0-0.2,0-0.4,0.3-0.7
		C369.5,356.2,369.5,356.2,369.4,356.2z"/>
</g>
</svg>
