<?xml version="1.0" encoding="utf-8"?>
<!-- Generator: Adobe Illustrator 27.7.0, SVG Export Plug-In . SVG Version: 6.00 Build 0)  -->
<svg version="1.1" id="Layer_1" xmlns="http://www.w3.org/2000/svg" xmlns:xlink="http://www.w3.org/1999/xlink" x="0px" y="0px"
	 viewBox="0 0 833.8 958.8" style="enable-background:new 0 0 833.8 958.8;" xml:space="preserve">
<style type="text/css">
	.st0{fill:#202622;}
	.st1{fill:#B9BBB9;}
	.st2{fill:#FDFDFD;}
	.st3{fill:#F8F9F9;}
	.st4{fill:#F8F8F8;}
	.st5{fill:#F7F7F7;}
	.st6{fill:#FAFAFA;}
	.st7{fill:#F6F6F6;}
	.st8{fill:#F4F4F4;}
	.st9{fill:#EEEFEE;}
	.st10{fill:#EBEBEB;}
	.st11{fill:#E2E3E2;}
	.st12{fill:#FFFFFF;}
</style>
<g>
	<path class="st0" d="M228.7,840.7c0,0.1,0,0.2,0,0.2c0.4,0.5,0.6,0.8,0.9,1c0.1-0.1,0.1-0.2,0.2-0.3
		C229.5,841,229.2,840.8,228.7,840.7z M228.7,840.7c0,0.1,0,0.2,0,0.2c0.4,0.5,0.6,0.8,0.9,1c0.1-0.1,0.1-0.2,0.2-0.3
		C229.5,841,229.2,840.8,228.7,840.7z M228.7,840.7c0,0.1,0,0.2,0,0.2c0.4,0.5,0.6,0.8,0.9,1c0.1-0.1,0.1-0.2,0.2-0.3
		C229.5,841,229.2,840.8,228.7,840.7z M228.7,840.7c0,0.1,0,0.2,0,0.2c0.4,0.5,0.6,0.8,0.9,1c0.1-0.1,0.1-0.2,0.2-0.3
		C229.5,841,229.2,840.8,228.7,840.7z M228.7,840.7c0,0.1,0,0.2,0,0.2c0.4,0.5,0.6,0.8,0.9,1c0.1-0.1,0.1-0.2,0.2-0.3
		C229.5,841,229.2,840.8,228.7,840.7z M228.7,840.7c0,0.1,0,0.2,0,0.2c0.4,0.5,0.6,0.8,0.9,1c0.1-0.1,0.1-0.2,0.2-0.3
		C229.5,841,229.2,840.8,228.7,840.7z M228.7,840.7c0,0.1,0,0.2,0,0.2c0.4,0.5,0.6,0.8,0.9,1c0.1-0.1,0.1-0.2,0.2-0.3
		C229.5,841,229.2,840.8,228.7,840.7z M229.2,861.7C229.2,861.8,229.2,861.8,229.2,861.7c0.4,0.4,0.6,0.6,0.9,0.7c0,0,0-0.1,0-0.1
		C229.8,862,229.5,861.8,229.2,861.7z M233.4,858.2C233.4,858.2,233.4,858.2,233.4,858.2c0.4,0.4,0.6,0.6,1,0.7c0,0,0,0,0,0
		C234,858.5,233.7,858.2,233.4,858.2z M233.4,858.2C233.4,858.2,233.4,858.2,233.4,858.2c0.4,0.4,0.6,0.6,1,0.7c0,0,0,0,0,0
		C234,858.5,233.7,858.2,233.4,858.2z M229.2,861.7C229.2,861.8,229.2,861.8,229.2,861.7c0.4,0.4,0.6,0.6,0.9,0.7c0,0,0-0.1,0-0.1
		C229.8,862,229.5,861.8,229.2,861.7z M228.7,840.7c0,0.1,0,0.2,0,0.2c0.4,0.5,0.6,0.8,0.9,1c0.1-0.1,0.1-0.2,0.2-0.3
		C229.5,841,229.2,840.8,228.7,840.7z M228.7,840.7c0,0.1,0,0.2,0,0.2c0.4,0.5,0.6,0.8,0.9,1c0.1-0.1,0.1-0.2,0.2-0.3
		C229.5,841,229.2,840.8,228.7,840.7z M229.2,861.7C229.2,861.8,229.2,861.8,229.2,861.7c0.4,0.4,0.6,0.6,0.9,0.7c0,0,0-0.1,0-0.1
		C229.8,862,229.5,861.8,229.2,861.7z M233.4,858.2C233.4,858.2,233.4,858.2,233.4,858.2c0.4,0.4,0.6,0.6,1,0.7c0,0,0,0,0,0
		C234,858.5,233.7,858.2,233.4,858.2z M233.4,858.2C233.4,858.2,233.4,858.2,233.4,858.2c0.4,0.4,0.6,0.6,1,0.7c0,0,0,0,0,0
		C234,858.5,233.7,858.2,233.4,858.2z M229.2,861.7C229.2,861.8,229.2,861.8,229.2,861.7c0.4,0.4,0.6,0.6,0.9,0.7c0,0,0-0.1,0-0.1
		C229.8,862,229.5,861.8,229.2,861.7z M228.7,840.7c0,0.1,0,0.2,0,0.2c0.4,0.5,0.6,0.8,0.9,1c0.1-0.1,0.1-0.2,0.2-0.3
		C229.5,841,229.2,840.8,228.7,840.7z M228.7,840.7c0,0.1,0,0.2,0,0.2c0.4,0.5,0.6,0.8,0.9,1c0.1-0.1,0.1-0.2,0.2-0.3
		C229.5,841,229.2,840.8,228.7,840.7z M229.2,861.7C229.2,861.8,229.2,861.8,229.2,861.7c0.4,0.4,0.6,0.6,0.9,0.7c0,0,0-0.1,0-0.1
		C229.8,862,229.5,861.8,229.2,861.7z M232.7,848.2c0,0.1,0,0.1-0.1,0.2c0.5,0.4,0.8,0.6,1.1,0.8c0-0.1,0.1-0.2,0.1-0.2
		C233.4,848.5,233,848.3,232.7,848.2z M233.4,858.2C233.4,858.2,233.4,858.2,233.4,858.2c0.4,0.4,0.6,0.6,1,0.7c0,0,0,0,0,0
		C234,858.5,233.7,858.2,233.4,858.2z M233.4,858.2C233.4,858.2,233.4,858.2,233.4,858.2c0.4,0.4,0.6,0.6,1,0.7c0,0,0,0,0,0
		C234,858.5,233.7,858.2,233.4,858.2z M232.7,848.2c0,0.1,0,0.1-0.1,0.2c0.5,0.4,0.8,0.6,1.1,0.8c0-0.1,0.1-0.2,0.1-0.2
		C233.4,848.5,233,848.3,232.7,848.2z M229.2,861.7C229.2,861.8,229.2,861.8,229.2,861.7c0.4,0.4,0.6,0.6,0.9,0.7c0,0,0-0.1,0-0.1
		C229.8,862,229.5,861.8,229.2,861.7z M228.7,840.7c0,0.1,0,0.2,0,0.2c0.4,0.5,0.6,0.8,0.9,1c0.1-0.1,0.1-0.2,0.2-0.3
		C229.5,841,229.2,840.8,228.7,840.7z M228.7,840.7c0,0.1,0,0.2,0,0.2c0.4,0.5,0.6,0.8,0.9,1c0.1-0.1,0.1-0.2,0.2-0.3
		C229.5,841,229.2,840.8,228.7,840.7z M229.2,861.7C229.2,861.8,229.2,861.8,229.2,861.7c0.4,0.4,0.6,0.6,0.9,0.7c0,0,0-0.1,0-0.1
		C229.8,862,229.5,861.8,229.2,861.7z M232.7,848.2c0,0.1,0,0.1-0.1,0.2c0.5,0.4,0.8,0.6,1.1,0.8c0-0.1,0.1-0.2,0.1-0.2
		C233.4,848.5,233,848.3,232.7,848.2z M233.4,858.2C233.4,858.2,233.4,858.2,233.4,858.2c0.4,0.4,0.6,0.6,1,0.7c0,0,0,0,0,0
		C234,858.5,233.7,858.2,233.4,858.2z M235.2,846.1c-0.1,0.1-0.1,0.2-0.2,0.3c0.4,0.4,0.7,0.6,1,0.7c0-0.1,0-0.1,0-0.2
		C235.7,846.5,235.5,846.3,235.2,846.1z M235.2,846.1c-0.1,0.1-0.1,0.2-0.2,0.3c0.4,0.4,0.7,0.6,1,0.7c0-0.1,0-0.1,0-0.2
		C235.7,846.5,235.5,846.3,235.2,846.1z M232.7,848.2c0,0.1,0,0.1-0.1,0.2c0.5,0.4,0.8,0.6,1.1,0.8c0-0.1,0.1-0.2,0.1-0.2
		C233.4,848.5,233,848.3,232.7,848.2z M233.4,858.2C233.4,858.2,233.4,858.2,233.4,858.2c0.4,0.4,0.6,0.6,1,0.7c0,0,0,0,0,0
		C234,858.5,233.7,858.2,233.4,858.2z M229.2,861.7C229.2,861.8,229.2,861.8,229.2,861.7c0.4,0.4,0.6,0.6,0.9,0.7c0,0,0-0.1,0-0.1
		C229.8,862,229.5,861.8,229.2,861.7z M228.7,840.7c0,0.1,0,0.2,0,0.2c0.4,0.5,0.6,0.8,0.9,1c0.1-0.1,0.1-0.2,0.2-0.3
		C229.5,841,229.2,840.8,228.7,840.7z M228.7,840.7c0,0.1,0,0.2,0,0.2c0.4,0.5,0.6,0.8,0.9,1c0.1-0.1,0.1-0.2,0.2-0.3
		C229.5,841,229.2,840.8,228.7,840.7z M229.2,861.7C229.2,861.8,229.2,861.8,229.2,861.7c0.4,0.4,0.6,0.6,0.9,0.7c0,0,0-0.1,0-0.1
		C229.8,862,229.5,861.8,229.2,861.7z M232.7,848.2c0,0.1,0,0.1-0.1,0.2c0.5,0.4,0.8,0.6,1.1,0.8c0-0.1,0.1-0.2,0.1-0.2
		C233.4,848.5,233,848.3,232.7,848.2z M233.4,858.2C233.4,858.2,233.4,858.2,233.4,858.2c0.4,0.4,0.6,0.6,1,0.7c0,0,0,0,0,0
		C234,858.5,233.7,858.2,233.4,858.2z M235.2,846.1c-0.1,0.1-0.1,0.2-0.2,0.3c0.4,0.4,0.7,0.6,1,0.7c0-0.1,0-0.1,0-0.2
		C235.7,846.5,235.5,846.3,235.2,846.1z M239.5,843.2c0,0.1,0,0.2-0.1,0.3c0.2,0.2,0.4,0.4,0.6,0.5c0.1-0.1,0.1-0.2,0.2-0.2
		C240,843.4,239.8,843.3,239.5,843.2z M239.5,843.2c0,0.1,0,0.2-0.1,0.3c0.2,0.2,0.4,0.4,0.6,0.5c0.1-0.1,0.1-0.2,0.2-0.2
		C240,843.4,239.8,843.3,239.5,843.2z M235.2,846.1c-0.1,0.1-0.1,0.2-0.2,0.3c0.4,0.4,0.7,0.6,1,0.7c0-0.1,0-0.1,0-0.2
		C235.7,846.5,235.5,846.3,235.2,846.1z M232.7,848.2c0,0.1,0,0.1-0.1,0.2c0.5,0.4,0.8,0.6,1.1,0.8c0-0.1,0.1-0.2,0.1-0.2
		C233.4,848.5,233,848.3,232.7,848.2z M233.4,858.2C233.4,858.2,233.4,858.2,233.4,858.2c0.4,0.4,0.6,0.6,1,0.7c0,0,0,0,0,0
		C234,858.5,233.7,858.2,233.4,858.2z M229.2,861.7C229.2,861.8,229.2,861.8,229.2,861.7c0.4,0.4,0.6,0.6,0.9,0.7c0,0,0-0.1,0-0.1
		C229.8,862,229.5,861.8,229.2,861.7z M228.7,840.7c0,0.1,0,0.2,0,0.2c0.4,0.5,0.6,0.8,0.9,1c0.1-0.1,0.1-0.2,0.2-0.3
		C229.5,841,229.2,840.8,228.7,840.7z M228.7,840.7c0,0.1,0,0.2,0,0.2c0.4,0.5,0.6,0.8,0.9,1c0.1-0.1,0.1-0.2,0.2-0.3
		C229.5,841,229.2,840.8,228.7,840.7z M229.2,861.7C229.2,861.8,229.2,861.8,229.2,861.7c0.4,0.4,0.6,0.6,0.9,0.7c0,0,0-0.1,0-0.1
		C229.8,862,229.5,861.8,229.2,861.7z M232.7,848.2c0,0.1,0,0.1-0.1,0.2c0.5,0.4,0.8,0.6,1.1,0.8c0-0.1,0.1-0.2,0.1-0.2
		C233.4,848.5,233,848.3,232.7,848.2z M233.4,858.2C233.4,858.2,233.4,858.2,233.4,858.2c0.4,0.4,0.6,0.6,1,0.7c0,0,0,0,0,0
		C234,858.5,233.7,858.2,233.4,858.2z M235.2,846.1c-0.1,0.1-0.1,0.2-0.2,0.3c0.4,0.4,0.7,0.6,1,0.7c0-0.1,0-0.1,0-0.2
		C235.7,846.5,235.5,846.3,235.2,846.1z M239.5,843.2c0,0.1,0,0.2-0.1,0.3c0.2,0.2,0.4,0.4,0.6,0.5c0.1-0.1,0.1-0.2,0.2-0.2
		C240,843.4,239.8,843.3,239.5,843.2z M239.5,843.2c0,0.1,0,0.2-0.1,0.3c0.2,0.2,0.4,0.4,0.6,0.5c0.1-0.1,0.1-0.2,0.2-0.2
		C240,843.4,239.8,843.3,239.5,843.2z M235.2,846.1c-0.1,0.1-0.1,0.2-0.2,0.3c0.4,0.4,0.7,0.6,1,0.7c0-0.1,0-0.1,0-0.2
		C235.7,846.5,235.5,846.3,235.2,846.1z M232.7,848.2c0,0.1,0,0.1-0.1,0.2c0.5,0.4,0.8,0.6,1.1,0.8c0-0.1,0.1-0.2,0.1-0.2
		C233.4,848.5,233,848.3,232.7,848.2z M233.4,858.2C233.4,858.2,233.4,858.2,233.4,858.2c0.4,0.4,0.6,0.6,1,0.7c0,0,0,0,0,0
		C234,858.5,233.7,858.2,233.4,858.2z M229.2,861.7C229.2,861.8,229.2,861.8,229.2,861.7c0.4,0.4,0.6,0.6,0.9,0.7c0,0,0-0.1,0-0.1
		C229.8,862,229.5,861.8,229.2,861.7z M228.7,840.7c0,0.1,0,0.2,0,0.2c0.4,0.5,0.6,0.8,0.9,1c0.1-0.1,0.1-0.2,0.2-0.3
		C229.5,841,229.2,840.8,228.7,840.7z M228.7,840.7c0,0.1,0,0.2,0,0.2c0.4,0.5,0.6,0.8,0.9,1c0.1-0.1,0.1-0.2,0.2-0.3
		C229.5,841,229.2,840.8,228.7,840.7z M229.2,861.7C229.2,861.8,229.2,861.8,229.2,861.7c0.4,0.4,0.6,0.6,0.9,0.7c0,0,0-0.1,0-0.1
		C229.8,862,229.5,861.8,229.2,861.7z M232.7,848.2c0,0.1,0,0.1-0.1,0.2c0.5,0.4,0.8,0.6,1.1,0.8c0-0.1,0.1-0.2,0.1-0.2
		C233.4,848.5,233,848.3,232.7,848.2z M233.4,858.2C233.4,858.2,233.4,858.2,233.4,858.2c0.4,0.4,0.6,0.6,1,0.7c0,0,0,0,0,0
		C234,858.5,233.7,858.2,233.4,858.2z M235.2,846.1c-0.1,0.1-0.1,0.2-0.2,0.3c0.4,0.4,0.7,0.6,1,0.7c0-0.1,0-0.1,0-0.2
		C235.7,846.5,235.5,846.3,235.2,846.1z M239.5,843.2c0,0.1,0,0.2-0.1,0.3c0.2,0.2,0.4,0.4,0.6,0.5c0.1-0.1,0.1-0.2,0.2-0.2
		C240,843.4,239.8,843.3,239.5,843.2z M247.8,836.8C247.8,836.8,247.8,836.8,247.8,836.8c0.2,0.3,0.4,0.4,0.6,0.5
		C248.2,837.1,248,836.9,247.8,836.8z M239.5,843.2c0,0.1,0,0.2-0.1,0.3c0.2,0.2,0.4,0.4,0.6,0.5c0.1-0.1,0.1-0.2,0.2-0.2
		C240,843.4,239.8,843.3,239.5,843.2z M235.2,846.1c-0.1,0.1-0.1,0.2-0.2,0.3c0.4,0.4,0.7,0.6,1,0.7c0-0.1,0-0.1,0-0.2
		C235.7,846.5,235.5,846.3,235.2,846.1z M232.7,848.2c0,0.1,0,0.1-0.1,0.2c0.5,0.4,0.8,0.6,1.1,0.8c0-0.1,0.1-0.2,0.1-0.2
		C233.4,848.5,233,848.3,232.7,848.2z M233.4,858.2C233.4,858.2,233.4,858.2,233.4,858.2c0.4,0.4,0.6,0.6,1,0.7c0,0,0,0,0,0
		C234,858.5,233.7,858.2,233.4,858.2z M229.2,861.7C229.2,861.8,229.2,861.8,229.2,861.7c0.4,0.4,0.6,0.6,0.9,0.7c0,0,0-0.1,0-0.1
		C229.8,862,229.5,861.8,229.2,861.7z M228.7,840.7c0,0.1,0,0.2,0,0.2c0.4,0.5,0.6,0.8,0.9,1c0.1-0.1,0.1-0.2,0.2-0.3
		C229.5,841,229.2,840.8,228.7,840.7z M247.8,836.8C247.8,836.8,247.8,836.8,247.8,836.8c0.2,0.3,0.4,0.4,0.6,0.5
		C248.2,837.1,248,836.9,247.8,836.8z M228.7,840.7c0,0.1,0,0.2,0,0.2c0.4,0.5,0.6,0.8,0.9,1c0.1-0.1,0.1-0.2,0.2-0.3
		C229.5,841,229.2,840.8,228.7,840.7z M229.2,861.7C229.2,861.8,229.2,861.8,229.2,861.7c0.4,0.4,0.6,0.6,0.9,0.7c0,0,0-0.1,0-0.1
		C229.8,862,229.5,861.8,229.2,861.7z M232.7,848.2c0,0.1,0,0.1-0.1,0.2c0.5,0.4,0.8,0.6,1.1,0.8c0-0.1,0.1-0.2,0.1-0.2
		C233.4,848.5,233,848.3,232.7,848.2z M233.4,858.2C233.4,858.2,233.4,858.2,233.4,858.2c0.4,0.4,0.6,0.6,1,0.7c0,0,0,0,0,0
		C234,858.5,233.7,858.2,233.4,858.2z M235.2,846.1c-0.1,0.1-0.1,0.2-0.2,0.3c0.4,0.4,0.7,0.6,1,0.7c0-0.1,0-0.1,0-0.2
		C235.7,846.5,235.5,846.3,235.2,846.1z M239.5,843.2c0,0.1,0,0.2-0.1,0.3c0.2,0.2,0.4,0.4,0.6,0.5c0.1-0.1,0.1-0.2,0.2-0.2
		C240,843.4,239.8,843.3,239.5,843.2z M247.8,836.8C247.8,836.8,247.8,836.8,247.8,836.8c0.2,0.3,0.4,0.4,0.6,0.5
		C248.2,837.1,248,836.9,247.8,836.8z M239.5,843.2c0,0.1,0,0.2-0.1,0.3c0.2,0.2,0.4,0.4,0.6,0.5c0.1-0.1,0.1-0.2,0.2-0.2
		C240,843.4,239.8,843.3,239.5,843.2z M235.2,846.1c-0.1,0.1-0.1,0.2-0.2,0.3c0.4,0.4,0.7,0.6,1,0.7c0-0.1,0-0.1,0-0.2
		C235.7,846.5,235.5,846.3,235.2,846.1z M232.7,848.2c0,0.1,0,0.1-0.1,0.2c0.5,0.4,0.8,0.6,1.1,0.8c0-0.1,0.1-0.2,0.1-0.2
		C233.4,848.5,233,848.3,232.7,848.2z M233.4,858.2C233.4,858.2,233.4,858.2,233.4,858.2c0.4,0.4,0.6,0.6,1,0.7c0,0,0,0,0,0
		C234,858.5,233.7,858.2,233.4,858.2z M229.2,861.7C229.2,861.8,229.2,861.8,229.2,861.7c0.4,0.4,0.6,0.6,0.9,0.7c0,0,0-0.1,0-0.1
		C229.8,862,229.5,861.8,229.2,861.7z M228.7,840.7c0,0.1,0,0.2,0,0.2c0.4,0.5,0.6,0.8,0.9,1c0.1-0.1,0.1-0.2,0.2-0.3
		C229.5,841,229.2,840.8,228.7,840.7z M247.8,836.8C247.8,836.8,247.8,836.8,247.8,836.8c0.2,0.3,0.4,0.4,0.6,0.5
		C248.2,837.1,248,836.9,247.8,836.8z M228.7,840.7c0,0.1,0,0.2,0,0.2c0.4,0.5,0.6,0.8,0.9,1c0.1-0.1,0.1-0.2,0.2-0.3
		C229.5,841,229.2,840.8,228.7,840.7z M229.2,861.7C229.2,861.8,229.2,861.8,229.2,861.7c0.4,0.4,0.6,0.6,0.9,0.7c0,0,0-0.1,0-0.1
		C229.8,862,229.5,861.8,229.2,861.7z M232.7,848.2c0,0.1,0,0.1-0.1,0.2c0.5,0.4,0.8,0.6,1.1,0.8c0-0.1,0.1-0.2,0.1-0.2
		C233.4,848.5,233,848.3,232.7,848.2z M233.4,858.2C233.4,858.2,233.4,858.2,233.4,858.2c0.4,0.4,0.6,0.6,1,0.7c0,0,0,0,0,0
		C234,858.5,233.7,858.2,233.4,858.2z M235.2,846.1c-0.1,0.1-0.1,0.2-0.2,0.3c0.4,0.4,0.7,0.6,1,0.7c0-0.1,0-0.1,0-0.2
		C235.7,846.5,235.5,846.3,235.2,846.1z M239.5,843.2c0,0.1,0,0.2-0.1,0.3c0.2,0.2,0.4,0.4,0.6,0.5c0.1-0.1,0.1-0.2,0.2-0.2
		C240,843.4,239.8,843.3,239.5,843.2z M247.8,836.8C247.8,836.8,247.8,836.8,247.8,836.8c0.2,0.3,0.4,0.4,0.6,0.5
		C248.2,837.1,248,836.9,247.8,836.8z M239.5,843.2c0,0.1,0,0.2-0.1,0.3c0.2,0.2,0.4,0.4,0.6,0.5c0.1-0.1,0.1-0.2,0.2-0.2
		C240,843.4,239.8,843.3,239.5,843.2z M235.2,846.1c-0.1,0.1-0.1,0.2-0.2,0.3c0.4,0.4,0.7,0.6,1,0.7c0-0.1,0-0.1,0-0.2
		C235.7,846.5,235.5,846.3,235.2,846.1z M232.7,848.2c0,0.1,0,0.1-0.1,0.2c0.5,0.4,0.8,0.6,1.1,0.8c0-0.1,0.1-0.2,0.1-0.2
		C233.4,848.5,233,848.3,232.7,848.2z M233.4,858.2C233.4,858.2,233.4,858.2,233.4,858.2c0.4,0.4,0.6,0.6,1,0.7c0,0,0,0,0,0
		C234,858.5,233.7,858.2,233.4,858.2z M229.2,861.7C229.2,861.8,229.2,861.8,229.2,861.7c0.4,0.4,0.6,0.6,0.9,0.7c0,0,0-0.1,0-0.1
		C229.8,862,229.5,861.8,229.2,861.7z M228.7,840.7c0,0.1,0,0.2,0,0.2c0.4,0.5,0.6,0.8,0.9,1c0.1-0.1,0.1-0.2,0.2-0.3
		C229.5,841,229.2,840.8,228.7,840.7z M247.8,836.8C247.8,836.8,247.8,836.8,247.8,836.8c0.2,0.3,0.4,0.4,0.6,0.5
		C248.2,837.1,248,836.9,247.8,836.8z M228.7,840.7c0,0.1,0,0.2,0,0.2c0.4,0.5,0.6,0.8,0.9,1c0.1-0.1,0.1-0.2,0.2-0.3
		C229.5,841,229.2,840.8,228.7,840.7z M229.2,861.7C229.2,861.8,229.2,861.8,229.2,861.7c0.4,0.4,0.6,0.6,0.9,0.7c0,0,0-0.1,0-0.1
		C229.8,862,229.5,861.8,229.2,861.7z M232.7,848.2c0,0.1,0,0.1-0.1,0.2c0.5,0.4,0.8,0.6,1.1,0.8c0-0.1,0.1-0.2,0.1-0.2
		C233.4,848.5,233,848.3,232.7,848.2z M233.4,858.2C233.4,858.2,233.4,858.2,233.4,858.2c0.4,0.4,0.6,0.6,1,0.7c0,0,0,0,0,0
		C234,858.5,233.7,858.2,233.4,858.2z M235.2,846.1c-0.1,0.1-0.1,0.2-0.2,0.3c0.4,0.4,0.7,0.6,1,0.7c0-0.1,0-0.1,0-0.2
		C235.7,846.5,235.5,846.3,235.2,846.1z M239.5,843.2c0,0.1,0,0.2-0.1,0.3c0.2,0.2,0.4,0.4,0.6,0.5c0.1-0.1,0.1-0.2,0.2-0.2
		C240,843.4,239.8,843.3,239.5,843.2z M247.8,836.8C247.8,836.8,247.8,836.8,247.8,836.8c0.2,0.3,0.4,0.4,0.6,0.5
		C248.2,837.1,248,836.9,247.8,836.8z M239.5,843.2c0,0.1,0,0.2-0.1,0.3c0.2,0.2,0.4,0.4,0.6,0.5c0.1-0.1,0.1-0.2,0.2-0.2
		C240,843.4,239.8,843.3,239.5,843.2z M235.2,846.1c-0.1,0.1-0.1,0.2-0.2,0.3c0.4,0.4,0.7,0.6,1,0.7c0-0.1,0-0.1,0-0.2
		C235.7,846.5,235.5,846.3,235.2,846.1z M232.6,848.4c0.5,0.4,0.8,0.6,1.1,0.8c0-0.1,0.1-0.2,0.1-0.2c-0.4-0.4-0.8-0.6-1.1-0.7
		C232.6,848.3,232.6,848.3,232.6,848.4z M233.4,858.2C233.4,858.2,233.4,858.2,233.4,858.2c0.4,0.4,0.6,0.6,1,0.7c0,0,0,0,0,0
		C234,858.5,233.7,858.2,233.4,858.2z M229.2,861.7C229.2,861.8,229.2,861.8,229.2,861.7c0.4,0.4,0.6,0.6,0.9,0.7c0,0,0-0.1,0-0.1
		C229.8,862,229.5,861.8,229.2,861.7z M228.7,840.7c0,0.1,0,0.2,0,0.2c0.4,0.5,0.6,0.8,0.9,1c0.1-0.1,0.1-0.2,0.2-0.3
		C229.5,841,229.2,840.8,228.7,840.7z M247.8,836.8C247.8,836.8,247.8,836.8,247.8,836.8c0.2,0.3,0.4,0.4,0.6,0.5
		C248.2,837.1,248,836.9,247.8,836.8z M762.5,583.7c-2.8-0.8-5.1-1.5-7.2-3.7c-20.5-21.3-46.3-28.4-75.1-26.4c-7.5,0.6-7.5,1-6-6.6
		c2.5-12.5,7.1-24.3,13.8-35.1c8.7-14.1,17.7-28.1,26.5-42.1c15.1-24,29.9-48.1,39.3-75.2c6.8-19.6,11.1-39.1,7.4-60.2
		c-3.5-20.2-3-40.9-5.3-61.3c-3.4-30.1-13.7-57.2-31.5-81.6c-10.8-14.9-23.7-27.8-35.7-41.6c-4.8-5.5-9.9-10.7-15.2-15.8
		c-3.4-3.3-7.5-6-12.5-6.4c-5.9-0.5-8.8,1.7-10.5,7.4c-1,3.1-0.1,6.4-1,10.5c-7.2-6.6-13.7-12.7-20.3-18.6c-5.7-5-11.4-10-18.2-13.6
		c-4.5-2.4-9-3.3-13.4,0.2c-4.2,3.4-2.4,7.9-1.3,11.7c1.6,5.9,4.1,11.6,5.7,17.4c0,0.1-0.1,0.3-0.1,0.4c-0.3,0.6-0.9,0.7-1.5,0.8
		c-0.4,0.1-0.9,0.1-1.2,0.4c-3.7-1.4-6.8-2.9-10-3.9c-5.6-1.8-11.4-2.1-15.6,2.8c-4,4.7-2.5,10.1-0.4,15.1c1.6,3.8,3.7,7.5,5.9,11.1
		c6,9.5,12.2,18.9,18.3,28.3c0.8,1.2,1.5,2.4,0.4,3.8c-1.1,1.4-2.5,1-3.8,0.4c-5.1-2.4-10.1-4.9-15.3-7.1c-4.6-2-9.4-3.9-14.5-4.1
		c-7.6-0.4-11.5,3.8-10.9,11.4c0.4,4.9,2.5,9.2,5.4,13.1c4.2,5.7,8.9,10.9,14.5,15.2c1.5,1.1,3.7,1.6,3.9,4.4
		c-4.1,0.4-8.2,0.6-12.2,1.3c-6.1,1.1-11.4,3.7-13.2,10.2c-1.8,6.4-0.4,12.3,4.4,17.1c1.9,2,4.1,3.7,6.2,5.6
		c-10.4,10.6-10.4,13.8-0.1,29.9c-10.1,8.7-11.4,14.3-5.4,26.2c1.9,3.8,1.9,6.8-0.4,10.2c-3.3,5-4,10.5-1.9,16.1
		c1,2.7,0.5,4.5-1.2,6.9c-6.1,8.3-13.8,15.6-15.6,26.5c-0.1,1-1.2,1.8-1.9,2.7c-3.7,4.3-6.7,9-8,14.6c-0.4,2-1.3,3.6-3.2,4.7
		c-5.2,2.9-7.7,8-9.9,13.2c-1.8,4.2-3.8,8.3-7.9,12.6c-3.3-11.1-6.1-21-9.1-30.9c-10.2-34.2-25.3-66-46.8-94.7
		c-25.2-33.6-53-64.8-84-93.2c-16.2-14.8-31.1-31-44.1-48.7c-9.4-12.7-18.5-25.5-28.1-38c-11.8-15.4-22.5-31.5-30.7-49.2
		c-3.4-7.4-7.3-14.6-11.4-21.6c-2.2-3.7-4.8-8.9-10.2-7c-5.5,1.9-3.9,7.3-3.4,11.7c1.2,11.2,5.6,21.7,8.2,32.6
		c5.9,24.7,15.9,47.9,26,71.7c0,0.1,0,0.2,0.1,0.3v0c0.5,2.6,1.8,4.5,2.6,7c0.3,0.2,0.5,0.3,0.7,0.4c0.2,0.1,0.3,0.1,0.3,0.1
		c0.1-1.2,0.5,0.9-0.3,0.1c-0.1-0.1-0.2-0.1-0.3-0.2c-0.1-0.1-0.3-0.2-0.4-0.4c0,0,0,0,0,0c-0.1-0.2-0.3-0.4-0.4-0.8
		c-1.2-2.2-1.7-4.3-4.1-5.3c-0.3-0.1-0.6-0.2-0.9-0.3c-24.5-29.6-48.6-58.9-72.7-88.2c-7.5-9.1-14.8-18.4-23.3-26.6
		c-5.3-5.1-11.3-9.3-17.7-12.8c-2.2-1.2-4.5-2.7-7-0.7c-2.4,1.9-1.9,4.5-1.6,7c0.5,4,2.5,7.5,4,11.1c8.2,19.6,19.8,37.2,31.1,55.5
		c0,0.1,0,0.3,0,0.4c0.2,1.1,1.1,1.6,0.2,2.7c-0.6-0.5-1.2-1.1-1.9-1.6c-0.4-0.3-0.9-0.6-1.5-0.9c-0.3-0.2-0.7-0.3-1.2-0.4
		c-9.8-8.9-19.1-17.4-28.3-26.1c-14.8-13.9-29.6-27.7-45.7-40c-5-3.8-10.1-7.1-16.2-8.8c-9-2.6-12.4,0.4-10.6,9.4
		c1.5,7.2,4.8,13.7,8.6,20c8.1,13.5,17.2,26.3,26.5,39c1,1.3,2.1,2.7,3.1,4c0.8,1,0.9,2,0,3c-0.8,1-1.9,1.1-3,0.6
		c-1.5-0.8-2.9-1.7-4.4-2.5c-11.2-6-22.2-12.1-33.4-18c-6.5-3.4-13.3-6.3-20.5-7.5c-4.5-0.8-10.3-2.5-13.3,2.1
		c-2.7,4.2,0.1,9.1,2.6,13.1c4.9,7.8,10.6,15.2,17,21.9c1.2,1.2,3.4,2.2,2.4,5.1c-1.2,0.2-2.6,0.2-3.9,0.4
		c-7.4,1.4-8.5,3.2-6.1,10.4c2.1,6.1,5.3,11.7,9.4,16.8c8.1,9.8,17,18.8,26.9,26.7c6.8,5.5,13.5,11,20.2,16.6c2.1,1.7,4,3.7,3.9,7
		c-0.3,7.1,2.9,13.1,6.2,19c6.1,11,14.5,20,25.5,26.3c2.2,1.2,4.5,2.2,4.1,5.6c-1.6,14,4.4,25.1,13.8,34.8c1.6,1.6,2.7,3.1,2.2,5.8
		c-1.4,8.2,1.2,15.6,5.9,22.2c2,2.8,3.2,5.6,3.6,9.2c0.7,7,2.4,13.9,7.8,19.1c2.2,2.1,1.9,4.3,1.6,6.9c-0.9,7.8,0.1,15.2,5.1,21.6
		c2,2.5,2.7,5.1,2.3,8.5c-0.9,6.6,0.4,12.9,4.3,18.5c0.9,1.3,2,2.6,1.9,4.5c-0.3,10.5,4.7,18.9,11.4,26.3c2,2.2,2.1,4.2,1.9,6.8
		c-0.8,11.4,1.3,21.9,10.6,29.7c1.9,1.6,2.4,3.4,1.4,5.9c-3.1,7.8-1.4,14.9,3.3,21.5c1.3,1.9,2.3,3.7,1.9,6.2
		c-1.4,8.3,2,14.9,8,20.2c3.4,3,4.2,6.1,3.6,10.4c-1.1,8.9,3,15.7,9.8,21.1c1.7,1.4,4,2,5.1,4.5c-4.4,7.3-6.2,15.3-2,23.1
		c4.3,7.9,10.8,14.5,15.7,22.1c1.7,2.6,4.1,4.8,5,8.1c2.3,8.1,6.7,14.7,14,19.3c1.7,1,3.5,1.8,4.2,3.9c2.2,6.5,8.7,10.9,9.5,18.3
		c0.2,1.5,1.5,3.1,2.7,4.2c4.3,4,7.4,8.9,11,13.4c4.2,5.3,7.5,11.9,13.9,15.4c7.2,4,11.1,12.1,19.2,14.8c0.7,0.2,1.3,1.2,1.5,1.9
		c1.4,6.2,5.8,10.7,9.4,15.9c-4.7,3.8-9.7,6.4-14.5,9.3c-4.4,2.6-8.7,5.2-12.9,8c-27.5,18.2-55.9,34.5-87.1,45.6
		c-11.1,4-22.1,8.1-33.1,12.4c-27.9,11-55.4,23.3-83.9,32.8c-13.1,4.3-26.7,6.8-39.6,11.6c-5.1,1.9-10.1,3.7-14.3,7.1
		c-3.9,3.2-6.5,7-4.3,12.4c0.7,1.6,0.8,3.1,0.5,4.9c-1.3,8.3,3.5,14.5,11.9,15.2c4.5,0.3,9,0.2,13.5,0.4c1.6,0.1,3.4-0.6,4.4,2.2
		c-3.3,2.6-7.4,4.4-10.4,7.7c-6.5,7.2-5.1,13.4,4.1,16.7c5.1,1.8,10.9,1.7,15,6.2c1,1.1,3.8,0.9,5.7,0.9c6.5,0.1,12.9-0.8,19-3.1
		c5.6-2,10.7-5.7,17.2-2.1c2.1,1.1,5,0,7.4-1c3.4-1.4,6.9-2.6,10-4.5c13.7-8.4,28.7-14.1,43.5-20.1c8.7-3.5,17.1-7.4,24.1-13.7
		c19.6-17.8,43-24.7,68.9-24.9c4.1,0,7.3,1.1,10.8,3.5c11.6,7.9,24.5,11.2,38.4,7.8c6.7-1.7,13.4-1.9,20.1-0.9
		c12,1.8,22.2-1.6,30.8-10.1c4.2-4.2,8.5-8.2,13.3-11.7c2.1-1.5,4.2-2.4,6.9-2.6c23.3-1.5,46.3-5.4,69.2-9.9
		c18.1-3.6,36.5-6.2,53.7-13.8c21.1-9.2,42.6-17.5,62.9-28.5c6.2-3.4,12.1-7.1,17.8-11.2c25.7-18.7,46.5-42.2,65.6-67.4
		c18-23.8,34.4-48.6,49.5-74.1c3.1-5.3,8-8.5,13.2-11.4c4-2.2,7.6-0.4,11.4,0.5c5.3,1.2,8.6-1.5,9.9-7.6
		C780.1,596.5,773.7,587,762.5,583.7z M239,835.3c-0.9-3.4,2.7-3.6,4.2-5.8c0.2,0.1,0.3,0.2,0.4,0.3c0,0.1,0,0.1,0,0.2
		c0.1,0.8,0.3,1.3,0.6,1.6C243.1,833.9,241.6,835.2,239,835.3z M243.3,841.7c-0.4,0-0.4,0-0.4,0.1c-0.5-0.7-0.5-1.3,1-1.7
		C244.3,840.6,244,841.1,243.3,841.7z M174.2,846.7c1.7-2.1,4.4-2.7,7.5-3.3c-0.7,2.5-2.6,2.9-4.8,3.5c-0.7,0.1-1.2,0.2-1.7,0.2
		c0.1-0.1,0.2-0.2,0.2-0.3C175,846.8,174.6,846.7,174.2,846.7z M245.5,838.3c0.5-0.1,0.8,0.2,0.9,0.3c-0.2,0.6-0.6,1-1.4,1.5
		c-0.5,0-0.6-0.1-0.7-0.2C244.5,839.3,244.8,838.8,245.5,838.3z M247.2,836.6c0.2,0,0.4,0,0.6,0.2c-0.2-0.8-0.1-1.3,0.5-1.8
		c0.4,0,0.6-0.1,0.9-0.1c0,0.1,0,0.3,0,0.4c0.7,0.1,1.1,0.1,1.5,0c-0.1,0.6-0.7,1.3-1.5,2c-0.4,0.1-0.6,0-0.8,0c0,0,0,0,0,0
		c-0.1,0.7-0.5,1.1-1.7,1.1C246.3,837.7,246.5,837.2,247.2,836.6z M80.9,866.9c-3.3-0.1-3.4-1.7-1.6-2.8c2.4-1.4,5.3-1.1,8.1-0.1
		C86,866.3,83.3,865.7,80.9,866.9z M91.6,861.8c0.2,0,0.4,0,0.5,0.1c0,0.1-0.1,0.2-0.1,0.3c0,0.4,0.1,0.6,0.4,0.7
		c-1.1,0.9-2.3,1.6-3-0.1C89.4,862.7,90.5,862.1,91.6,861.8z M94.2,897.7c1.1-4,3.9-5.6,6.5-7c6.2-3.3,12.4-6.5,18.7-9.6
		c2.8-1.3,5.9-2,7.5-5c1.2-2.3,3.6-2.5,5.7-3.3c24.9-9,48.6-20.4,71.2-34.2c5.1-3.1,10.3-5.5,16-7.3c6.1-2,12.1-4.6,18.7-6.9
		c0.2,0.1,0.4,0.1,0.5,0.2c-0.1,0-0.2,0.1-0.3,0.2c0,0.5,0.1,0.8,0.5,1.1C223.6,837.3,207,846.5,190,855
		c-26.7,13.2-52.6,27.7-78.6,42.3C105.4,900.7,100.1,900.8,94.2,897.7z M238,836.4c-1.3,1.4-2.1,2.8-3.7,1.9
		c-0.6-0.4-0.8-0.6-0.3-1.3C235.1,835.4,236.2,833.7,238,836.4z M230.4,842.2c-0.3-0.1-0.6-0.2-0.8-0.3c-1.5,2.2-3.1,3.5-5.7,3.7
		c-0.9-3,1.8-3.4,3.8-4.9c0.4-0.1,0.8-0.1,1,0c0.1-0.7,0.5-1.1,0.9-1.4c1.1-0.6,2.5-2.2,3.4-0.4
		C233.8,840.4,232.1,841.2,230.4,842.2z M138.8,899.3c-6.5,4.1-14,5.7-21.6,6.3c-1.3,0.1-2.7,0-4.5,0c0.6-4.2,4.1-4.7,6.5-6.1
		c28.7-16,57.6-31.6,86.9-46.3c1-0.5,2-1,3.5-1.7c0.5-0.2,1-0.2,1.3-0.2c3.1-3,7.2-4.7,11.8-6c-1.5,4.3-6.1,5.4-9.7,8.2
		c-0.3-0.1-0.5-0.3-0.7-0.4C188.9,870.8,163.2,884,138.8,899.3z M230.2,862.4c-1.3,2.4-3.2,4-6.1,4.9c-0.2-3.3,2.2-4,4.1-5.7
		c0.5,0,0.8,0,1,0.1c0.7-1.6,1.9-2.9,1.9,0.7C230.7,862.5,230.4,862.5,230.2,862.4z M235.4,858.9c-0.4,0-0.7,0-1-0.1
		c-0.7,1.6-1.9,3-1.8-0.6c0.3-0.1,0.6-0.1,0.8,0c1.4-2.4,3.4-4.1,6.2-5.1C240.1,856.8,237.3,857.2,235.4,858.9z M236.9,847.1
		c-0.4,0-0.6,0.1-0.9,0c-0.2,0.9-0.8,1.5-1.6,2.2c-0.3,0-0.5,0-0.7-0.1c-0.5,1.1-1.2,1.8-2.3,2.5c-0.2-0.1-0.4-0.2-0.6-0.3
		c-10.3,9.7-21.1,17.9-31.8,26.4c-0.7,0.5-1.3,1.2-2,1.5c-13.5,6.7-27.1,13.3-40.6,20c-0.9,0.5-2.1,0.9-3.7-1.1
		c12.1-8.8,25.7-15.1,38.2-23.2s24.8-16.3,37.8-24.6c0.4-0.2,0.7-0.4,1-0.5c0.4-0.6,1-1.2,2-1.8c0.4,0,0.7,0,1,0.1
		c0.2-0.9,0.9-1.5,1.9-2.2c0.2,0,0.4,0,0.6,0.1c0.9-1.3,2-2.1,3.4-2.9c0.4,0,0.6,0,0.9,0c0.4-1.3,1.4-1.6,2.8-1.7
		c-0.2,1-0.7,1.7-1.7,2.6c-0.2,0.1-0.4,0-0.6-0.1C239.1,845.3,238.2,846.2,236.9,847.1z M245.5,851.7c-1.6,0.7-3.3,3.3-4.8,1.4
		c-1.5-2,1.5-2.9,3.2-4.4c0.3,0.1,0.6,0.2,0.8,0.3c0.4,0.5,0.8,0.8,1.2,0.9c0.1,0.1,0.2,0.2,0.3,0.3
		C246.2,850.9,246,851.5,245.5,851.7z M371.1,839.5c-2.1,4.4-5.7,6.7-10.7,6.9c-6.7,0.3-13,3.5-20.6,2c-0.5-0.2-0.9-0.3-1.2-0.5
		c0.1,0,0.2-0.1,0.4-0.1c-0.5-0.8-0.8-1.3-1.4-1.9c1.8-1.7,1.8-3.1-0.1-4c-2.4-1.2-5-2-8.1-3.2c-0.3-0.4-0.6-0.6-0.7-1
		c0.1,0,0.1,0,0.2,0c0-0.5,0-0.9,0-1.3c7.9,0.6,15.5,2,23.2,3.2c3.5,0.5,7.1,0.7,10.3-3.9c-5.5-0.8-10-1.6-14.5-2.1
		c-7.8-1-15.4-2.7-22.9-5.1c-3.2-1-6.3-2.2-7.8-6.3c12.6,1.3,24.8,4.4,37.5,4.5c11.3,0.1,22.3-1,31.7-7.8c4.2,3.5,3.4,6.2-0.7,8.5
		c-1.9,1.1-3.7,2.5-5.7,3.5C376.1,832.9,373,835.4,371.1,839.5z M377.4,839.8c4.8-5,11.3-6.9,16.1-11.8c0.4-0.1,0.7-0.1,1,0
		c0,0,0,0,0,0c0.4,0.3,0.7,0.6,1,0.7C390.9,837.7,387.4,839.8,377.4,839.8z M395.3,841.7c-0.3,0.1-0.6,0.1-0.8,0.1
		c0,0,0-0.1,0.1-0.1c-0.1-0.2-0.3-0.4-0.5-0.5c4.5-5,6.2-12.2,14.3-13.7c0.4,0,0.6-0.1,0.9,0c0,0.1,0,0.2,0,0.2
		c0.2,0.2,0.4,0.4,0.6,0.5C405.2,833,400.6,837.4,395.3,841.7z M748.4,609.1c-3.4,2.6-6.9,5.3-11.1,0.6c2.5-3.2,6.6-3.6,10.5-5.7
		c4-1.4,7.5-2.6,11.9-1.2C756.3,606.2,751.7,606.6,748.4,609.1z M747.2,598c-0.5,0-0.8,0-1-0.2c0,0,0-0.1,0-0.1
		c-0.3-0.4-0.5-0.6-0.7-0.8c1.2-2.3,3.3-3,5.2-4c7.8-4.5,12.9-3,19.1,6.8C761.9,597.4,755,595.2,747.2,598z M248.4,837.2
		c-0.1-0.2-0.3-0.4-0.6-0.5c0,0,0,0,0,0C248,837,248.2,837.2,248.4,837.2z M239.5,843.2c0,0.1,0,0.2-0.1,0.3
		c0.2,0.2,0.4,0.4,0.6,0.5c0.1-0.1,0.1-0.2,0.2-0.2C240,843.4,239.8,843.3,239.5,843.2z M235.2,846.1c-0.1,0.1-0.1,0.2-0.2,0.3
		c0.4,0.4,0.7,0.6,1,0.7c0-0.1,0-0.1,0-0.2C235.7,846.5,235.5,846.3,235.2,846.1z M233.4,858.2C233.4,858.2,233.4,858.2,233.4,858.2
		c0.4,0.4,0.6,0.6,1,0.7c0,0,0,0,0,0C234,858.5,233.7,858.2,233.4,858.2z M232.7,848.2c0,0.1,0,0.1-0.1,0.2c0.5,0.4,0.8,0.6,1.1,0.8
		c0-0.1,0.1-0.2,0.1-0.2C233.4,848.5,233,848.3,232.7,848.2z M229.2,861.7C229.2,861.8,229.2,861.8,229.2,861.7
		c0.4,0.4,0.6,0.6,0.9,0.7c0,0,0-0.1,0-0.1C229.8,862,229.5,861.8,229.2,861.7z M228.7,840.7c0,0.1,0,0.2,0,0.2
		c0.4,0.5,0.6,0.8,0.9,1c0.1-0.1,0.1-0.2,0.2-0.3C229.5,841,229.2,840.8,228.7,840.7z M247.8,836.8
		C247.8,836.8,247.8,836.8,247.8,836.8c0.2,0.3,0.4,0.4,0.6,0.5C248.2,837.1,248,836.9,247.8,836.8z M228.7,840.7c0,0.1,0,0.2,0,0.2
		c0.4,0.5,0.6,0.8,0.9,1c0.1-0.1,0.1-0.2,0.2-0.3C229.5,841,229.2,840.8,228.7,840.7z M229.2,861.7
		C229.2,861.8,229.2,861.8,229.2,861.7c0.4,0.4,0.6,0.6,0.9,0.7c0,0,0-0.1,0-0.1C229.8,862,229.5,861.8,229.2,861.7z M233.4,858.2
		C233.4,858.2,233.4,858.2,233.4,858.2c0.4,0.4,0.6,0.6,1,0.7c0,0,0,0,0,0C234,858.5,233.7,858.2,233.4,858.2z M232.7,848.2
		c0,0.1,0,0.1-0.1,0.2c0.5,0.4,0.8,0.6,1.1,0.8c0-0.1,0.1-0.2,0.1-0.2C233.4,848.5,233,848.3,232.7,848.2z M235.2,846.1
		c-0.1,0.1-0.1,0.2-0.2,0.3c0.4,0.4,0.7,0.6,1,0.7c0-0.1,0-0.1,0-0.2C235.7,846.5,235.5,846.3,235.2,846.1z M239.5,843.2
		c0,0.1,0,0.2-0.1,0.3c0.2,0.2,0.4,0.4,0.6,0.5c0.1-0.1,0.1-0.2,0.2-0.2C240,843.4,239.8,843.3,239.5,843.2z M247.8,836.8
		C247.8,836.8,247.8,836.8,247.8,836.8c0.2,0.3,0.4,0.4,0.6,0.5C248.2,837.1,248,836.9,247.8,836.8z M239.5,843.2
		c0,0.1,0,0.2-0.1,0.3c0.2,0.2,0.4,0.4,0.6,0.5c0.1-0.1,0.1-0.2,0.2-0.2C240,843.4,239.8,843.3,239.5,843.2z M235.2,846.1
		c-0.1,0.1-0.1,0.2-0.2,0.3c0.4,0.4,0.7,0.6,1,0.7c0-0.1,0-0.1,0-0.2C235.7,846.5,235.5,846.3,235.2,846.1z M233.4,858.2
		C233.4,858.2,233.4,858.2,233.4,858.2c0.4,0.4,0.6,0.6,1,0.7c0,0,0,0,0,0C234,858.5,233.7,858.2,233.4,858.2z M232.7,848.2
		c0,0.1,0,0.1-0.1,0.2c0.5,0.4,0.8,0.6,1.1,0.8c0-0.1,0.1-0.2,0.1-0.2C233.4,848.5,233,848.3,232.7,848.2z M229.2,861.7
		C229.2,861.8,229.2,861.8,229.2,861.7c0.4,0.4,0.6,0.6,0.9,0.7c0,0,0-0.1,0-0.1C229.8,862,229.5,861.8,229.2,861.7z M228.7,840.7
		c0,0.1,0,0.2,0,0.2c0.4,0.5,0.6,0.8,0.9,1c0.1-0.1,0.1-0.2,0.2-0.3C229.5,841,229.2,840.8,228.7,840.7z M247.8,836.8
		C247.8,836.8,247.8,836.8,247.8,836.8c0.2,0.3,0.4,0.4,0.6,0.5C248.2,837.1,248,836.9,247.8,836.8z M228.7,840.7c0,0.1,0,0.2,0,0.2
		c0.4,0.5,0.6,0.8,0.9,1c0.1-0.1,0.1-0.2,0.2-0.3C229.5,841,229.2,840.8,228.7,840.7z M229.2,861.7
		C229.2,861.8,229.2,861.8,229.2,861.7c0.4,0.4,0.6,0.6,0.9,0.7c0,0,0-0.1,0-0.1C229.8,862,229.5,861.8,229.2,861.7z M233.4,858.2
		C233.4,858.2,233.4,858.2,233.4,858.2c0.4,0.4,0.6,0.6,1,0.7c0,0,0,0,0,0C234,858.5,233.7,858.2,233.4,858.2z M232.7,848.2
		c0,0.1,0,0.1-0.1,0.2c0.5,0.4,0.8,0.6,1.1,0.8c0-0.1,0.1-0.2,0.1-0.2C233.4,848.5,233,848.3,232.7,848.2z M235.2,846.1
		c-0.1,0.1-0.1,0.2-0.2,0.3c0.4,0.4,0.7,0.6,1,0.7c0-0.1,0-0.1,0-0.2C235.7,846.5,235.5,846.3,235.2,846.1z M239.5,843.2
		c0,0.1,0,0.2-0.1,0.3c0.2,0.2,0.4,0.4,0.6,0.5c0.1-0.1,0.1-0.2,0.2-0.2C240,843.4,239.8,843.3,239.5,843.2z M247.8,836.8
		C247.8,836.8,247.8,836.8,247.8,836.8c0.2,0.3,0.4,0.4,0.6,0.5C248.2,837.1,248,836.9,247.8,836.8z M239.5,843.2
		c0,0.1,0,0.2-0.1,0.3c0.2,0.2,0.4,0.4,0.6,0.5c0.1-0.1,0.1-0.2,0.2-0.2C240,843.4,239.8,843.3,239.5,843.2z M235.2,846.1
		c-0.1,0.1-0.1,0.2-0.2,0.3c0.4,0.4,0.7,0.6,1,0.7c0-0.1,0-0.1,0-0.2C235.7,846.5,235.5,846.3,235.2,846.1z M233.4,858.2
		C233.4,858.2,233.4,858.2,233.4,858.2c0.4,0.4,0.6,0.6,1,0.7c0,0,0,0,0,0C234,858.5,233.7,858.2,233.4,858.2z M232.7,848.2
		c0,0.1,0,0.1-0.1,0.2c0.5,0.4,0.8,0.6,1.1,0.8c0-0.1,0.1-0.2,0.1-0.2C233.4,848.5,233,848.3,232.7,848.2z M229.2,861.7
		C229.2,861.8,229.2,861.8,229.2,861.7c0.4,0.4,0.6,0.6,0.9,0.7c0,0,0-0.1,0-0.1C229.8,862,229.5,861.8,229.2,861.7z M228.7,840.7
		c0,0.1,0,0.2,0,0.2c0.4,0.5,0.6,0.8,0.9,1c0.1-0.1,0.1-0.2,0.2-0.3C229.5,841,229.2,840.8,228.7,840.7z M247.8,836.8
		C247.8,836.8,247.8,836.8,247.8,836.8c0.2,0.3,0.4,0.4,0.6,0.5C248.2,837.1,248,836.9,247.8,836.8z M228.7,840.7c0,0.1,0,0.2,0,0.2
		c0.4,0.5,0.6,0.8,0.9,1c0.1-0.1,0.1-0.2,0.2-0.3C229.5,841,229.2,840.8,228.7,840.7z M229.2,861.7
		C229.2,861.8,229.2,861.8,229.2,861.7c0.4,0.4,0.6,0.6,0.9,0.7c0,0,0-0.1,0-0.1C229.8,862,229.5,861.8,229.2,861.7z M233.4,858.2
		C233.4,858.2,233.4,858.2,233.4,858.2c0.4,0.4,0.6,0.6,1,0.7c0,0,0,0,0,0C234,858.5,233.7,858.2,233.4,858.2z M232.7,848.2
		c0,0.1,0,0.1-0.1,0.2c0.5,0.4,0.8,0.6,1.1,0.8c0-0.1,0.1-0.2,0.1-0.2C233.4,848.5,233,848.3,232.7,848.2z M235.2,846.1
		c-0.1,0.1-0.1,0.2-0.2,0.3c0.4,0.4,0.7,0.6,1,0.7c0-0.1,0-0.1,0-0.2C235.7,846.5,235.5,846.3,235.2,846.1z M239.5,843.2
		c0,0.1,0,0.2-0.1,0.3c0.2,0.2,0.4,0.4,0.6,0.5c0.1-0.1,0.1-0.2,0.2-0.2C240,843.4,239.8,843.3,239.5,843.2z M247.8,836.8
		C247.8,836.8,247.8,836.8,247.8,836.8c0.2,0.3,0.4,0.4,0.6,0.5C248.2,837.1,248,836.9,247.8,836.8z M239.5,843.2
		c0,0.1,0,0.2-0.1,0.3c0.2,0.2,0.4,0.4,0.6,0.5c0.1-0.1,0.1-0.2,0.2-0.2C240,843.4,239.8,843.3,239.5,843.2z M235.2,846.1
		c-0.1,0.1-0.1,0.2-0.2,0.3c0.4,0.4,0.7,0.6,1,0.7c0-0.1,0-0.1,0-0.2C235.7,846.5,235.5,846.3,235.2,846.1z M233.4,858.2
		C233.4,858.2,233.4,858.2,233.4,858.2c0.4,0.4,0.6,0.6,1,0.7c0,0,0,0,0,0C234,858.5,233.7,858.2,233.4,858.2z M232.7,848.2
		c0,0.1,0,0.1-0.1,0.2c0.5,0.4,0.8,0.6,1.1,0.8c0-0.1,0.1-0.2,0.1-0.2C233.4,848.5,233,848.3,232.7,848.2z M229.2,861.7
		C229.2,861.8,229.2,861.8,229.2,861.7c0.4,0.4,0.6,0.6,0.9,0.7c0,0,0-0.1,0-0.1C229.8,862,229.5,861.8,229.2,861.7z M228.7,840.7
		c0,0.1,0,0.2,0,0.2c0.4,0.5,0.6,0.8,0.9,1c0.1-0.1,0.1-0.2,0.2-0.3C229.5,841,229.2,840.8,228.7,840.7z M247.8,836.8
		C247.8,836.8,247.8,836.8,247.8,836.8c0.2,0.3,0.4,0.4,0.6,0.5C248.2,837.1,248,836.9,247.8,836.8z M228.7,840.7c0,0.1,0,0.2,0,0.2
		c0.4,0.5,0.6,0.8,0.9,1c0.1-0.1,0.1-0.2,0.2-0.3C229.5,841,229.2,840.8,228.7,840.7z M229.2,861.7
		C229.2,861.8,229.2,861.8,229.2,861.7c0.4,0.4,0.6,0.6,0.9,0.7c0,0,0-0.1,0-0.1C229.8,862,229.5,861.8,229.2,861.7z M233.4,858.2
		C233.4,858.2,233.4,858.2,233.4,858.2c0.4,0.4,0.6,0.6,1,0.7c0,0,0,0,0,0C234,858.5,233.7,858.2,233.4,858.2z M232.7,848.2
		c0,0.1,0,0.1-0.1,0.2c0.5,0.4,0.8,0.6,1.1,0.8c0-0.1,0.1-0.2,0.1-0.2C233.4,848.5,233,848.3,232.7,848.2z M235.2,846.1
		c-0.1,0.1-0.1,0.2-0.2,0.3c0.4,0.4,0.7,0.6,1,0.7c0-0.1,0-0.1,0-0.2C235.7,846.5,235.5,846.3,235.2,846.1z M239.5,843.2
		c0,0.1,0,0.2-0.1,0.3c0.2,0.2,0.4,0.4,0.6,0.5c0.1-0.1,0.1-0.2,0.2-0.2C240,843.4,239.8,843.3,239.5,843.2z M247.8,836.8
		C247.8,836.8,247.8,836.8,247.8,836.8c0.2,0.3,0.4,0.4,0.6,0.5C248.2,837.1,248,836.9,247.8,836.8z M239.5,843.2
		c0,0.1,0,0.2-0.1,0.3c0.2,0.2,0.4,0.4,0.6,0.5c0.1-0.1,0.1-0.2,0.2-0.2C240,843.4,239.8,843.3,239.5,843.2z M235.2,846.1
		c-0.1,0.1-0.1,0.2-0.2,0.3c0.4,0.4,0.7,0.6,1,0.7c0-0.1,0-0.1,0-0.2C235.7,846.5,235.5,846.3,235.2,846.1z M233.4,858.2
		C233.4,858.2,233.4,858.2,233.4,858.2c0.4,0.4,0.6,0.6,1,0.7c0,0,0,0,0,0C234,858.5,233.7,858.2,233.4,858.2z M232.7,848.2
		c0,0.1,0,0.1-0.1,0.2c0.5,0.4,0.8,0.6,1.1,0.8c0-0.1,0.1-0.2,0.1-0.2C233.4,848.5,233,848.3,232.7,848.2z M229.2,861.7
		C229.2,861.8,229.2,861.8,229.2,861.7c0.4,0.4,0.6,0.6,0.9,0.7c0,0,0-0.1,0-0.1C229.8,862,229.5,861.8,229.2,861.7z M228.7,840.7
		c0,0.1,0,0.2,0,0.2c0.4,0.5,0.6,0.8,0.9,1c0.1-0.1,0.1-0.2,0.2-0.3C229.5,841,229.2,840.8,228.7,840.7z M228.7,840.7
		c0,0.1,0,0.2,0,0.2c0.4,0.5,0.6,0.8,0.9,1c0.1-0.1,0.1-0.2,0.2-0.3C229.5,841,229.2,840.8,228.7,840.7z M229.2,861.7
		C229.2,861.8,229.2,861.8,229.2,861.7c0.4,0.4,0.6,0.6,0.9,0.7c0,0,0-0.1,0-0.1C229.8,862,229.5,861.8,229.2,861.7z M233.4,858.2
		C233.4,858.2,233.4,858.2,233.4,858.2c0.4,0.4,0.6,0.6,1,0.7c0,0,0,0,0,0C234,858.5,233.7,858.2,233.4,858.2z M232.7,848.2
		c0,0.1,0,0.1-0.1,0.2c0.5,0.4,0.8,0.6,1.1,0.8c0-0.1,0.1-0.2,0.1-0.2C233.4,848.5,233,848.3,232.7,848.2z M235.2,846.1
		c-0.1,0.1-0.1,0.2-0.2,0.3c0.4,0.4,0.7,0.6,1,0.7c0-0.1,0-0.1,0-0.2C235.7,846.5,235.5,846.3,235.2,846.1z M239.5,843.2
		c0,0.1,0,0.2-0.1,0.3c0.2,0.2,0.4,0.4,0.6,0.5c0.1-0.1,0.1-0.2,0.2-0.2C240,843.4,239.8,843.3,239.5,843.2z M239.5,843.2
		c0,0.1,0,0.2-0.1,0.3c0.2,0.2,0.4,0.4,0.6,0.5c0.1-0.1,0.1-0.2,0.2-0.2C240,843.4,239.8,843.3,239.5,843.2z M235.2,846.1
		c-0.1,0.1-0.1,0.2-0.2,0.3c0.4,0.4,0.7,0.6,1,0.7c0-0.1,0-0.1,0-0.2C235.7,846.5,235.5,846.3,235.2,846.1z M233.4,858.2
		C233.4,858.2,233.4,858.2,233.4,858.2c0.4,0.4,0.6,0.6,1,0.7c0,0,0,0,0,0C234,858.5,233.7,858.2,233.4,858.2z M232.7,848.2
		c0,0.1,0,0.1-0.1,0.2c0.5,0.4,0.8,0.6,1.1,0.8c0-0.1,0.1-0.2,0.1-0.2C233.4,848.5,233,848.3,232.7,848.2z M229.2,861.7
		C229.2,861.8,229.2,861.8,229.2,861.7c0.4,0.4,0.6,0.6,0.9,0.7c0,0,0-0.1,0-0.1C229.8,862,229.5,861.8,229.2,861.7z M228.7,840.7
		c0,0.1,0,0.2,0,0.2c0.4,0.5,0.6,0.8,0.9,1c0.1-0.1,0.1-0.2,0.2-0.3C229.5,841,229.2,840.8,228.7,840.7z M228.7,840.7
		c0,0.1,0,0.2,0,0.2c0.4,0.5,0.6,0.8,0.9,1c0.1-0.1,0.1-0.2,0.2-0.3C229.5,841,229.2,840.8,228.7,840.7z M229.2,861.7
		C229.2,861.8,229.2,861.8,229.2,861.7c0.4,0.4,0.6,0.6,0.9,0.7c0,0,0-0.1,0-0.1C229.8,862,229.5,861.8,229.2,861.7z M233.4,858.2
		C233.4,858.2,233.4,858.2,233.4,858.2c0.4,0.4,0.6,0.6,1,0.7c0,0,0,0,0,0C234,858.5,233.7,858.2,233.4,858.2z M232.7,848.2
		c0,0.1,0,0.1-0.1,0.2c0.5,0.4,0.8,0.6,1.1,0.8c0-0.1,0.1-0.2,0.1-0.2C233.4,848.5,233,848.3,232.7,848.2z M235.2,846.1
		c-0.1,0.1-0.1,0.2-0.2,0.3c0.4,0.4,0.7,0.6,1,0.7c0-0.1,0-0.1,0-0.2C235.7,846.5,235.5,846.3,235.2,846.1z M239.5,843.2
		c0,0.1,0,0.2-0.1,0.3c0.2,0.2,0.4,0.4,0.6,0.5c0.1-0.1,0.1-0.2,0.2-0.2C240,843.4,239.8,843.3,239.5,843.2z M239.5,843.2
		c0,0.1,0,0.2-0.1,0.3c0.2,0.2,0.4,0.4,0.6,0.5c0.1-0.1,0.1-0.2,0.2-0.2C240,843.4,239.8,843.3,239.5,843.2z M235.2,846.1
		c-0.1,0.1-0.1,0.2-0.2,0.3c0.4,0.4,0.7,0.6,1,0.7c0-0.1,0-0.1,0-0.2C235.7,846.5,235.5,846.3,235.2,846.1z M233.4,858.2
		C233.4,858.2,233.4,858.2,233.4,858.2c0.4,0.4,0.6,0.6,1,0.7c0,0,0,0,0,0C234,858.5,233.7,858.2,233.4,858.2z M232.7,848.2
		c0,0.1,0,0.1-0.1,0.2c0.5,0.4,0.8,0.6,1.1,0.8c0-0.1,0.1-0.2,0.1-0.2C233.4,848.5,233,848.3,232.7,848.2z M229.2,861.7
		C229.2,861.8,229.2,861.8,229.2,861.7c0.4,0.4,0.6,0.6,0.9,0.7c0,0,0-0.1,0-0.1C229.8,862,229.5,861.8,229.2,861.7z M228.7,840.7
		c0,0.1,0,0.2,0,0.2c0.4,0.5,0.6,0.8,0.9,1c0.1-0.1,0.1-0.2,0.2-0.3C229.5,841,229.2,840.8,228.7,840.7z M228.7,840.7
		c0,0.1,0,0.2,0,0.2c0.4,0.5,0.6,0.8,0.9,1c0.1-0.1,0.1-0.2,0.2-0.3C229.5,841,229.2,840.8,228.7,840.7z M229.2,861.7
		C229.2,861.8,229.2,861.8,229.2,861.7c0.4,0.4,0.6,0.6,0.9,0.7c0,0,0-0.1,0-0.1C229.8,862,229.5,861.8,229.2,861.7z M232.7,848.2
		c0,0.1,0,0.1-0.1,0.2c0.5,0.4,0.8,0.6,1.1,0.8c0-0.1,0.1-0.2,0.1-0.2C233.4,848.5,233,848.3,232.7,848.2z M233.4,858.2
		C233.4,858.2,233.4,858.2,233.4,858.2c0.4,0.4,0.6,0.6,1,0.7c0,0,0,0,0,0C234,858.5,233.7,858.2,233.4,858.2z M233.4,858.2
		C233.4,858.2,233.4,858.2,233.4,858.2c0.4,0.4,0.6,0.6,1,0.7c0,0,0,0,0,0C234,858.5,233.7,858.2,233.4,858.2z M232.7,848.2
		c0,0.1,0,0.1-0.1,0.2c0.5,0.4,0.8,0.6,1.1,0.8c0-0.1,0.1-0.2,0.1-0.2C233.4,848.5,233,848.3,232.7,848.2z M229.2,861.7
		C229.2,861.8,229.2,861.8,229.2,861.7c0.4,0.4,0.6,0.6,0.9,0.7c0,0,0-0.1,0-0.1C229.8,862,229.5,861.8,229.2,861.7z M228.7,840.7
		c0,0.1,0,0.2,0,0.2c0.4,0.5,0.6,0.8,0.9,1c0.1-0.1,0.1-0.2,0.2-0.3C229.5,841,229.2,840.8,228.7,840.7z M228.7,840.7
		c0,0.1,0,0.2,0,0.2c0.4,0.5,0.6,0.8,0.9,1c0.1-0.1,0.1-0.2,0.2-0.3C229.5,841,229.2,840.8,228.7,840.7z M229.2,861.7
		C229.2,861.8,229.2,861.8,229.2,861.7c0.4,0.4,0.6,0.6,0.9,0.7c0,0,0-0.1,0-0.1C229.8,862,229.5,861.8,229.2,861.7z M232.7,848.2
		c0,0.1,0,0.1-0.1,0.2c0.5,0.4,0.8,0.6,1.1,0.8c0-0.1,0.1-0.2,0.1-0.2C233.4,848.5,233,848.3,232.7,848.2z M233.4,858.2
		C233.4,858.2,233.4,858.2,233.4,858.2c0.4,0.4,0.6,0.6,1,0.7c0,0,0,0,0,0C234,858.5,233.7,858.2,233.4,858.2z M233.4,858.2
		C233.4,858.2,233.4,858.2,233.4,858.2c0.4,0.4,0.6,0.6,1,0.7c0,0,0,0,0,0C234,858.5,233.7,858.2,233.4,858.2z M232.7,848.2
		c0,0.1,0,0.1-0.1,0.2c0.5,0.4,0.8,0.6,1.1,0.8c0-0.1,0.1-0.2,0.1-0.2C233.4,848.5,233,848.3,232.7,848.2z M229.2,861.7
		C229.2,861.8,229.2,861.8,229.2,861.7c0.4,0.4,0.6,0.6,0.9,0.7c0,0,0-0.1,0-0.1C229.8,862,229.5,861.8,229.2,861.7z M228.7,840.7
		c0,0.1,0,0.2,0,0.2c0.4,0.5,0.6,0.8,0.9,1c0.1-0.1,0.1-0.2,0.2-0.3C229.5,841,229.2,840.8,228.7,840.7z M228.7,840.7
		c0,0.1,0,0.2,0,0.2c0.4,0.5,0.6,0.8,0.9,1c0.1-0.1,0.1-0.2,0.2-0.3C229.5,841,229.2,840.8,228.7,840.7z M229.2,861.7
		C229.2,861.8,229.2,861.8,229.2,861.7c0.4,0.4,0.6,0.6,0.9,0.7c0,0,0-0.1,0-0.1C229.8,862,229.5,861.8,229.2,861.7z M233.4,858.2
		C233.4,858.2,233.4,858.2,233.4,858.2c0.4,0.4,0.6,0.6,1,0.7c0,0,0,0,0,0C234,858.5,233.7,858.2,233.4,858.2z M233.4,858.2
		C233.4,858.2,233.4,858.2,233.4,858.2c0.4,0.4,0.6,0.6,1,0.7c0,0,0,0,0,0C234,858.5,233.7,858.2,233.4,858.2z M229.2,861.7
		C229.2,861.8,229.2,861.8,229.2,861.7c0.4,0.4,0.6,0.6,0.9,0.7c0,0,0-0.1,0-0.1C229.8,862,229.5,861.8,229.2,861.7z M228.7,840.7
		c0,0.1,0,0.2,0,0.2c0.4,0.5,0.6,0.8,0.9,1c0.1-0.1,0.1-0.2,0.2-0.3C229.5,841,229.2,840.8,228.7,840.7z M228.7,840.7
		c0,0.1,0,0.2,0,0.2c0.4,0.5,0.6,0.8,0.9,1c0.1-0.1,0.1-0.2,0.2-0.3C229.5,841,229.2,840.8,228.7,840.7z M233.4,858.2
		C233.4,858.2,233.4,858.2,233.4,858.2c0.4,0.4,0.6,0.6,1,0.7c0,0,0,0,0,0C234,858.5,233.7,858.2,233.4,858.2z M233.4,858.2
		C233.4,858.2,233.4,858.2,233.4,858.2c0.4,0.4,0.6,0.6,1,0.7c0,0,0,0,0,0C234,858.5,233.7,858.2,233.4,858.2z M228.7,840.7
		c0,0.1,0,0.2,0,0.2c0.4,0.5,0.6,0.8,0.9,1c0.1-0.1,0.1-0.2,0.2-0.3C229.5,841,229.2,840.8,228.7,840.7z M228.7,840.7
		c0,0.1,0,0.2,0,0.2c0.4,0.5,0.6,0.8,0.9,1c0.1-0.1,0.1-0.2,0.2-0.3C229.5,841,229.2,840.8,228.7,840.7z M228.7,840.7
		c0,0.1,0,0.2,0,0.2c0.4,0.5,0.6,0.8,0.9,1c0.1-0.1,0.1-0.2,0.2-0.3C229.5,841,229.2,840.8,228.7,840.7z M228.7,840.7
		c0,0.1,0,0.2,0,0.2c0.4,0.5,0.6,0.8,0.9,1c0.1-0.1,0.1-0.2,0.2-0.3C229.5,841,229.2,840.8,228.7,840.7z M228.7,840.7
		c0,0.1,0,0.2,0,0.2c0.4,0.5,0.6,0.8,0.9,1c0.1-0.1,0.1-0.2,0.2-0.3C229.5,841,229.2,840.8,228.7,840.7z M228.7,840.7
		c0,0.1,0,0.2,0,0.2c0.4,0.5,0.6,0.8,0.9,1c0.1-0.1,0.1-0.2,0.2-0.3C229.5,841,229.2,840.8,228.7,840.7z M228.7,840.7
		c0,0.1,0,0.2,0,0.2c0.4,0.5,0.6,0.8,0.9,1c0.1-0.1,0.1-0.2,0.2-0.3C229.5,841,229.2,840.8,228.7,840.7z"/>
	<path class="st1" d="M182.2,111.1c3.3,2,5,4.8,7,9.3c-4.6-2.1-6.7-5.2-9.4-8.1C180.2,111.6,180.8,111.5,182.2,111.1z"/>
	<path class="st2" d="M733.6,614.4c1.2,1.1,2.6,2.1,4.6,3.6c-2.1,3.8-3.9,7.8-6.3,11.5c-13.8,21.5-27.5,43.1-43,63.5
		c-19.1,25.2-39.8,48.8-65.5,67.6c-5,3.7-10.2,6.9-15.7,9.8c-19.8,10.7-40.7,18.9-61.3,27.9c-15.1,6.6-31.1,9.6-47,12.8
		c-20.1,4.1-40.4,7.2-60.7,10c-5.6,0.8-11.2,1.2-16.8,1.3c-3.7,0.1-6.4,1.6-9.3,4.5c-0.4,0.1-0.8,0.2-1,0.2c-0.3,0-0.5,0-0.8-0.2
		c0.1-0.2,0.1-0.3,0.2-0.5c1.2-3.3-2.6-3.2-3.5-5.5c8.1-5.2,17.3-8.3,26-12.4c2.6-1.2,7.8-1.3,6.7-4.6c-1.3-3.8-6.1-1.5-8.9-0.4
		c-12.3,4.7-24.5,9.9-35.7,16.9c-5.5-7-5.5-7.5-0.8-13.7c8.8-11.6,19.6-20.8,32.4-27.7c1.7-0.9,3.4-1.9,5.1-3c1.6-1,2.5-2.4,1.4-4.2
		c-0.9-1.4-2.6-1.4-3.8-0.8c-3,1.4-5.9,3.1-8.9,4.7c-13.6,7.4-25,17.7-33.1,30.7c-7.2,11.5-17.6,14.1-29.4,14.4
		c-12.7,0.3-25.2-1.8-37.4-5.3c-1.9-0.5-3.7-1.3-5.6-1.9c-2.7-0.9-5.6-1.8-7.8,0.8c-1.9,2.3,0.5,4.2,1.1,6.2c0.3,1.1,0.9,2.1,1.3,3
		c-5.7,3.9-5.7,3.9-3.7,11.7c-6.5,2-13.3,1.1-19.8,1.9c-11.6,1.4-22.5,4.9-33,9.8l-3,1.5c-1.2,0.5-2.7,1.4-3.6-0.3
		c-0.5-1.1,0.2-2.1,1.2-2.9c2.8-2.3,5.7-4.5,8.4-7c3-2.8,7-4.9,7.7-9.9c-6-1.6-8.2,3.9-12.5,6.3c-0.5,0.2-0.8,0.4-1.1,0.5
		c-0.4,0.1-0.8,0.1-1.5,0c0-0.1,0-0.3,0-0.4c0.1-2.9-1.4-3.4-4.2-2.9c-0.3-0.1-0.6-0.2-0.8-0.4c-0.3-0.3-0.5-0.8-0.6-1.6
		c0-0.1,0-0.2,0-0.2c0.5-3.3-1.2-3.7-3.7-3.6c-0.3-0.1-0.6-0.2-0.7-0.3c-0.3-0.2-0.5-0.5-0.5-1.1c0.1-0.1,0.2-0.1,0.3-0.2
		c3.4-2.3,6.4-4.1,9.4-5.9c1-0.6,1.5-1.8,1-3c-0.5-1.3-1.7-1.4-2.8-1.1c-2.1,0.6-4.3,1.3-6.3,2.3c-19.4,9.1-40.3,13.8-60.6,20.4
		c-0.4,0.1-0.9-0.3-1.8-0.7c0.6-3.2,3.4-3,5.5-3.7c32.9-11.5,65-25,95.9-41.2c13-6.8,25.5-14.2,37.6-22.5c2.1-1.4,5-3.1,3.2-5.8
		c-2-3-4.5-0.3-6.4,1c-45.1,29.8-94.4,50.6-145.6,67.2c-20.1,6.5-40.4,12-61.5,14.1c-1.9,0.2-3.9,0.9-5.6-0.5
		c-0.1-2.5,2.1-2.5,3.4-2.8c34.7-8,66.9-22.9,99.7-35.9c13.8-5.5,27.7-10.8,41.7-15.8c32.5-11.6,62.1-28.6,90.9-47.4
		c16-10.4,32.7-19.8,49-29.7c12-7.3,24.8-13.1,35.8-21.9c2.2-1.8,4.2-3.7,6.2-5.7c1-1,1.4-2.5,0.1-3.8s-2.6-0.6-3.8,0.2
		c-3.4,2.5-6.7,5.1-10.2,7.5c-7.3,5-10.1,4.7-15.4-2.1c-2.1-2.7-4.6-3.9-7.7-4.6c-6.2-1.5-7.4-3.5-5.9-9.5c0.7-3,1.8-5.8,3.9-8.3
		c3.1-3.5,4-7.9,4.2-12.5c0.1-4.9-1.4-8.5-6.4-10.6c-6-2.6-6.1-3.5-4.1-10.4c1.7-6.1,0.5-7.8-6.2-8.6c-9-1-11.3-5.7-7-13.9
		c1.1-2,2.2-3.9,3.3-5.8c2.8-4.8,5.4-9.4-1.2-13.7c-2.9-1.9-1.8-5.7-1.4-8.7c0.5-4.6,3.1-8.4,4.7-12.6c1.3-3.5,1.8-7-1.1-9.3
		c-4.5-3.8-4.9-8.5-4.4-13.7c0.2-2,0-3.9,0.2-5.9c0.4-3.4-1.3-4.9-4.3-6.2c-8.8-3.8-9.8-7.7-4.3-15.3c2.3-3.2,5.2-5.9,7.7-9
		c5.4-6.7,5.8-13,0.5-19.9c-2.4-3.1-2.5-5.9-1.8-9.4c1.3-6.3,5.3-11.1,8.8-16.2c5-7.3,5-8-3-11.1c-3.4-1.4-3.4-3.2-1.9-5.8
		c0.6-0.9,1.4-1.7,2.3-2.4c5.8-4.6,5.8-4.6,1.2-10.7c-1.4-1.9-2.6-3.6-0.1-5.8c3.7-3.4,1.9-6.6-1-9.3c-1.6-1.5-3.6-2.6-5.4-4
		c-5.1-4.1-6.1-6.9-3.8-12.9c1.3-3.4,0.8-6-1.7-8.4c-6.9-6.5-10.1-16.1-18.1-21.9c-3.4-2.5-5.2-6.8-3.5-11.4c1.3-3.8,0.2-6.5-2.5-9
		c-4.3-4-6.9-8.9-7.8-14.6c-0.5-2.9-2.3-5.1-3.2-7.7c-0.7-2-1.7-4.4,1.3-5.7c3.9-1.7,3.7-4.7,1.8-7.6c-3.4-5.1-6-10-3.1-16.3
		c0.8-1.8-0.4-3.8-1.9-5.2c-2.5-2.3-4.9-4.6-7.2-7c-3.2-3.4-3.1-4.8,0.5-8.1c4.1-4,4.3-4.9-0.4-8.3c-3.9-2.8-6-6.6-8-10.6
		c-2.4-4.9-0.8-8.7,4.7-9c8.4-0.5,16.9-0.6,23.9,5.4c0.6,0.5,1.2,1.2,1.9,1.7c1.1,0.9,2.3,1.8,3.8,1.1c1.9-0.9,2.1-2.8,1.3-4.3
		c-3.2-6.3,1.6-13-1.4-19.6c-1.3-2.8,2-4.9,4.9-5.6c4.7-1.1,9.1-0.2,12.7,3c4.6,4,10,6.6,15.8,7.5c5.4,0.9,9.1,3.6,12.6,7.4
		c23.1,25,45.5,50.6,64.4,79c18.7,28.1,30.4,59.3,39.4,91.7c11.1,39.9,25.7,78.4,47.1,114.1c8.6,14.3,18.2,27.7,30.4,39.2
		c4.1,3.9,8.5,7.3,13.9,9.3c4.8,1.8,9.6,2.5,14.8,1.4c22.3-4.5,44.4-9.7,65.9-17.3c26.6-9.4,50.8-2.4,73.9,11.5
		c1.7,1,3.1,2.4,4.5,3.7c1.8,1.8,3.4,3.7,5.6,6c-4.5,3-9.2,4.9-12.6,8.5c-2.1,2.2-4.2,4.6-5.9,7.2
		C728.6,607,729.1,610.1,733.6,614.4z"/>
	<path class="st2" d="M750.8,302.2c0.3,15.1,1.5,29.4,3.7,43.6c1.6,10.4-0.5,20-3.1,29.8c-7.8,29.1-21.7,55.3-37.7,80.5
		c-10.5,16.6-21.1,33.2-31.4,49.9c-8.8,14.2-15.1,29.4-16.5,46.3c-0.3,3.2-1.3,5-4.5,6c-13.9,4.4-27.7,9.2-42.1,11.9
		c-5.8,1.1-11.7,2-17.3,3.6c-7.8,2.3-14.5,0.3-20.4-4.6c-12.6-10.6-22.7-23.3-31-37.5c-2.3-4-1.7-7.6,1.7-10.6
		c2.6-2.3,4-4.7,2.5-8.1c-0.9-2-0.4-4.1,0.9-5.5c3.2-3.4,5.5-6.6,3.1-11.8c-1-2.3,2.3-4.2,4.2-5.8c2.6-2,4.5-4.1,3.8-7.8
		c-0.5-2.4,0.5-5.1,2.6-5.8c5.6-1.9,8.5-6.7,12.4-10.4c1.7-1.6,3.4-2.8,5.6-3.6c6.8-2.4,9.5-6,9.5-12.8c0-1.8,0.2-4.3-0.1-5.4
		c-2-6.6,2.1-9.1,6.6-11.6c1.8-1,3.4-2.5,3.6-4.5c0.7-6.2,5.3-8,10-10c3.6-1.5,7.3-2.6,8.7-7.1c0.9-2.9,4.2-3.5,6.9-4.3
		c3.5-1,6-3,7.4-6.3c1-2.4,2.4-4.4,5-5.4c2-0.8,2.9-2.4,3.6-4.4c1.1-2.9,2.9-5.3,5.3-7.4c2.7-2.4,3.5-5.7,4.3-9.4
		c1.5-7.1,1-15,5.7-21.3c1.1-1.6,2.4-3.4,2.6-5.2c0.8-8.9,6.5-16.8,5.2-26.1c-0.1-0.5-0.1-1.2,0.1-1.7c4.4-8.5,7-18.2,14.4-25
		c1.2-1.1,3.1-1.8,3.8-3.2c3-6.1,6.8-10.8,14.2-11.7c2.2-0.3,3.3-2.9,4.6-4.7c2.6-3.8,5.9-5.9,10.7-5.1c3.6,0.6,6.5-0.5,9.2-2.9
		c1.6-1.5,3.6-2.7,5.6-3.7c7-3.8,12.3-1.3,13.3,6.5C748.7,280.2,749.6,290.8,750.8,302.2z"/>
	<path class="st3" d="M132.4,115.1c-18.7-21.8-35.3-44.2-47.6-71.7c6.5,1.5,10.3,4,14,6.8c17.3,13,33.1,27.9,48.8,42.8
		c18.4,17.4,36.1,35.5,55.3,51.9c18.7,15.9,33.4,35.6,51.2,52.3c17,16,34.4,31.5,53,45.6c0.7,0.5,1.3,1,2.1,1.6
		c-2.8,4.7-5.9,5.1-10.4,2.8c-19.4-9.7-38.1-20.5-55.8-32.9c-19.6-13.7-38.4-28.5-55.9-44.8c-5.7-5.3-11.7-10.5-15.9-17.3
		c-0.6-0.9-1.4-1.7-2.3-2.4C155.5,139.8,144.3,127.5,132.4,115.1z"/>
	<path class="st4" d="M162.9,155.5c3.1,2.1,5.6,3.7,7.8,5.9c34.7,35.4,74.4,64.2,118.1,87.5c4.7,2.5,11.5,2.7,13.9,7.2
		c2.4,4.5,4.6,9.5,6.6,15c-5.3,0.1-9.8-2-14.4-3.7c-13.5-5-25.9-12.2-38.3-19.4c-57.3-33.5-112.8-69.7-165.9-109.6
		c-14.3-10.8-26-23.9-36.6-38.2c-1.2-1.6-2.2-3.3-3.2-5c-0.4-0.7-0.4-1.6-0.7-2.8c3.6-0.8,6.6,0.4,9.7,1.5c8.8,3.1,17,7.3,25.2,11.7
		C112.2,120,138,136.5,162.9,155.5z"/>
	<path class="st5" d="M299.8,275.1c1.7,0.5,2.8,0.9,3.9,1.2c6.5,1.9,6.5,1.9,6,9.5c-9.6-2-18.9-5-28-8.5
		c-26.8-10.1-52.4-23.1-78.3-35.3c-25.4-12-50.6-24.3-75.3-37.7c-2.7-1.5-5-3-6.8-5.8c-3.8-5.9-9.3-10.5-14.9-14.7
		C93.5,174.1,81.1,164,71,151.4c-3.9-4.8-7.7-9.6-9.2-17.2c9.6,2.9,19,3.9,26.7,9.9c23.2,18.2,47.9,34.4,72.4,50.8
		c36.8,24.8,74.4,48.4,113.5,69.5C282.3,268.8,290.5,272.3,299.8,275.1z"/>
	<path class="st6" d="M593.9,178.4c-4.2-7-8.2-13.5-12-20c-1.2-2.2-2.3-4.6-2.8-7c-0.7-3.2,1-4.8,4.2-4.7c1.1,0,2.2,0.4,3.2,0.9
		c10.5,4.5,21.1,8.7,30.4,15.7c32.2,24.3,56,55.6,76.2,90c2.9,4.8,5.8,9.6,8.6,14.5c2.3,4,2,6-2,6.8c-5.1,1-8.4,4.2-12.2,7.6
		c-16.7-24.5-39.5-42.3-62.3-60c-1.5-1.2-3-2.6-4.7-3.5c-6-2.8-8.9-7.5-10.8-13.9C606.9,194.9,599.6,187.4,593.9,178.4z"/>
	<path class="st5" d="M364.6,226.2c-4.8-2.1-9.1-2.9-13.7-2.6c-9.2,0.6-13.1,5.2-12.2,14.3c0.2,1.6,1.6,3.1,0.2,4.8
		c-3,0.4-4.3-2.3-5.8-3.9c-23.3-25-42.1-52.8-55.9-84.2c-11.8-26.8-20.4-54.5-28.1-83.3c0.3-0.9,0.6-1.1,1.6-1
		c9.6,16.4,16.7,33.6,28,48.4c10.7,14,21.4,28,31.6,42.5c16,22.8,34.9,43,55.5,62.5C366.4,225,366.1,225.7,364.6,226.2z"/>
	<path class="st7" d="M160.4,50.8c8.3,4.5,14.2,11.3,19.9,18.3c27.6,33.3,55.1,66.7,82.5,100.2c18.4,22.4,38.4,43.3,57.8,64.7
		c3.3,3.7,6.8,7.3,10.8,11.6c-5.4,0.5-9.3-0.6-12.9-2.8c-4.1-2.5-8.3-4.8-12-7.7c-27.8-22.4-55.3-45.5-77.2-73.8
		c-10.8-14-21.6-28.3-31.7-43c-10-14.6-19.6-29.5-28.4-44.8c-3.6-6.3-6.3-13.2-9.4-20.4C159.7,52,159.8,51.5,160.4,50.8z"/>
	<path class="st5" d="M124.7,210.2c13.5,6.4,26.4,13.1,39.6,19.4c37.7,18.1,74.8,37.3,113.8,52.6c11.3,4.4,22.7,8.3,34.7,9.8
		c1.7,0.2,3.4,0.5,4.5,1.9c1.5,1.8,4.6,3.3,3.6,6.1c-1.3,3.6-4.4,1.3-6.6,1.1c-27.9-2.1-54.8-8.8-81.6-16.3
		c-24.5-6.9-47.3-17.5-69.2-30.3c-10.7-11.6-27.3-17-34.7-32.2c-1.6-3.3-3.3-6.5-5-10.3C123.9,211.1,124,210.8,124.7,210.2z"/>
	<path class="st3" d="M366.1,442.9c-2.6,5.5-2.7,10.2,1,15.1c-23.7,11.3-46.5,23.5-71.3,31c-11.3,3.4-22.3,7.5-34.1,9.2
		c-5.3,0.8-10.6,1.3-15.9,1.1c-3.2-0.1-6.9,1.8-9.3-1.8c-3.3-4.9-6.8-9.8-6.1-16.1c0.6-5.3,4.1-8.3,10.2-9
		c38.7-4.5,76-14.5,112.7-27.1c3.2-1.1,6.3-2.3,10.1-3.7C364.8,441.1,365.6,441.3,366.1,442.9z"/>
	<path class="st4" d="M705.6,225.4c-13.1-20.3-25.8-40.2-39.4-59.5c-5.5-7.8-7.7-16.8-8.3-26.1c-0.3-4.1,1.4-5,5.2-3.4
		c2.9,1.2,5.3,3.2,7.4,5.5c17.9,19.4,36.8,38,51.6,60c10.9,16.2,19,33.7,22.8,53.8c-7.9-0.7-14.6,1.5-20.4,6.9
		C719,249.4,713.3,237.2,705.6,225.4z"/>
	<path class="st4" d="M337.9,444.3c-28.1,8.1-55.5,16.5-84.1,20.2c-5.6,0.7-11.1,1.5-16.7,2.4c-3.9,0.6-6.9-0.2-9.8-3.2
		c-6-6-8.3-13-8-21.6c9.6-0.9,18.8-0.6,28-1.4c37.4-3.1,73.7-11.3,109.6-22c4.3-1.3,8.5-0.1,11.2,3.3c0.5,0.6,1.1,1.8,0.9,2.2
		c-2.5,4.1-1.3,10.3-8.4,11.9C353.2,438,345.9,441.3,337.9,444.3z"/>
	<path class="st5" d="M226.6,435.6c-1.9-0.1-3.4,0.2-4-0.4c-6.3-6.7-13-13.2-15.6-22.5c-1.6-5.8-0.9-6.9,5.4-6.4
		c15.4,1.2,30.7,2.8,46.2,3.6c25.7,1.3,51.1-0.2,76.4-4.2c6.9-1.1,13.9-2,20.4-2.9c2,1,1.4,2.7,1.8,3.9c1.5,4.5-0.7,6.4-4.8,7.6
		c-19.7,5.7-39.7,10.2-59.7,14.3C271.1,433,249.4,435.5,226.6,435.6z"/>
	<path class="st7" d="M290.1,381.1c-29.4,5.2-57.7,2.1-86-3.1c-3.1-0.6-4.9-2-6.4-4.6c-3-5.1-5.9-10.2-5.5-16.5
		c0.4-5.1,2.1-6.4,7.1-4.8c32.3,10.1,65.6,11.3,99.1,10.7c11.7-0.2,23.5-0.5,35.2-2.2c1,3.9,1.9,7.1,2.9,10.9
		C322,378.5,306.2,378.6,290.1,381.1z"/>
	<path class="st7" d="M624.2,132.9c14.4,13,29.1,25.2,39.8,40.6c19.8,28.5,40.4,56.7,54.6,89.2c-3.5,1.9-7.7,1.3-11,3.8
		c-5.7-9.7-10.8-19-16.5-28c-15.4-24.3-32.6-47.1-54.2-66.3c-6.3-5.6-13-10.7-19.6-16c-1.3-1-3.3-1.7-3.4-3.5
		c-0.5-9.6-6.7-17.1-9.1-26c-0.6-2.1-1.6-4.2-0.8-7.2C612.5,121.2,617.5,127.8,624.2,132.9z"/>
	<path class="st4" d="M601.2,248.4c27.8,10.8,51,27.1,71.3,48c1.8,1.9,1.6,2.9,1.2,4.9c-0.8,3.8-2.9,6.6-6,9.5
		c-22.6-17.1-48.7-27-75.1-36.2c-7.7-2.7-14.9-6.3-22-10.1c-3.5-1.9-6.8-4.1-9.3-7.2c-4.8-5.8-3.2-11.2,3.9-13.5
		c3.3-1.1,6.7-1.5,10-0.9C583.7,244.2,592.3,245.4,601.2,248.4z"/>
	<path class="st5" d="M206.6,326.3c-5.6-1.5-10.5-2.7-15.3-4.1c-12.3-3.4-18-11.6-17.2-24.9c2.3-1.5,4.2,0.4,6.1,1.1
		c34,13.4,69.6,19.6,105.8,22.4c10.1,0.8,20.2,1.5,30.3,0.8c1.9-0.1,4.3-0.7,4.3,2.4c0,4.7,2.5,8.5,4.1,12.9
		c-3.6,2.6-7.7,1.7-11.4,1.9c-24.8,1.2-49.3-1.8-73.7-6C228.7,330.9,218,328.6,206.6,326.3z"/>
	<path class="st7" d="M365.4,467.4c-2,5.9-4.7,10.9-4.4,16.7c0.2,3.6-2.3,5-4.7,6.3c-7.8,4.4-15.5,9.1-23.7,12.7
		c-19,8.4-38.1,16.5-59,18.9c-6.7,0.8-13.4,1.5-20.1,1.6c-6.6,0.1-16-8.8-16.8-15.2c-0.3-2.2,0.9-3.1,2.7-3.4c1.4-0.2,2.8-0.1,4.2,0
		c12.7,0.4,25.1-1.7,37.3-5.2c23.8-6.8,46.7-15.7,68.8-26.8c4.3-2.1,8.6-4,13.6-6.1C364.4,466.7,364.8,466.7,365.4,467.4z"/>
	<path class="st7" d="M201.9,280.1C237.5,294,273.6,303,311,306.7c8.2,0.8,8.2,0.7,11.2,8.4c-3.7,0.2-7.2,0.7-10.7,0.7
		c-45.7,0-90-7.2-132.6-24.1c-11.5-4.6-20.8-19-20.6-33.3C172.5,266.7,186.6,274.1,201.9,280.1z"/>
	<path class="st7" d="M297.8,404.2c-23.6,1.8-46.3-0.5-69-2.2c-6.4-0.5-12.9-1.4-19.3-2.2c-6.6-0.8-8.1-2.3-9-8.8
		c-0.4-2.4-1.1-5,0.7-7.6c17,2.9,34.2,6,51.6,5.9c28.2-0.1,56.1-3.1,83.2-11.1c5.1-1.5,8.8,0,12.5,5.5c1.2,1.9,2.1,4,3.3,5.9
		c1.2,1.9,2.6,3.6,4.7,6.4C336.8,400.2,317.7,402.1,297.8,404.2z"/>
	<path class="st7" d="M571.6,200.2c8.6,3.1,16,7.2,23.5,10.9c29.1,14.5,53.1,35.4,75.3,58.7c5,5.3,9.2,11.3,14.2,17.4
		c-2.5,2.3-4.8,4.4-7.2,6.6c-20.7-23.4-45.8-39.9-74.5-51.1c-3.5-1.3-6.4-2.9-8.8-6.1c-3.2-4.3-7.8-7.3-12.3-10.1
		c-7-4.4-12.5-10.3-17.3-17c-0.7-0.9-1.2-1.9-1.7-2.9c-1-2.3-2.8-5-1.3-7.1c1.7-2.5,4.6-0.6,7-0.3
		C569.4,199.3,570.1,199.7,571.6,200.2z"/>
	<path class="st5" d="M338.3,525.6c-20.6,11.1-41.7,19.4-63.7,25.2c-2.7,0.7-5.5,1-8.3,1.2c-9.4,0.9-18.3-7.7-18.1-17.2
		c0.1-3.8,1.4-5.6,5.5-5.4c8.5,0.4,16.8-1,25.1-2.4c28.3-4.9,54-16.3,78.7-30.5c1.5-0.8,2.8-1.8,4.3-2.7c2.3-1.5,3.7-0.4,4.4,1.8
		c1.2,3.8,0.2,7.1-2.4,10.1c-4.6,5.3-9.2,10.5-15.6,13.9C345,521.4,341.9,523.4,338.3,525.6z"/>
	<path class="st8" d="M329.3,355.4c-31.8,2.9-62.9,2.6-93.9-1.2c-12.8-1.6-25.3-5-37.6-8.7c-10-2.9-12.9-6.7-13.6-18.2
		c2.3-0.9,4.2,0.4,6.3,1c34.6,8.9,69.6,15.1,105.3,16.7c8.4,0.4,16.8-0.5,25.2-0.8c5.5-0.2,10.5,4.9,10.5,10.7
		C331.4,355,330.5,355.1,329.3,355.4z"/>
	<path class="st5" d="M595.1,334.2c-8.6-0.9-16.3-1.9-24.2-2.5c-3.6-0.3-5.6-1.2-5.9-5.4c-0.1-2.4-2-4.6-2.8-6.9
		c-3.2-9.1,1.2-14.3,10.8-12.6c5.8,1.1,11.5,2.3,17.3,3.7c18,4.3,36.4,6.7,53.8,13.2c2.9,1.1,5.7,2.2,8.6,3.5
		c10.8,4.8,10.8,4.8,7.8,16.6c-12.8-4.5-26.3-4.8-39.6-6.4C612.5,336.2,604.2,335.3,595.1,334.2z"/>
	<path class="st5" d="M562.3,282.9c2.8-6.2,5.4-7.9,11.8-6.9c5,0.7,10,1.8,14.7,3.4c20.9,7.3,41.6,15.2,60.9,26.4
		c3.4,2,6.5,4.4,9.8,6.4c5.2,3.2,7.3,7.3,4.7,13.3c-0.8-0.2-1.7-0.1-2.4-0.5c-13.9-7.7-29.1-11.6-44.5-14.8
		c-13.2-2.8-26.3-5.7-39.5-8.4c-3.2-0.7-5.5-1.6-6.9-5.1C568.9,291.9,563.6,289,562.3,282.9z"/>
	<path class="st5" d="M299.5,596.3c18.4-12.5,36.7-23.9,57.2-30.9c3.8-1.3,9.1-4.6,11.7-1.8c3.2,3.5-1.9,7.9-2.9,12.1
		c-0.6,2.5-2.6,3.3-4.7,4.3c-22.9,10.8-43.9,24.6-62.5,41.9c-5.1,4.8-5.8,4.9-10.4-0.3c-0.9-1-1.7-2.2-2.6-3.3
		c-2.3-3-2.6-5.6,0.3-8.8C289.9,604.9,294.2,600.5,299.5,596.3z"/>
	<path class="st8" d="M301.2,587.9c-7.5,5-13.8,10.6-20.3,17.9c-0.9-4.3-4.1-4.8-6.3-6.7c-4.3-3.7-4.4-8.3-0.1-12.1
		c7.1-6.4,15-11.9,23.5-16.3c19.5-9.9,39.3-19.1,59.6-27.2c1.7-0.7,3.6-1.1,6.4-2c0,4.9-0.1,9.1,0,13.2c0.1,2.3-1.3,2.8-3,3.3
		C339.3,564,320.4,575.6,301.2,587.9z"/>
	<path class="st5" d="M580.3,440.2c-19.6,1.4-37.8,6-56,10.5c-1.6,0.4-3.3,0.9-4.9,1.2c-6.1,1.2-9.5-2.7-7.3-8.4
		c1.3-3.3,2.6-6.3,7.1-7.3c6.2-1.4,12.3-3.9,18.1-6.6c13-6.1,26.8-7.9,40.9-8c7.6-0.1,15.1,0,23,0c0.9,3.4-0.2,5.5-2.9,7
		s-5.6,3.2-6.7,6.1C589.7,440,585.8,440.8,580.3,440.2z"/>
	<path class="st8" d="M277,577.2c-2.8,2.4-5.4,4.2-7.5,6.4c-2.8,2.9-4.9,1.7-6.9-0.8c-7.1-8.9-2.5-22.7,9.2-25.3
		c15.7-3.6,30.6-9.2,45.5-15.2c11.4-4.6,22.3-10.4,33.6-17.1c1.7,4.2,2.4,8.4,6.6,11.7c-2.5,1.2-4.4,2.1-6.3,2.9
		c-17.9,7.4-35.5,15.6-52.9,24.2C290.8,567.5,284,572,277,577.2z"/>
	<path class="st8" d="M648.2,346.4c3.6,1,6.9,0.9,9.7,3.3c-1.6,3.6-3.9,7.2-3.8,12c-11.5-1.6-22.5-3.3-33.5-4.7
		c-15.9-2-31.8-3.4-47.8-3.5c-1.1,0-2.3,0-3.4-0.1c-3.1-0.2-6.2-0.2-7.6-3.9c-1.4-3.7-0.7-7.1,1.2-10.4c1.7-2.8,4.4-2.1,6.8-1.9
		c9.8,1,19.5,2.2,29.3,3.4C615.2,342.5,631.3,344.4,648.2,346.4z"/>
	<path class="st2" d="M239.2,825.9C223.6,837.3,207,846.5,190,855c-26.7,13.2-52.6,27.7-78.6,42.3c-6,3.4-11.3,3.5-17.2,0.4
		c1.1-4,3.9-5.6,6.5-7c6.2-3.3,12.4-6.5,18.7-9.6c2.8-1.3,5.9-2,7.5-5c1.2-2.3,3.6-2.5,5.7-3.3c24.9-9,48.6-20.4,71.2-34.2
		c5.1-3.1,10.3-5.5,16-7.3c6.1-2,12.1-4.6,18.7-6.9c0.2,0.1,0.4,0.1,0.5,0.2c-0.1,0-0.2,0.1-0.3,0.2
		C238.7,825.3,238.8,825.6,239.2,825.9z"/>
	<path class="st9" d="M239.4,825.7c-0.1,0.1-0.2,0.1-0.2,0.2c-0.3-0.2-0.5-0.5-0.5-1.1c0.1-0.1,0.2-0.1,0.3-0.2
		C239.3,824.8,239.3,825.1,239.4,825.7z"/>
	<path class="st9" d="M603.9,404.9c5.8,0,10.9,0,15.8,0c1.2,3.1,0,5.4-2,6.2c-5.8,2.5-11.3,5.5-18.3,4.9
		c-15.1-1.2-30.2-0.6-45.3,1.9c-9.5,1.6-18,6.1-27,9.3c-2.5,0.9-5.1,1.8-7.9,2.7c1.3-10.5,7.8-16.5,15.1-21.5c2.9-2,7-1.5,10.7-1.6
		c9.8-0.2,19.6-0.3,29.5-0.7C584,405.9,593.5,405.3,603.9,404.9z"/>
	<path class="st10" d="M551.5,375c28.7-1.8,56.7-3,84.7-0.9c4.7,0.4,9.1,1.5,13.9,2.9c-2.5,5.2-6,6.1-10.6,5.8
		c-22.2-1.6-44.2,0.1-66.3,2.8c-9.1,1.1-18.4,1.3-28.2,2C545.1,382.3,546.9,378.3,551.5,375z"/>
	<path class="st9" d="M573,400.8c-12.6,0-24.3,0-36.4,0c1-4.8,3.3-7.1,8.9-7.3c23.8-1,47.5-5,71.4-5.7c7.8-0.2,15.5-0.5,24.4,1.1
		c-3.3,2.9-5.7,5.5-6.9,8.9c-1.1,2.8-3.6,2-5.8,2c-13.5,0.1-27-1.1-40.4-0.1C583.4,400.1,578.6,400.4,573,400.8z"/>
	<path class="st8" d="M521.5,474.3c-2.7-5-4.1-9.8-5.5-15.1c5.4-2.4,11-2.9,16.4-4.3c16-4.3,32.2-7.8,48.9-8.8
		c3.5-0.2,7.7-1.9,8.9,3.4c0.8,3.5-1.6,5.3-6.6,8c-6.5,3.5-13.2,3.8-20.2,4.2C548.6,462.7,534.8,467.3,521.5,474.3z"/>
	<path class="st8" d="M364,604.9c-1.1,5-3.5,9.3-1.9,14.3c0.7,2.2-0.3,3.6-2.2,4.8c-15,9.9-29.9,19.8-44.9,29.8
		c-1.6,1.1-3,1.1-4.4-0.4c-4.6-4.9-4.5-11.1,1-15C328.4,626.3,345.2,614.1,364,604.9z"/>
	<path class="st2" d="M385.6,827.4c-1.9,1.1-3.7,2.5-5.7,3.5c-3.8,2-6.9,4.5-8.8,8.6c-2.1,4.4-5.7,6.7-10.7,6.9
		c-6.7,0.3-13,3.5-20.6,2c-0.5-0.2-0.9-0.3-1.2-0.5c0.1,0,0.2-0.1,0.4-0.1c-0.5-0.8-0.8-1.3-1.4-1.9c1.8-1.7,1.8-3.1-0.1-4
		c-2.4-1.2-5-2-8.1-3.2c-0.3-0.4-0.6-0.6-0.7-1c0.1,0,0.1,0,0.2,0c0-0.5,0-0.9,0-1.3c7.9,0.6,15.5,2,23.2,3.2
		c3.5,0.5,7.1,0.7,10.3-3.9c-5.5-0.8-10-1.6-14.5-2.1c-7.8-1-15.4-2.7-22.9-5.1c-3.2-1-6.3-2.2-7.8-6.3c12.6,1.3,24.8,4.4,37.5,4.5
		c11.3,0.1,22.3-1,31.7-7.8C390.5,822.4,389.7,825.1,385.6,827.4z"/>
	<path class="st10" d="M328.8,836.4c0,0.3,0,0.7,0,1.3c-0.1,0-0.1,0-0.2,0c-0.1-0.4-0.2-0.8-0.1-1.3
		C328.6,836.4,328.7,836.4,328.8,836.4z"/>
	<path class="st10" d="M338.9,847.8c-0.1,0-0.2,0.1-0.4,0.1c-0.7-0.4-1-0.9-1.2-1.8c0.1-0.1,0.1-0.1,0.2-0.2
		C338.1,846.5,338.5,847,338.9,847.8z"/>
	<path class="st8" d="M366.7,595.1c-21.1,12.1-40.7,25.6-59.9,39.6c-1.4,1.1-2.6,3.6-4.8,2.2c-2.4-1.5-2.4-4.3-2.3-6.8
		c0-1.5,1.2-2.5,2.2-3.4c17.7-17.5,39.2-29.5,61.1-42.2C364.6,588.4,364.4,592,366.7,595.1z"/>
	<path class="st2" d="M212.3,853.1c-23.3,17.7-49.1,31-73.5,46.2c-6.5,4.1-14,5.7-21.6,6.3c-1.3,0.1-2.7,0-4.5,0
		c0.6-4.2,4.1-4.7,6.5-6.1c28.7-16,57.6-31.6,86.9-46.3c1-0.5,2-1,3.5-1.7c0.5-0.2,1-0.2,1.3-0.2c-0.1,0.1-0.2,0.2-0.3,0.3
		C211.3,852.2,211.7,852.7,212.3,853.1z"/>
	<path class="st8" d="M331,671.2c14.5-11.2,28.2-22.4,43.8-32.4c2.6,4.2,4.9,8.7,10.9,9.4c-2.7,4.1-5.9,5.8-8.9,7.8
		c-12,7.8-24.1,15.4-36.3,23.1c-2,1.3-3.9,3.7-6.7,1.6C330.8,678.3,328.1,675.8,331,671.2z"/>
	<path class="st7" d="M360,706.9c-2.5-3.6,2.5-8.8-4.1-10.7c6.9-5.3,14.6-7.9,21.5-12c1.1-0.7,2.1-0.6,2.9,0.2
		c5.5,5.6,15.8,4.4,18.7,14.4c-8.7,6.1-18.9,11.1-28.6,16.9c-1.9,1.2-3.2,0.2-4.3-1.1C364.1,712.3,362.2,709.9,360,706.9z"/>
	<path class="st9" d="M344.5,653.2c-6.2,4.8-12.1,9.1-17.7,13.8c-3.1,2.6-5,2-6.3-1.4c-2.9-7.4-4-6,2.7-10.5
		c11.2-7.4,22.6-14.5,33.5-22.3c6.1-4.4,11.9-6.4,19.3-2.6C365.6,637.8,355.3,645.3,344.5,653.2z"/>
	<path class="st10" d="M609.9,361.4c11.6,1.6,22.4,3,33.2,4.6c2.5,0.4,4.9,1.1,7.3,1.7c0.3,0.1,0.7,0.8,0.7,1.2
		c0.1,1-0.6,1.5-1.4,1.7c-0.5,0.1-1.1,0-1.7-0.1c-17.4-4.7-35.1-2.4-52.7-2.8c-13.2-0.3-26.3-0.2-39.7,1.4
		c3.2-8.3,5.8-10.1,13.2-10.2C582.4,358.8,595.7,360.6,609.9,361.4z"/>
	<path class="st10" d="M138.1,856.9c11.2-3.2,21.7-6.3,32.7-9.5c-0.2,3.8-2.5,4-4.2,4.8c-14.1,7-28.7,12.7-43.5,18
		c-4.8,1.7-9.8,2.2-14.9,2.2c-6.2-0.1-12.3,0-18.7-0.8c4.3-3.4,9.7-3.8,14.7-5.4c5.6-1.8,11.3-3.2,17-4.8
		C126.6,859.9,132,858.5,138.1,856.9z"/>
	<path class="st9" d="M360.9,673c8.5-5.4,16.5-10.5,24.4-15.6c-2.3,6.4-5.9,11.9-7.1,18.5c-0.3,1.8-2.4,2.3-3.8,3.1
		c-7.6,4.2-15.3,8.2-22.9,12.5c-3.8,2.1-5.7,0.1-7.4-2.7c-1.8-2.9-1.1-4.9,2-6.7C351,679.5,355.6,676.3,360.9,673z"/>
	<path class="st2" d="M172.3,840.2c-15.4,5.3-31,10-46.8,14c-10.6,2.7-21.1,5.8-32.4,8.8c-0.3,0-0.5,0-0.7-0.1
		c-0.3-0.1-0.4-0.3-0.4-0.7c0-0.1,0.1-0.2,0.1-0.3c1.4-3.7-0.4-4.8-3.5-4.6c-2.8,0.2-5.6,0.7-8.4,0.9c-1.1,0.1-2.2-0.5-2.6-1.7
		c-0.5-1.2-0.2-2.3,0.7-3.1c2.1-1.9,4.2-3.9,7.4-3.1c15.6,3.9,30.7,0.3,45.8-2.7c12.7-2.5,25.1-6.2,37.4-9.9
		c2.6-0.8,5.2-1.5,7.8-2.3C177.8,840.1,174.1,839.5,172.3,840.2z"/>
	<path class="st2" d="M230.8,851.4c-10.3,9.7-21.1,17.9-31.8,26.4c-0.7,0.5-1.3,1.2-2,1.5c-13.5,6.7-27.1,13.3-40.6,20
		c-0.9,0.5-2.1,0.9-3.7-1.1c12.1-8.8,25.7-15.1,38.2-23.2s24.8-16.3,37.8-24.6c0.4-0.2,0.7-0.4,1-0.5c-0.1,0.1-0.1,0.2-0.2,0.4
		C230,850.8,230.4,851.1,230.8,851.4z"/>
	<path class="st9" d="M538.9,484.7c-2.1,1.1-3.6,1.8-5.1,2.6c-5.1,2.5-9.2,0-9.4-5.5c-0.1-2.3,1.9-2.5,3.2-3.3
		c13.2-7.5,27.4-11,44.2-11.6c-7,5-11.5,10.7-19.3,12.1C548,479.8,543.8,482.5,538.9,484.7z"/>
	<path class="st11" d="M539.7,490.7c6.9-3,12.9-6.5,20.2-8.1c-5,11.7-15.7,14.7-25.1,19.5C530.4,495.6,530.4,495.6,539.7,490.7z"/>
	<path class="st10" d="M549.4,506c-1.2,2.4-1.2,4.3-1.2,6.3c0,3.8-0.1,3.8-4,7.6c-3.3-3.1-4.6-7.4-6.7-11.4c3.8-4,8.3-6.3,13.5-7.6
		C552.3,503.2,550,503.9,549.4,506z"/>
	<path class="st2" d="M769.8,599.7c-7.9-2.3-14.8-4.5-22.6-1.7c-0.5,0-0.8,0-1-0.2c0,0,0-0.1,0-0.1c-0.3-0.4-0.5-0.6-0.7-0.8
		c1.2-2.3,3.3-3,5.2-4C758.5,588.4,763.6,589.9,769.8,599.7z"/>
	<path class="st11" d="M746.2,597.7c0,0,0,0.1,0,0.1c-0.3-0.1-0.5-0.4-0.8-0.7c0-0.1,0.1-0.1,0.1-0.2
		C745.7,597.1,745.9,597.3,746.2,597.7z"/>
	<path class="st2" d="M759.7,602.8c-3.4,3.4-8,3.8-11.3,6.3c-3.4,2.6-6.9,5.3-11.1,0.6c2.5-3.2,6.6-3.6,10.5-5.7
		C751.8,602.6,755.3,601.4,759.7,602.8z"/>
	<path class="st2" d="M395.5,828.7c-4.6,9.1-8.1,11.1-18.1,11.1c4.8-5,11.3-6.9,16.1-11.8c0.4-0.1,0.7-0.1,1,0c0,0,0,0,0,0
		C394.9,828.3,395.2,828.6,395.5,828.7z"/>
	<path class="st1" d="M395.5,828.6C395.5,828.6,395.5,828.6,395.5,828.6c-0.3,0-0.6-0.2-1-0.6c0,0,0,0,0,0h0
		C394.8,828,395.1,828.2,395.5,828.6z"/>
	<path class="st2" d="M409.9,828.2c-4.6,4.8-9.3,9.1-14.6,13.5c-0.3,0.1-0.6,0.1-0.8,0.1c0,0,0-0.1,0.1-0.1
		c-0.1-0.2-0.3-0.4-0.5-0.5c4.5-5,6.2-12.2,14.3-13.7c0.4,0,0.6-0.1,0.9,0c0,0.1,0,0.2,0,0.2C409.5,827.9,409.7,828.1,409.9,828.2z"
		/>
	<path class="st1" d="M394.6,841.7c0,0,0,0.1-0.1,0.1h0c-0.3,0-0.5-0.1-0.6-0.4c0.1-0.1,0.1-0.1,0.2-0.2
		C394.3,841.3,394.5,841.5,394.6,841.7z"/>
	<path class="st1" d="M410.1,828c-0.1,0.1-0.1,0.2-0.2,0.2c-0.2-0.1-0.3-0.3-0.6-0.5c0-0.1,0-0.2,0-0.2
		C409.6,827.5,409.9,827.6,410.1,828z"/>
	<path class="st2" d="M222.7,845.3c-1.5,4.3-6.1,5.4-9.7,8.2c-0.3-0.1-0.5-0.3-0.7-0.4c0.1,0,0.1-0.1,0.2-0.2
		c-0.4-1.1-0.9-1.5-1.6-1.6C214,848.3,218.2,846.6,222.7,845.3z"/>
	<path class="st2" d="M212.5,852.9c-0.1,0.1-0.2,0.1-0.2,0.2c-0.6-0.4-1-0.9-1.7-1.5c0.1-0.1,0.2-0.2,0.3-0.3
		C211.6,851.4,212.1,851.8,212.5,852.9z"/>
	<path class="st1" d="M364.3,226.5c0.3-0.9,0.8-1.2,1.6-2.1c3,0.7,4.6,3.2,7,5.6c0.1,0.8,0.1,1.1-0.5,1.7
		C368.9,231.2,366.9,228.8,364.3,226.5z"/>
	<path class="st1" d="M272.6,165.1c2.6,1.8,3.7,4.5,3.9,8c-1.9-1.5-3.6-3.6-5.4-6.1C271.3,166.2,271.6,165.9,272.6,165.1z"/>
	<path class="st1" d="M328.8,837.7c-0.1,0-0.1,0-0.2,0c-3.1,0.2-5.6-1.4-8.5-3.6c3.2-1.4,5.4,1,8.3,1.3c0.3,0.4,0.4,0.7,0.4,1
		C328.8,836.8,328.8,837.2,328.8,837.7z"/>
	<path class="st1" d="M338.9,847.8c-0.1,0-0.2,0.1-0.4,0.1c-3.1,0.8-5.8-0.9-8.5-2.6c2,0,4,0,6.7,0.1c0.3,0.2,0.5,0.3,0.7,0.5
		C338.1,846.5,338.5,847,338.9,847.8z"/>
	<path class="st2" d="M87.4,864c-1.4,2.3-4.1,1.7-6.5,2.9c-3.3-0.1-3.4-1.7-1.6-2.8C81.7,862.7,84.6,863,87.4,864z"/>
	<path class="st2" d="M244.2,831.6c-1.1,2.3-2.6,3.6-5.2,3.7c-0.9-3.4,2.7-3.6,4.2-5.8c0.2,0.1,0.3,0.2,0.4,0.3c0,0.1,0,0.1,0,0.2
		C243.7,830.8,243.9,831.3,244.2,831.6z"/>
	<path class="st1" d="M244.3,831.4c0,0.1-0.1,0.1-0.1,0.2c-0.3-0.3-0.5-0.8-0.6-1.6c0-0.1,0-0.2,0-0.2
		C243.9,830.1,244,830.6,244.3,831.4z"/>
	<path class="st2" d="M181.7,843.4c-0.7,2.5-2.6,2.9-4.8,3.5c-0.7,0.1-1.2,0.2-1.7,0.2c0.1-0.1,0.2-0.2,0.2-0.3
		c-0.5,0-0.9-0.1-1.3-0.1C176,844.5,178.6,844,181.7,843.4z"/>
	<path class="st1" d="M175.5,846.8c-0.1,0.1-0.2,0.2-0.2,0.3c-0.4,0-0.7,0-1.2-0.1c0.1-0.1,0.2-0.2,0.2-0.3
		C174.6,846.7,175,846.8,175.5,846.8z"/>
	<path class="st2" d="M235.4,858.9c-0.4,0-0.7,0-1-0.1c0,0,0,0,0,0c-0.4-0.3-0.7-0.6-1-0.6c1.4-2.4,3.4-4.1,6.2-5.1
		C240.1,856.8,237.3,857.2,235.4,858.9z"/>
	<path class="st1" d="M234.4,858.8C234.4,858.8,234.4,858.8,234.4,858.8c-0.3-0.1-0.6-0.3-1-0.6c0,0,0,0,0,0
		C233.7,858.2,234,858.5,234.4,858.8z"/>
	<path class="st1" d="M366.5,443.3c-0.9-0.3-1.3-0.9-2.2-1.7c1.1-2,3.1-2.7,6.4-2.9C369.1,440.5,368,441.8,366.5,443.3z"/>
	<path class="st2" d="M230.2,862.4c-1.3,2.4-3.2,4-6.1,4.9c-0.2-3.3,2.2-4,4.1-5.7c0.5,0,0.8,0,1,0.1c0,0,0,0.1,0,0.1
		C229.6,862.1,229.9,862.3,230.2,862.4z"/>
	<path class="st1" d="M230.2,862.3c0,0,0,0.1,0,0.1c-0.3-0.1-0.6-0.3-1-0.6c0,0,0,0,0-0.1C229.5,861.8,229.8,862,230.2,862.3z"/>
	<path class="st1" d="M394.6,841.7c0,0,0,0.1-0.1,0.1h0c-1.3,2.4-3.5,3.2-6,3.6c0.3-3.2,3-2.7,5-4.2c0.2-0.1,0.4-0.1,0.6,0
		C394.3,841.3,394.5,841.5,394.6,841.7z"/>
	<path class="st2" d="M246.2,850.2c0,0.7-0.2,1.3-0.7,1.5c-1.6,0.7-3.3,3.3-4.8,1.4c-1.5-2,1.5-2.9,3.2-4.4c0.3,0.1,0.6,0.2,0.8,0.3
		c0.4,0.5,0.8,0.8,1.2,0.9C246,850,246.1,850.1,246.2,850.2z"/>
	<path class="st1" d="M245.9,849.9c-0.4-0.1-0.8-0.4-1.2-0.9C245.2,849.2,245.5,849.5,245.9,849.9z"/>
	<path class="st1" d="M251.3,69.9c-0.4,0.6-0.8,0.6-1.7,0.6c-2.2-1.5-2.2-3.3-1.2-6C249.5,66.4,250.4,67.9,251.3,69.9z"/>
	<path class="st2" d="M229.6,841.9c-1.5,2.2-3.1,3.5-5.7,3.7c-0.9-3,1.8-3.4,3.8-4.9c0.4-0.1,0.8-0.1,1,0c0,0.1,0,0.2,0,0.2
		C229.1,841.4,229.3,841.7,229.6,841.9z"/>
	<path class="st1" d="M229.8,841.6c-0.1,0.1-0.1,0.2-0.2,0.3c-0.3-0.2-0.6-0.5-0.9-1c0-0.1,0-0.2,0-0.2
		C229.2,840.8,229.5,841,229.8,841.6z"/>
	<path class="st2" d="M240,844c-0.9,1.3-1.8,2.1-3.1,3.1c-0.4,0-0.6,0.1-0.9,0c0-0.1,0-0.1,0-0.2c-0.4-0.4-0.6-0.6-0.9-0.8
		c0.9-1.3,2-2.1,3.4-2.9c0.4,0,0.6,0,0.9,0c0,0.1,0,0.2-0.1,0.3C239.6,843.7,239.8,843.9,240,844z"/>
	<path class="st1" d="M236.1,846.9c0,0.1,0,0.1,0,0.2c-0.4-0.1-0.7-0.3-1-0.7c0.1-0.1,0.1-0.2,0.2-0.3
		C235.5,846.3,235.7,846.5,236.1,846.9z"/>
	<path class="st1" d="M240.2,843.8c-0.1,0.1-0.1,0.2-0.2,0.2c-0.2-0.1-0.5-0.4-0.6-0.5c0-0.1,0-0.2,0.1-0.3
		C239.8,843.3,240,843.4,240.2,843.8z"/>
	<path class="st2" d="M230.4,842.2c-0.3-0.1-0.6-0.2-0.8-0.3c0.1-0.1,0.1-0.2,0.2-0.3c-0.3-0.5-0.6-0.8-1.1-0.9
		c0.1-0.7,0.5-1.1,0.9-1.4c1.1-0.6,2.5-2.2,3.4-0.4C233.8,840.4,232.1,841.2,230.4,842.2z"/>
	<path class="st1" d="M229.8,841.6c-0.1,0.1-0.1,0.2-0.2,0.3c-0.3-0.2-0.6-0.5-0.9-1c0-0.1,0-0.2,0-0.2
		C229.2,840.8,229.5,841,229.8,841.6z"/>
	<path class="st2" d="M238,836.4c-1.3,1.4-2.1,2.8-3.7,1.9c-0.6-0.4-0.8-0.6-0.3-1.3C235.1,835.4,236.2,833.7,238,836.4z"/>
	<path class="st1" d="M384.5,846.6c-1.2-0.1-2.4-0.1-2-0.8c0.5-0.9,1.8-0.9,2.9-0.4c1,0.5,1.1,1.3,0.2,0.6
		C385.6,846,385.2,846.4,384.5,846.6z"/>
	<path class="st1" d="M744.3,598.5c-0.8,1.6-2,2.2-2.7,1.2c-0.7-0.9,0.9-1.5,1.9-2.4C744.2,597.5,744.4,597.8,744.3,598.5z"/>
	<path class="st2" d="M233.7,849.2c-0.5,1.1-1.2,1.8-2.3,2.5c-0.2-0.1-0.4-0.2-0.6-0.3c0.1-0.1,0.2-0.1,0.2-0.2
		c-0.3-1.1-0.7-1.4-1.4-1.3c0.4-0.6,1-1.2,2-1.8c0.4,0,0.7,0,1,0.1c0,0.1,0,0.1-0.1,0.2C233.1,848.8,233.4,849,233.7,849.2z"/>
	<path class="st2" d="M231.1,851.2c-0.1,0.1-0.2,0.2-0.2,0.2c-0.5-0.3-0.8-0.7-1.3-1.1c0-0.1,0.1-0.2,0.2-0.4
		C230.4,849.8,230.8,850.1,231.1,851.2z"/>
	<path class="st1" d="M233.8,848.9c0,0.1-0.1,0.2-0.1,0.2c-0.3-0.1-0.6-0.4-1.1-0.8c0-0.1,0-0.1,0.1-0.2
		C233,848.3,233.4,848.5,233.8,848.9z"/>
	<path class="st2" d="M92.4,862.9c-1.1,0.9-2.3,1.6-3-0.1c0-0.1,1.1-0.7,2.2-1c0.2,0,0.4,0,0.5,0.1c0,0.1-0.1,0.2-0.1,0.3
		C92,862.6,92.1,862.8,92.4,862.9z"/>
	<path class="st1" d="M92.6,862.8c-0.1,0-0.1,0.1-0.2,0.1c-0.3-0.1-0.4-0.3-0.4-0.7c0-0.1,0.1-0.2,0.1-0.3
		C92.5,862.1,92.7,862.5,92.6,862.8z"/>
	<path class="st2" d="M250.7,835.3c-0.1,0.6-0.7,1.3-1.5,2c-0.4,0.1-0.6,0-0.8,0c-0.1-0.2-0.3-0.4-0.6-0.5c-0.2-0.8-0.1-1.3,0.5-1.8
		c0.4,0,0.6-0.1,0.9-0.1c0,0.1,0,0.3,0,0.4C249.9,835.4,250.3,835.4,250.7,835.3z"/>
	<path class="st1" d="M248.4,837.2c-0.2-0.1-0.3-0.2-0.6-0.5c0,0,0,0,0,0C248,836.9,248.2,837.1,248.4,837.2z"/>
	<path class="st1" d="M250.7,834.9c0,0.1,0,0.3,0,0.4c-0.4,0.1-0.8,0.1-1.5,0c0-0.1,0-0.3,0-0.4C249.6,834.8,250,834.8,250.7,834.9z
		"/>
	<path class="st2" d="M236,847.1c-0.2,0.9-0.8,1.5-1.6,2.2c-0.3,0-0.5,0-0.7-0.1c0-0.1,0.1-0.2,0.1-0.2c-0.4-0.4-0.8-0.6-1.1-0.7
		c0.2-0.9,0.9-1.5,1.9-2.2c0.2,0,0.4,0,0.6,0.1c-0.1,0.1-0.1,0.2-0.2,0.3C235.4,846.8,235.7,847,236,847.1z"/>
	<path class="st1" d="M232.7,848.2c0.4,0.1,0.7,0.3,1.1,0.7c0,0.1-0.1,0.2-0.1,0.2c-0.3-0.1-0.6-0.4-1.1-0.8
		C232.6,848.3,232.6,848.3,232.7,848.2z"/>
	<path class="st1" d="M236.1,846.9c0,0.1,0,0.1,0,0.2c-0.4-0.1-0.7-0.3-1-0.7c0.1-0.1,0.1-0.2,0.2-0.3
		C235.5,846.3,235.7,846.5,236.1,846.9z"/>
	<path class="st2" d="M242.3,841.5c-0.2,1-0.7,1.7-1.7,2.6c-0.2,0.1-0.4,0-0.6-0.1c0.1-0.1,0.1-0.2,0.2-0.2
		c-0.2-0.4-0.4-0.5-0.7-0.6C239.8,842,240.9,841.6,242.3,841.5z"/>
	<path class="st1" d="M240.2,843.8c-0.1,0.1-0.1,0.2-0.2,0.2c-0.2-0.1-0.5-0.4-0.6-0.5c0-0.1,0-0.2,0.1-0.3
		C239.8,843.3,240,843.4,240.2,843.8z"/>
	<path class="st10" d="M175.5,846.8c-0.1,0.1-0.2,0.2-0.2,0.3c-0.8,1.1-1.9,3.3-2.7-0.4c0.7-0.1,1.2,0,1.6,0
		C174.6,846.7,175,846.8,175.5,846.8z"/>
	<path class="st1" d="M222.1,868.4c-1,0-1.1-0.5-0.7-0.7C221.7,867.6,222.1,867.9,222.1,868.4z"/>
	<path class="st1" d="M159.1,50.6c-1.3-1.9-0.3-1.7,1.1-1C160.1,50.3,159.9,50.5,159.1,50.6z"/>
	<path class="st12" d="M599.3,202.6c0.9,0,1.5,0.5,0.6,1.1C599.7,203.7,599.2,203.2,599.3,202.6z"/>
	<path class="st2" d="M243.3,841.7c-0.4,0-0.4,0-0.4,0.1c-0.5-0.7-0.5-1.3,1-1.7C244.3,840.6,244,841.1,243.3,841.7z"/>
	<path class="st2" d="M246.8,849.8c-0.3,0.2-0.6,0.2-0.9,0.1c-0.4-0.1-0.8-0.4-1.2-0.9c0,0,0,0,0,0
		C245.6,847.8,246.4,848,246.8,849.8z"/>
	<path class="st5" d="M124.1,211.1c-0.9-0.7-1.8-1.9,0.8-1.4C125,210.3,124.7,210.5,124.1,211.1z"/>
	<path class="st1" d="M372.7,230.9c0.9,0,1.6,0.3,1.2,1.1c-0.1,0.3-0.8,0.2-1.7,0.1C372.1,231.7,372.2,231.5,372.7,230.9z"/>
	<path class="st2" d="M231.1,862.4c-0.4,0.1-0.7,0.1-0.9,0c0,0,0-0.1,0-0.1c-0.4-0.3-0.7-0.5-1-0.6
		C229.9,860.2,231.1,858.9,231.1,862.4z"/>
	<path class="st1" d="M230.2,862.3c0,0,0,0.1,0,0.1c-0.3-0.1-0.6-0.3-1-0.6c0,0,0,0,0-0.1C229.5,861.8,229.8,862,230.2,862.3z"/>
	<path class="st2" d="M234.4,858.8c-0.7,1.6-1.9,3-1.8-0.6c0.3-0.1,0.6-0.1,0.8,0c0,0,0,0,0,0C233.8,858.5,234.1,858.7,234.4,858.8z
		"/>
	<path class="st1" d="M234.4,858.8C234.4,858.8,234.4,858.8,234.4,858.8c-0.3-0.1-0.6-0.3-1-0.6c0,0,0,0,0,0
		C233.7,858.2,234,858.5,234.4,858.8z"/>
	<path class="st1" d="M190.2,122.8C190.3,122.9,190.2,122.7,190.2,122.8z"/>
	<path class="st11" d="M746.2,597.7c0,0,0,0.1,0,0.1c-0.2,0.6-0.8,0.8-1.8,1.1c-0.1-0.1-0.2-0.1-0.2-0.2c-0.2-0.2-0.2-0.5-0.2-1.1
		c0,0,0,0,0-0.1c0.1-0.4,0.5-0.8,0.9-0.9c0.3,0.1,0.4,0.2,0.6,0.3C745.7,597.1,745.9,597.3,746.2,597.7z"/>
	<path class="st7" d="M158.6,50.8c0.3-0.4,0.6-0.4,1.4-0.6c0.4-0.2,0.8,0,0.9,0.2c-0.1,0.5-0.3,0.8-0.9,1.6
		C159.1,52.2,158.7,51.8,158.6,50.8z"/>
	<path class="st8" d="M364.4,605.6c-0.1-0.3-0.2-0.7-0.3-1.1c0-0.1,0.3-0.3,0.5-0.3c0.6-0.1,0.7,0.3,0.1,1.1
		C364.3,605.5,364.4,605.5,364.4,605.6z"/>
	<path class="st1" d="M122.9,117c-0.9,0.9-1.9,0.4-1.8-0.4C121.2,115.8,122.1,115.7,122.9,117z"/>
	<path class="st1" d="M365.6,466.1c1.7-1.1,1.6-0.3,0.8,0.9C365.8,467,365.6,466.8,365.6,466.1z"/>
	<path class="st7" d="M365.4,465.7c0.4,0,0.3,0.8,0.5,1.2c0.1,0.4,0,0.9-0.2,1c-0.5-0.1-0.8-0.3-1.4-0.8
		C364,466.1,364.4,465.8,365.4,465.7z"/>
	<path class="st1" d="M123.4,117.4c0.5,0.2,1,0.7,1,1c-0.1,0.7-0.7,0.7-1.3-0.1C122.9,117.9,123.2,117.6,123.4,117.4z"/>
	<path class="st10" d="M316.9,821.6c-0.5-0.2-1.2-0.5-1.1-0.8c0.1-0.6,0.7-0.7,1.4,0C317.3,821.2,317.1,821.5,316.9,821.6z"/>
	<path class="st1" d="M276.2,173.7h0.8c0,0-0.2,0-0.5,0C276.3,173.7,276.3,173.7,276.2,173.7z"/>
	<path class="st1" d="M396.2,828.6c-0.3,0.1-0.5,0.1-0.7,0.1c-0.3-0.1-0.6-0.3-1-0.7c0,0,0,0,0,0h0
		C395.2,826.6,396.4,825.1,396.2,828.6z"/>
	<path class="st1" d="M411.7,826.7c0,0.2,0,0.3-0.1,0.5c-0.1,0.5-0.4,0.9-1,1.3c-0.3,0-0.5-0.1-0.7-0.3c-0.2-0.1-0.3-0.3-0.6-0.5
		c0-0.1,0-0.2,0-0.2c0-0.4,0.2-0.6,0.8-1c0.4,0,0.7-0.1,0.9,0C411.2,826.5,411.4,826.5,411.7,826.7z"/>
	<path class="st1" d="M190.3,122.9l0.3,0.3c0,0-0.1-0.4-0.1-0.3C190.4,123,190.4,122.9,190.3,122.9z"/>
	<path class="st12" d="M601.7,142.9c1.7,1.7,1.2,2.6-1.6,1.7C600.1,143.9,600.5,143.5,601.7,142.9z"/>
	<path class="st1" d="M318,832.5C318.1,832.5,317.9,832.4,318,832.5z"/>
	<path class="st2" d="M248.4,837.3c-0.1,0.7-0.5,1.1-1.7,1.1c-0.4-0.7-0.2-1.2,0.5-1.8c0.2,0,0.4,0,0.6,0.2c0,0,0,0,0,0
		C248,837,248.2,837.2,248.4,837.3C248.4,837.3,248.4,837.3,248.4,837.3z"/>
	<path class="st1" d="M248.4,837.2c-0.2-0.1-0.3-0.2-0.6-0.5c0,0,0,0,0,0C248,836.9,248.2,837.1,248.4,837.2z"/>
	<path class="st2" d="M246.4,838.6c-0.2,0.6-0.6,1-1.4,1.5c-0.5,0-0.6-0.1-0.7-0.2c0.2-0.6,0.5-1.1,1.2-1.6
		C246,838.2,246.3,838.5,246.4,838.6z"/>
	<path class="st1" d="M184.3,842.5c0.1-0.1,0.2,0.2,0.2,0.2S184.2,842.6,184.3,842.5z"/>
	<path class="st0" d="M715.3,599c-2.1,1.1-3.8,1.4-5.5,1.1c-3.9-0.6-4-1.3-1.2-4.9c1.7-2.2,0.8-4.8-2.3-5.6
		c-3.4-0.9-6.7-0.1-9.8,1.4c-4.3,2.1-8.6,4.2-12.9,6.3c-1.2,0.6-2.7,1.3-3.7-0.2c-1.2-1.8-0.3-3.4,1.2-4.3
		c10.6-6.3,21.1-13.1,34.2-12.7c4.6,0.2,8.9,1.4,11.9,5.3c1.4,1.8,2.9,4,0.5,5.9c-2.1,1.7-3.5-0.1-4.8-1.6c-0.7-0.8-1.4-1.7-3.3-1.2
		C719,592,719.8,596.4,715.3,599z"/>
</g>
</svg>
