<?xml version="1.0" encoding="utf-8"?>
<!-- Generator: Adobe Illustrator 27.6.1, SVG Export Plug-In . SVG Version: 6.00 Build 0)  -->
<svg version="1.1" id="Layer_1" xmlns="http://www.w3.org/2000/svg" xmlns:xlink="http://www.w3.org/1999/xlink" x="0px" y="0px"
	 viewBox="0 0 507.7 496.6" style="enable-background:new 0 0 507.7 496.6;" xml:space="preserve">
<style type="text/css">
	.st0{fill:#161B18;}
	.st1{fill:#FBFBFB;}
	.st2{fill:#181C1A;}
	.st3{fill:#171C19;}
	.st4{fill:#1A1E1B;}
	.st5{fill:#151A17;}
	.st6{fill:#FCFCFC;}
	.st7{fill:#FDFDFD;}
	.st8{fill:#F9FAFA;}
	.st9{fill:#F9F9F9;}
	.st10{fill:#F5F6F5;}
	.st11{fill:#F4F4F4;}
	.st12{fill:#F1F2F2;}
	.st13{fill:#F0F1F0;}
	.st14{fill:#F3F3F3;}
	.st15{fill:#EDEEED;}
	.st16{fill:#E7E9E8;}
	.st17{fill:#DFE0DF;}
	.st18{fill:#A4A9A7;}
	.st19{fill:#111713;}
	.st20{fill:#1D201E;}
</style>
<path class="st0" d="M22.7,204.2c23.7-101,85.7-163.8,185.9-188.3c30.4-7.4,61.4-6.8,92.3-1.3C399.6,32,478.6,113.5,493,212.9
	C511.2,338,432.4,453.5,309.3,482C182.8,511.3,54.6,431.6,24.8,305.2C16.9,271.8,16.2,238.3,22.7,204.2z"/>
<path class="st1" d="M191.8,469.5c-85.1-27.7-138.9-84.6-159.1-171.3C7.2,188.3,70.5,73.7,176.6,34.5c39.8-14.7,80.5-18.7,122.3-11
	c92.6,17.1,164.9,88.2,183.5,180.3c25,124.4-57.6,247.2-182,270.7C263.9,481.4,227.9,480,191.8,469.5z"/>
<path class="st0" d="M255,425.8c-2.2-3.1-4.3-5.9-6.4-8.7c-0.7-1-1.3-1.5-2.7-1.6c-35.5-2.7-66.8-15.8-94.1-38.4
	C119.2,350,100,315.1,96,272.9c-4.8-50.8,12.1-94.7,46.1-132.2c17.3-19.1,37.7-34.4,61.4-44.5c9.4-4,16.3-11.4,25.2-15.5
	c5.6-2.6,6.8-5.2,4.9-11c-2.6-8.2-2.2-8.3-10.8-6.3c-7.4,1.7-7.4,1.7-5.4,8.9c0.5,1.6,1.1,3.2,1.4,4.8c0.4,2.1,0.9,4.6-2,5.3
	c-2.8,0.7-3.9-1.3-4.5-3.5c-2.8-9.2-5.5-18.5-8.2-27.7c-0.1-0.3-0.1-0.7-0.2-1c-0.6-2.8-2.9-6.4,1.4-7.5c4.2-1.1,4.3,3.2,5.2,5.9
	c3.1,10,3.1,10.1,13.2,7.7c6.2-1.5,6.2-1.5,4.6-8c-0.5-2.1-1.1-4.2-1.5-6.3c-0.5-2.5-1.1-5.4,2.4-6.1c3.1-0.6,3.7,2.1,4.3,4.5
	c2.5,10.3,5,20.7,7.5,31c0.3,1.2-0.2,3.9,2.1,2.8c2.3-1.1,6.1,0.7,6.8-3.3c2-11.7,6.6-22.6,9.8-33.9c0.8-2.8,3-4.1,5.5-4.4
	c3.1-0.4,3.7,2.3,4.6,4.4c4.1,10.1,9.2,20,11.9,30.5c1.7,6.5,5.3,8.1,10.3,10.1c8.6,3.5,15.8,9.1,22.3,15.7c1.7,1.7,3.6,2.7,5.8,3.7
	c55.2,23,94.5,61.2,108.8,120.3c14.5,59.9-3.2,111.3-48.5,152.7c-27.5,25.1-60.7,38.5-97.5,43.2c-1,0.1-2.3,0.5-2.9,0
	c-4.1-3-4.9-0.1-6,3c-1.5,3.9-3.7,7.4-6.4,10.6c-3,3.5-6.3,4.1-10.2,0.7C256.2,427,255.6,426.6,255,425.8z"/>
<path class="st2" d="M91.8,316.4c1.9-1.7,3.9-2.5,5.5-0.5c1.7,2.1,0.6,4-1,5.8c-5.9,6.7-11.7,13.5-18.4,21.3
	c9.1-1.5,16.9-2.7,24.7-3.9c1.8-0.3,3.6-0.5,5.4-0.7c1.9-0.2,3.8-0.2,4.6,2c0.7,2-0.3,3.4-1.8,4.8c-5.7,5.5-11.3,11.1-17.7,17.5
	c7.1,0.1,12.8-2.3,18.7-3.3c1.6-0.3,3.2-0.7,4.9-1.1c2.2-0.5,4.2-0.2,4.8,2.2c0.7,2.7-1.2,3.9-3.6,4.4c-4.7,1.1-9.4,2.2-14.1,3.3
	c-5.8,1.4-11.7,2.7-17.5,4.1c-2.1,0.5-4.1,0.8-5.4-1.2c-1.5-2.1-0.5-4.2,1.1-5.9c5.5-6,11-12,16.7-18.2c-8.6,1.2-16.8,2.4-25,3.5
	c-2.4,0.3-5.2,1.1-6.7-1.8c-1.4-2.6,0.7-4.3,2.2-6C76.7,333.8,84.2,325.2,91.8,316.4z"/>
<path class="st3" d="M161.5,398.9c-1.8,0.4-2.2,2.3-3.1,3.6c-4.8,7-9.5,14.1-14.3,21.1c-0.9,1.4-1.7,2.8-3.2,3.7
	c-1.5,0.9-2.9,1.8-4.6,0.8c-1.6-0.9-1.7-2.4-1.6-3.9c0.5-10.6,1.1-21.3,1.6-31.9c0.1-1.5,0.3-3,0.4-4.5c-2.4-0.1-3.1,2-4.3,3.2
	c-5.5,5.8-10.9,11.7-16.4,17.5c-1.6,1.7-3.5,3.2-5.6,1.3c-2.4-2.1-1.1-4.2,0.7-6c7.7-8.3,15.5-16.6,23.1-24.9
	c2.1-2.3,4.4-2.9,7.2-1.7c2.8,1.2,2.4,3.7,2.2,6c-0.6,9.8-1.2,19.5-0.8,29.8c3.1-4.5,6.3-9.1,9.4-13.6c0.9-1.4,1.8-2.8,2.8-4.1
	c1.5-2,2.8-4.8,5.9-3.1C163.9,393.8,162.1,396.4,161.5,398.9z"/>
<path class="st3" d="M288.4,448c-1.1-5.3-2-10.2-3.1-15.1c-0.6-2.6-1.7-5.5,1.4-7.1c3-1.5,5.3,0.3,7.4,2.4
	c4.8,4.6,9.7,9.1,14.6,13.6c1.1,1,1.9,2.4,4,2.6c-0.7-6.5-3-12.5-4.3-18.8c-0.3-1.3-0.7-2.6-0.8-3.9c-0.1-1.7,0.6-2.9,2.4-3.3
	c1.6-0.3,3.1,0.2,3.7,1.8c0.7,1.7,1.2,3.4,1.7,5.2c2.3,8.9,4.5,17.7,6.7,26.6c0.6,2.5,2,5.5-1,7.2c-2.9,1.6-4.9-1-6.8-2.7
	c-6.7-6.2-13.4-12.4-21.2-19.7c1.6,7.8,2.9,14.1,4,20.5c0.5,2.9,2.8,7.1-1.5,8.1c-5,1.3-4.3-3.8-5.1-6.7
	C289.8,455.2,289.2,451.8,288.4,448z"/>
<path class="st3" d="M254.5,425.6c1.2-0.1,2,0.1,2.3,1.4c-1.1,12.1-2.1,23.8-3.3,35.6c-0.2,1.8-0.7,3.7-3,4.1
	c-2.5,0.5-3.4-1.3-4.4-3.1c-4.4-8.3-9-16.6-14-25.9c-2.4,7.6-2.6,14.7-4.2,21.5c-0.7,2.9,0.3,8.1-4.6,7.2c-4.7-0.8-2.6-5.4-2-8.4
	c1.7-9.5,2.7-19.1,5.4-28.4c0.6-2.2,0.9-4.8,3.9-5.1c2.9-0.4,3.3,2.2,4.3,4c4,7.3,7.9,14.5,12.9,21.7c0.7-6.5,1.6-12.9,2.2-19.4
	C250.2,427.9,250.8,425.8,254.5,425.6z"/>
<path class="st2" d="M336.4,80.3c-9,5.2-17.4,4.6-25.7-0.6c-1.3-0.8-2.3-1.8-3.9-2.2c-2.7-0.7-3.1-2.7-2.3-5.1
	c3.3-9.4,6.6-18.8,9.9-28.2c0.5-1.5,1.4-2.5,3.2-2.8c10.4-1.6,23.5,6.9,26.3,17.4C346.1,67.4,343.8,74.5,336.4,80.3z"/>
<path class="st2" d="M454.9,332.4c1.3,0.8,2.3,1.5,3.3,2c2.1,1.2,3.3,3,2.5,5.4c-0.7,2.2-2.4,2.9-4.6,3.1c-4.6,0.4-9.2,1-13.9,1.4
	c-4.5,0.5-9.1,0.9-14.9,1.4c6.6,4.2,12.2,7.7,17.7,11.3c2.2,1.4,5.2,2.9,3,6.1c-1.9,2.9-4.4,1.1-6.5-0.3
	c-7.7-4.8-15.5-9.7-23.2-14.5c-2.3-1.4-4.1-3.1-3.4-6c0.8-2.8,3.4-2.7,5.7-3c8.9-0.9,17.7-1.7,27.8-2.7c-7.1-4.2-13-7.8-19-11.4
	c-2.2-1.3-4.1-3-2.4-5.6c1.6-2.5,4.1-1.5,6.2-0.3C440.3,323.7,447.5,327.9,454.9,332.4z"/>
<path class="st2" d="M383.6,121.5c-4.3-1.2-3.6-3.8-2-6.2c2.1-3.2,4.3-6.3,6.7-9.3c1.3-1.7,1.2-2.7-0.6-3.9
	c-3.3-2.2-6.6-4.6-9.6-7.1c-1.9-1.6-2.8-0.7-3.8,0.9c-2.1,3.2-4.4,6.2-6.5,9.4c-1.3,2.1-2.8,4.3-5.4,2.8c-3-1.7-1.8-4.4-0.4-6.5
	c2.7-4.2,5.7-8.2,8.5-12.3c3.2-4.7,6.2-9.4,9.3-14.1c1.2-1.9,2.8-3.7,5.3-2.3c2.8,1.6,1.7,3.8,0.6,6.1c-1.6,3.2-6.4,6.6-4.8,9
	c2.6,3.9,7.6,6.2,11.7,9.1c1.8,1.3,2.3-0.4,3-1.4c1.9-2.5,3.6-5.2,5.6-7.7c1.1-1.4,2.7-2.1,4.4-1.1c1.9,1.1,2.2,3.2,1.1,4.8
	c-6.9,10-13.6,20-21.3,29.4C385.1,121.4,384.5,121.4,383.6,121.5z"/>
<path class="st3" d="M161.4,103c-6.8,6.1-14.6,7.5-21.9,4c-7.7-3.7-12.4-11.5-11.9-19.7c0.5-7.6,5.5-13.9,12.7-16.3
	c7.9-2.6,16.9,0.5,22,7.6C167.6,85.8,167.3,95.1,161.4,103z"/>
<path class="st3" d="M352.2,431.7c-5.3,0.3-8.9,3.9-13.6,5.2c-1.5,0.4-1,1.9-1,3c0,3,0.2,6,0.2,9c0,2.1-0.8,3.6-3,3.8
	c-2.6,0.3-3.6-1.4-3.8-3.6c-0.2-1.8-0.1-3.7-0.2-5.5c-0.3-10-0.6-20-1.1-29.9c-0.1-2.7,0.4-5,2.9-6.3c2.7-1.4,4.3,0.6,6,2.2
	c8.4,7.8,16.8,15.7,25.1,23.5c1.8,1.7,4.3,3.6,2,6.2c-2.6,2.9-4.8,0.5-6.7-1.3C356.9,436,354.7,433.9,352.2,431.7z"/>
<path class="st3" d="M403.8,386.5c-4.4-4.4-7.1-9.2-7.2-15.2c-0.2-10.4,6.6-16.9,16.9-16c10.6,0.9,20.2,12.4,19.2,23
	c-1,11.7-12.8,17.6-23.8,11.8C407.2,389.2,405.7,387.9,403.8,386.5z"/>
<path class="st4" d="M192.5,424.2c1.3-3.1,1.3-7.8,5.7-6.5c4.7,1.3,1.8,5.2,1,7.9c-1.5,5.4-3.3,10.8-4.8,16.2
	c-0.5,1.7-0.5,3.6-0.5,5.4c0,2.8,1.3,4.9,4,5.7c2.8,0.8,5.2,0,7-2.4c4.5-6,6.4-13.1,8.9-20c0.4-1.1,0.6-2.2,1-3.3
	c0.8-2.4,1.9-4.6,4.9-3.7c2.7,0.9,2.4,3.3,1.7,5.4c-2.7,8.4-4.8,17-10,24.3c-4.5,6.3-10.6,8.4-16.8,5.9c-5.4-2.2-8.6-8.9-7.5-16
	C188.1,436.9,190.7,430.9,192.5,424.2z"/>
<path class="st4" d="M373.1,64.2c2.3,1.4,3.4,2.9,1.9,5.1c-1.3,1.9-3.2,1.6-5,0.9c-3.6-1.3-7.2-2.6-10.7-4.1c-5.5-2.4-4.1,3.1-5.7,5
	c-2.1,2.5,0,3.4,2.1,4.1c2,0.7,4,1.5,6,2.4c2,0.9,3.6,2.2,2.6,4.6c-1.1,2.6-3.2,2.5-5.4,1.6c-2-0.8-4.1-1.4-6-2.4
	c-2.3-1.1-3.5-0.8-4.9,1.8c-2.2,4-1.6,6,2.8,7.3c2.2,0.6,4.3,1.9,6.3,2.9c1.9,0.9,2.6,2.6,1.9,4.6c-0.7,2-2.6,2.3-4.2,1.6
	c-5.1-2.1-10.1-4.3-15-6.7c-2.1-1-2.2-3.1-1.3-5.2c4.1-9.1,8.2-18.2,12.3-27.2c1.4-3,3.7-3.5,6.6-2.3C362.5,60,367.6,62,373.1,64.2z
	"/>
<path class="st5" d="M91.5,121c-2.6-4.6-0.5-8.5,4.5-8.6c5.2-0.1,10.3-0.2,15.5,0.1c3.1,0.2,3.8-1,3.3-3.7
	c-0.8-4.2-1.4-8.5-2.5-12.7c-0.9-3.5-0.4-6.3,3.2-7.1c3.9-0.9,4.5,2.7,5,5.4c0.9,5.4,1.9,10.8,2.2,16.3c0.2,3.3,1.3,5.6,4,7.4
	c1.9,1.3,3.6,3,5.1,4.7c1.5,1.6,1.8,3.6,0.1,5.4c-1.6,1.7-3.4,1.9-5.4,0.6c-0.1-0.1-0.3-0.2-0.4-0.3c-9.2-10.4-20.9-8.8-32.7-7
	C92.9,121.5,92.4,121.3,91.5,121z"/>
<path class="st3" d="M407.8,142c-3.8-3.3-7.3-6.4-10.8-9.5c-2.8-2.4-3.2-5-0.8-7.8c6.5-7.6,13-15.2,19.5-22.7
	c2.1-2.4,4.6-2.6,7.1-0.7c3,2.4,5.9,4.9,8.7,7.5c1.5,1.4,2,3.2,0.6,4.9c-1.4,1.7-3.3,1.4-5,0.3c-1.1-0.7-2-1.7-3-2.6
	c-4.4-3.9-5-3.7-8.5,1.3c-1,1.5-0.9,2.3,0.3,3.3c1.3,1.1,2.5,2.2,3.8,3.3c1.9,1.6,2.9,3.5,1.2,5.6c-2,2.4-4.1,1.4-6-0.4
	c-0.7-0.7-1.6-1.2-2.2-2c-2.2-2.8-3.7-2-5.7,0.4c-4.4,5.2-4.6,5.1,0.5,9.6c1.1,1,2.2,2,3.5,2.8c2.1,1.2,3.5,2.8,2.6,5.2
	C412.5,143.2,410.4,143.3,407.8,142z"/>
<path class="st3" d="M178,51.1c4.3-1.2,8.2-1.4,12.1,0.3c2.3,0.9,3.8,2.3,3,4.9c-0.9,2.8-3,2.5-5.3,1.8c-7.1-2.3-11.6,0.6-11.6,7.8
	c0,6.7,2.8,12.3,8.7,15.9c5.5,3.3,10.6,0.9,11.9-5.5c0.2-1,0.2-2,0.3-3c0.3-2.2,1.3-3.9,3.8-3.6c2.1,0.2,2.8,1.9,3,3.9
	c1,10.3-8.1,18.2-18.3,15.9c-12.8-2.9-20.6-22.4-13.4-33.3C173.5,54,175.3,52.4,178,51.1z"/>
<path class="st2" d="M377.5,420.7c1.2,1.8,2.3,3.3,3.3,4.8c1.2,2,1.9,4.2-0.5,5.6c-2.2,1.3-4.1,0.2-5.5-1.9
	c-5-7.5-10.2-14.8-14.9-22.4c-1.9-3-3.4-3.4-6.1-1.3c-1.8,1.4-3.9,2.6-5.9,3.6c-1.7,0.8-3.7,1.1-4.9-0.9c-1.1-1.8-0.6-3.7,1.2-4.8
	c8.3-5.2,16.6-10.3,25-15.3c1.7-1,3.6-0.7,4.7,1.3c0.9,1.7,0.3,3.2-1.2,4.4c-0.8,0.6-1.7,1.1-2.5,1.6c-6.8,4.3-6.8,4.3-2.2,11.2
	C371.2,411.4,374.3,415.9,377.5,420.7z"/>
<path class="st2" d="M161.5,399.5c0.3-0.3,0.1-0.2,0.1-0.1c2.1-2.2,4.2-1.2,6.3,0c6.5,4,13,7.9,19.6,11.9c2.1,1.3,4.1,2.9,2.5,5.6
	c-1.7,2.8-4,1.5-6.1,0.3c-0.6-0.3-1.2-0.6-1.7-1c-3.3-3-4.9-1.6-6.7,1.9c-3.6,7.1-7.7,14-11.5,20.9c-1.3,2.4-2.8,4.7-5.7,3
	c-2.8-1.6-1.7-4.2-0.4-6.5c4.1-7.2,7.9-14.7,12.2-21.7c2.1-3.4,1-4.6-1.9-6.4C165.3,405.6,160.4,405.2,161.5,399.5z"/>
<path class="st2" d="M109.2,380.8c5.8-4.5,11.4-8.7,16.9-13c2.1-1.6,4.4-2.3,6.1,0.1c1.4,2,0.9,4-1.3,5.6
	c-9.1,6.7-18.2,13.4-27.3,20.1c-2.1,1.5-4.4,3.3-6.5,0.7c-2.2-2.7,0.3-4.5,2.3-6.1C102.5,385.9,105.7,383.5,109.2,380.8z"/>
<path class="st2" d="M398.9,400.3c1.8,2.2,3.5,4.1,5,6c1.5,1.9,2.2,4,0,5.7c-1.9,1.5-3.8,0.6-5.2-1.1c-6.9-8.3-13.9-16.6-20.8-24.9
	c-1.4-1.7-1.9-3.7,0.1-5.3c2.2-1.7,4.1-0.5,5.6,1.3C388.7,388,393.7,394,398.9,400.3z"/>
<path class="st6" d="M284.7,278.2c5.7,0.7,8-0.6,7.8-5.8c-0.8-18.6-3.9-36.3-21.3-47.5c-2.3-1.5-3.8-3.6-4.7-6.2
	c-0.8-2,0.1-3.2,0.9-5.1c3-6.5,8.8-6.8,14.4-8.3c11.1-2.8,20.7-8.6,29.7-16.7c0.5,7.3-0.6,13.4-4.3,19.3
	c-9.1,14.4-12.4,30.7-14.2,47.3c-0.3,3.3,0.4,6.2,5,6.3c3.8,0.1,1.6,3,1.2,4.4c-2.7,9.3-4.4,18.8-4.5,28.5
	c-0.1,5.9,0.8,11.1,7.9,12.4c2,0.4,1.8,2.1,1.9,3.6c0.3,4.1-1.3,7.9-2.1,11.7c-0.9,4.5-0.7,8.6,2.2,12.3c1.6,2.1,1.4,4.1-0.3,6.3
	c-6.9,9.2-7.4,19.3-4.1,29.8c1.3,4.3,2.6,8.6,3.5,13c0.8,3.9,3.2,6.9,7.3,8c4.7,1.3,7.8-0.5,10.3-4.6c4.9-8,9.7-16.2,12.8-25.4
	c0.6,0.5,1.1,0.6,1.3,1c1,2.2,2.2,4.3,5,4c3-0.3,4-2.7,4.9-5.1c2.9-8.2,5.3-16.5,7-24.9c2.6-12.9,4.7-25.9,4.3-39.1
	c-0.1-1.6-0.1-3.5,0.6-4.9c4.7-9.2,2.8-18.1-1-26.9c-1.7-4-3.8-7.7-5.8-11.6c-0.8-1.6-2.3-3-1.4-5.3c3.2,2.2,6.5,4.3,10.3,1.7
	c3.7-2.6,3.9-6.6,3.7-10.8c-0.8-17-10.2-29.1-22.2-39.8c-3.8-3.4-7.6-7-11.8-10.1c-4-3-5.5-7.4-7.2-11.7c-0.5-1.4-0.1-2.5,0.6-3.8
	c11.8-20.7,12.7-41.9,3.3-63.7c-0.1-0.2,0.1-0.6,0.2-1.3c11.9,5.1,22.7,11.7,32.9,19.4c32.7,24.8,55.1,56.6,62.6,97.2
	c10.6,57.8-8.8,105.2-53.6,142.3c-25,20.7-54.4,31.6-86.4,36c-3.3,0.5-3.9-0.2-3.2-3.5c1.7-8.5,2.5-17.1,0.2-26.1
	c2.4-0.5,5.2,0.9,6.9-1.5c1.6-2.3,1.7-5,1.6-7.7c-0.1-5.3,0.3-10.6-0.6-16c-0.9-5.2-1.6-10.5-2.5-16.3c3,0.7,6.2,2,8.7-0.7
	c2.8-3,3.4-6.8,3.4-10.7c-0.1-15-2-29.6-12.2-42.1C283.5,279.1,283.7,278.5,284.7,278.2z"/>
<path class="st7" d="M172.3,249.7c-3.8,12.1-7.2,24.1-8,36.7c-0.3,5.2-0.1,10.3,0.4,15.4c1.2,13,1.5,26.2,5.1,38.9
	c0.9,3.2,2.3,6.2,4,9.1c1.5,2.6,3.8,3.9,6.2,2.6c3.2-1.6,3.2,0.4,3.4,2.3c0.7,6.8,2.3,13.5,4.5,19.9c2.5,7.2,6.4,13.5,12.7,18.6
	c0.5,0.7,0.7,1.1,0.4,2c-32.7-12.3-58.8-33-76-63.3c-32.5-57.1-26.7-113,8.9-166.6c16.9-25.5,40.1-44.3,68.3-58.8
	c-2.9,7.1-5.6,13.2-6.7,19.9c-2.7,15.4-1.2,30.2,6.2,44.1c2.9,5.4,3,9.9-0.2,15.3c-4.1,7-9,12.5-15.6,17.6
	c-11.2,8.7-21.2,19-23.9,33.9c-0.4,2.3-0.6,4.7-0.4,7c0.5,6.3,3.1,7.7,9.3,5C171.7,249.2,171.9,249.3,172.3,249.7z"/>
<path class="st8" d="M260.3,190.5c-3.9,0.9-6.4,3.1-7.6,6.4c-1,2.5-2.3,3.2-4.9,2.4c-9.6-2.7-18.2-7.1-25.8-13.6c-1.9-1.6-2.3-3-1-5
	c0.9-1.5,1-3.1,1.1-4.8c0.1-5.6-3.2-8.4-8.3-5.9c-3.8,1.9-4.5,0.1-5.9-2.4c-11.8-22-8.2-49.5,9.2-68.6c23.3-25.7,62.9-27.7,88.3-4.5
	c20.6,18.9,26.1,47.7,13.8,72.4c-1.2,2.5-2,3.4-5,1.9c-3.9-2-8.4-2.8-11.8,1.4c-2.6,3.2-2.1,7.6,1.9,12.1c1.5,1.7,1.4,2.5-0.2,3.8
	c-8.5,7.3-18.5,11.7-29.4,14c-1.6,0.3-2.2-0.1-2.8-1.8C269.3,191,268.1,190.3,260.3,190.5z"/>
<path class="st9" d="M207.6,397.7c2.5-0.6,3.3-2.3,4.2-4.2c7.9-15.9,8.3-32.6,4.9-49.6c-0.7-3.2-0.4-4.2,3.1-4.4
	c5.4-0.4,7.8-3.8,8.2-10.1c0.5-10.8-2.6-20.7-7.2-30.2c-1.1-2.3-2-3.5,1.5-4.9c5.8-2.3,8.4-11.6,6.2-20.4c-1.1-4.2-2.4-8.3-4-12.3
	c-1.6-4-3.8-7.7-5.8-11.6c11.2-4.6,13.3-9.9,9-21.6c-2.6-7.1-5.6-13.8-11.6-18.9c-2.7-2.3-3.7-5.4-3.6-8.9c0.1-2.8,0.2-5.7,0.1-8.5
	c0-1.3,0-2.2,1.2-2.9c1.4-0.8,2.2,0.2,3,1c9.1,8.2,19.7,13.4,31.6,16.2c3.5,0.8,4.4,3.9,4.6,7c0.5,9.2-4,16.2-10.3,22.4
	c-5.3,5.3-8.7,11.7-11.6,18.5c-0.5,1.2-1,2.5-1.2,3.8c-0.4,3.2-1.6,6.8,1.5,9.3c3.3,2.7,6.2,0.5,9.5-1.2c0.4-0.1,0.8,0,0.8,0.2
	c-4.8,12.3-7.9,24.8-9.4,37.7c-1.7,15-2.1,30.1-1.3,45.2c0.3,5.8,0.2,11.6,0.8,17.4c0.8,7.5,3.3,9.7,9.9,9.4
	c0,9.4-1.1,18.9,0.7,28.3c0.7,3.5-2.4,1.9-3.6,1.7c-10.3-1.7-20.5-4-30.8-7.6C207.7,398.2,207.6,398.1,207.6,397.7z"/>
<path class="st10" d="M349.8,240.6c-2.4-2.6-4.5-4.9-6.6-7.3c-1.5-1.6-3.3-2.5-5.3-1.4c-2.2,1.3-2.7,3.5-1.6,5.7
	c3.4,7,4.8,14.7,9.1,21.4c3.9,6,6.7,12.6,7.9,19.8c0.4,2.4,0.7,4.7-0.2,6.9c-2.7,6.5-3.9,13.8-10.6,18.1c-2.9,1.8-5.7,3.3-9.6,4
	c1.5-9.2,1.1-18.1,1.2-27.9c3.4,4.7,4.2,9.6,6.7,13.6c0.9,1.5,1.5,4.5,3.9,3.6c2.1-0.8,1.5-3.6,1.1-5.4c-1.2-6.6-4.1-12.7-7.7-18.3
	c-3.7-5.7-4.6-11.9-5.2-18.4c-1.3-14.5-3.7-28.9-6.7-43.5c3.8,0.4,5.9,3.5,8.4,5.5c2.6,2.1,5.1,4.3,8.1,5.7c0.9,0.4,1.8,1.3,2.6,0.2
	c0.7-0.9,0.3-1.8-0.2-2.8c-1.2-2.6-2.9-4.9-5.1-6.7c-3.8-3.2-7.5-6.7-11.6-9.4c-3.6-2.3-4.8-5.2-4.5-9.4
	c7.8,6.5,15.6,12.7,22.1,20.4c6,7.1,9.3,15.3,10.4,24.4c0.2,1.6,0.8,3.7-0.8,4.6c-1.5,0.9-2.5-1.1-3.8-1.7
	C351.3,241.9,350.7,241.3,349.8,240.6z"/>
<path class="st11" d="M264.3,271.4c3.9,4.7,9.3,7.3,13.1,11.8c10.1,11.9,12.2,25.8,11.6,40.6c-0.2,4.1-2,3.4-4.4,1.6
	c-2.5-1.8-3.8-4.6-5.7-6.9c-1.7-2-3.5-4.7-6.6-3.1c-3,1.5-1.6,4.4-0.8,6.7c1.2,3.4,2.6,6.8,4.2,10.1c1,2.2,0.5,3.2-1.6,4.1
	c-9.2,4.1-11.2,2.9-11.1-6.9c0-12.1,0-24.2,0-36.9c4.1,2,6.4,5.1,9.1,7.7c2.7,2.7,5.4,5.4,8.6,7.5c1,0.7,2.1,1.2,3.2,0.2
	c0.9-0.8,0.1-1.9-0.1-2.8c-1-3.1-3-5.5-5.3-7.7c-2.6-2.5-4.9-5.9-8-7.4c-7.1-3.4-8.6-8.8-7.4-16.2
	C263.4,272.7,263.2,271.8,264.3,271.4z"/>
<path class="st10" d="M246.4,315c3.4-7.8,5.1-15.8,10.3-23c0,7.3,0,14.7,0,22c0,0.7-0.3,1.2-1.1,1.4c-2.9,0.5-3.3,2.9-4,5.2
	c-0.5,1.7-1.6,3.5,0,5.1c2.1,2.1,2.9-1.4,4.9-1.1c0.7,4.4-0.2,8.7-0.4,13.1c-0.1,1.7-0.8,2.4-2.4,2.6c-0.7,0.1-1.3,0.1-2,0.1
	c-12.1,0.2-14-1.5-13.8-13.3c0.3-18.2,2.2-36.2,9-53.3c2-4.9,4.8-9.3,9.3-14.1c0,6.9,0,12.7,0,18.4c0,1.1-0.7,1.7-1.3,2.6
	c-6.5,9.2-10.2,19.7-12.9,30.6c-0.2,1-0.3,2-0.2,3c0.1,1.4-0.6,3.5,1,4C244.8,318.8,245.1,316.4,246.4,315z"/>
<path class="st12" d="M255.7,394.2c1.1,8.3,2.1,16,3.3,25.2c-7.3-8-10.7-16.2-11-25.6c-0.3-9.8,1.3-19.5,2.4-29.3c0.1-1,0.3-2,0.4-3
	c0.2-2-0.3-3.7-2.4-4.4c-2.1-0.7-3.5,0.4-4.5,2.1c-1.4,2.4-2.8,4.8-4.7,8.2c-1.1-7.4-1.4-13.8-1.3-20.1c0-2.5,1.5-2.2,3-1.8
	c3.4,0.9,6.9,0.9,10.4,1.1c-1.5,8.1-0.9,9.3,4.3,7.5C254.7,367.5,255.2,380.6,255.7,394.2z"/>
<path class="st10" d="M326.1,255c2,16.8,1.8,33.2,0.4,49.6c-0.2,2.8-1.1,4.6-4.5,4.1c-2.1-0.3-4.3,0.1-6.5,0.2
	c-1.4,0.1-3.4,1.4-4.1,0c-0.9-1.6-1.1-3.7,0.2-5.6c1.8-2.8,3.5-5.6,5.2-8.5c0.8-1.4,1.6-2.9,2-4.5c0.4-1.2,0.8-2.8-0.6-3.6
	c-1.1-0.6-2.2,0.1-3.2,0.9c-0.8,0.6-1.6,1.2-3.1,0.5c4.1-10.9,8.1-21.8,12.3-32.6C324.3,255.3,324.2,251.8,326.1,255z"/>
<path class="st10" d="M308.4,349.6c-1.7-2.4,0.8-3.5,1.9-5c3.1-4.3,3.3-9.8,0-14c-3.1-4-0.6-8,0.3-11.8c0.7-3,3.9-3,6.2-3
	c9.7,0,8.8-1.4,7.1,7.8c-1.6,8.7-3.3,17.3-5.4,25.8c-2.3,9.5-5.1,18.9-8,29.3c-1.7-4.9-3-8.8-4.4-12.7c-0.7-2,0-3.4,1.4-4.9
	c2.4-2.5,4.6-5.3,5.4-8.8c0.3-1.2,0.8-2.8-0.4-3.8C311,347.5,309.9,349,308.4,349.6z"/>
<path class="st13" d="M264.7,271.1c-0.4,0.9-0.8,1.4-1.3,2.1c-0.2-9.3-0.2-18.7-0.2-28.9c3.2,2.3,5.1,5.1,7.3,7.7
	c1.6,1.9,3.2,3.8,5,5.6c1.1,1.1,2.3,3.2,4,1.8c1.3-1,0.6-3.2-0.1-4.7c-2.6-5.9-6.5-11.2-11.7-14.6c-5-3.3-5.2-7.1-4.3-11.9
	c14.5,7.7,23.8,25.2,22,41.4c-3.6-0.8-6.5-3.4-10.3-3.4C270.9,266.1,266.6,265.7,264.7,271.1z"/>
<path class="st14" d="M201.4,316.5c8.5,0.8,7.3,8.6,11.7,13.8c-3-0.9-4.8-1.9-6.1-0.1c-1.4,1.9-0.4,3.7,0.3,5.6
	c5.8,16,6.1,32.1,1,49.2c-2.6-5.7-3.1-11.2-3.9-16.5C202,351.3,200.3,334,201.4,316.5z"/>
<path class="st14" d="M211,283.8c-5.1,0.8-5.9,2.3-3.5,6.2c4.4,7.1,8.8,14.1,11.1,22.2c0.5,1.7,1.6,3.3,0.9,5.2
	c-5.3-2.1-9.4-5.6-11.3-11.1c-0.2-0.5-0.4-1-0.7-1.3c-11.4-13.9-7.2-30.1-7.1-47.1c6.2,8.3,8.7,16.7,11.8,25.3
	C212.1,283.6,211.8,283.8,211,283.8z"/>
<path class="st14" d="M322.1,230.9c1.1,3,1.7,6.2,2.3,9.5c0.2,1,0.3,1.9-0.4,2.8c-10.2,13.8-13.6,30.3-18.2,46.3
	c-0.6,2.1-0.4,4.7,0.2,6.9c0.5,1.8,1.5,3.2-0.9,3.7c-2.3,0.5-3.3-0.8-3.4-3.1c-0.1-6.3,0.2-12.6,1.6-18.8c2-9.1,5.6-17.7,8.1-26.6
	C313.5,243.8,316.7,237.2,322.1,230.9z"/>
<path class="st12" d="M181.2,339.7c1.5-8,4.3-15.2,7.1-22.5c0.7-1.7,1.5-2.3,3.3-2c1.8,0.3,2,1.3,2,2.8c0.6,20.1,1.9,40.2,5.4,60.1
	c0.1,0.6-0.2,1.3-0.4,2.8c-5.6-8.8-7.4-18-8.6-27.2c-0.6-4.6-0.7-9.3,0-14c0.3-2.1,1-4.7-1.4-5.8c-3-1.3-3.8,1.7-5.1,3.5
	c-0.4,0.5-0.6,1.2-1.2,2C181.8,339.8,181.6,339.9,181.2,339.7z"/>
<path class="st12" d="M328.7,336.6c0.8-6.4,2-12.6,3-18.8c0.3-1.7,0.9-2.8,2.6-3.2c5.8-1.2,10.9-3.7,15.6-9.2
	c0,9.4-1.7,17.3-3.1,25.6c-0.2,0.6-0.4,0.8-0.8,0.8c-2-4.3-2.2-9-5.3-12.4c-0.7-0.8-1.4-2.1-2.7-1.7c-1.5,0.4-1,1.9-1.1,3
	c-0.2,2.9,0.7,5.6,1.5,8.3c1.8,6.2,2.3,12.7,3.5,19c0.4,2.4,0,4.6-1.4,7c-1.9-5.3-3.1-10.5-3.6-15.9c-0.4-4.7-2.4-5.6-6.6-2.8
	C329.6,336.6,329.3,336.7,328.7,336.6z"/>
<path class="st13" d="M201.4,242.4c0.4-0.8,0-1.8,1.1-1.6c1.3,0.3,2.5,2.6,3.8,1c1.3-1.6,0.9-3.8,0.1-5.7c-1.5-3.4-4.6-6.2-3.4-10.5
	c0-0.1,0.1-0.3,0.4-1c5,4.8,8,10.6,11.4,16.2c-5.4,2.4-6.3,5-3.5,10.2c4.4,8.4,9.2,16.6,10.9,26.1c0.7,3.6,0,6.8-2,10.2
	c-2.3-7.7-4.5-15-7.5-22c-2.1-4.9-4.4-9.8-8.6-13.3C201,249.5,200.4,246.5,201.4,242.4z"/>
<path class="st15" d="M195.4,208c-4.1,4.3-4.1,4.4,1,6.3c1.2,0.4,0.9,1.1,0.8,1.9c-0.2,3-0.3,6-0.7,9c-0.4,3.3-1.2,5.9-4.4,8.2
	c-3.3,2.4-5.7,6.1-9.5,10.3c2.6-8.5,7.1-14.3,10.1-20.9c0.9-2,2.4-4.2-0.1-5.7c-2.4-1.6-4,0.5-5.4,2.2c-5.9,7.3-11.8,14.7-18.3,21.6
	c2.9-17.4,14.8-27.8,28.4-37.2C198.6,206,197.2,206.9,195.4,208z"/>
<path class="st12" d="M194.5,248.1c-0.2,3.5-1.5,6-3.2,8.6c-6.5,10-12.2,20.6-17.6,31.3c-0.6,1.3-1.4,2.5-2.5,3.6
	c0.7-9.4-0.3-18.8,6.3-27.1c4.9-6.2,8.2-13.7,13.3-19.8c1-1.2,1.7-2.8,3.7-3.5C194.6,243.4,194.6,245.5,194.5,248.1z"/>
<path class="st13" d="M188.1,302.9c-1.6,1.7-1.4,5.3-5,3.5c-3.8-1.9-7.2-6.4-6.1-9.1c4.4-10.7,10.2-20.7,16.2-30.7
	c0.3,5.1,1.6,10.1-3,14.4c-3,2.8-4.7,6.8-6.1,10.7c-0.4,1.1-1,2.7,0.5,3.6c1.1,0.7,2.2-0.2,3.1-1c1.6-1.4,3.1-2.9,4.6-4.3
	C194.4,295.3,192.3,299.3,188.1,302.9z"/>
<path class="st14" d="M280.3,357.7c0.1,2.7,0.1,5,0.1,8.3c-6.6-5.3-11.2-11.6-19.4-14.6c3-1.2,5.6,0.4,7.3-1.1
	c2.7-2.4-0.7-3.6-1.2-5.3c3.6-1,7.2-2,11.3-3.2C279.1,347,279.7,352.1,280.3,357.7z"/>
<path class="st11" d="M262.7,379.2c3.7,4.9,6.3,10.1,8.5,15.5c1.9,4.4-0.5,8.5-1.5,12.6c-0.7,3-1.7,6-4.1,9.5
	c-1.8-12.7-4-24.4-3.5-36.8C262.2,379.3,262.4,379.1,262.7,379.2z"/>
<path class="st14" d="M253.7,233.4c0.5-0.9,0.8-1.7,1.3-1.9c0.9-0.4,1,0.5,1,1.1c0,4.5,0,9,0,13.5c0,0.4-0.2,1.2-0.4,1.3
	c-7.5,2.2-10.9,10.2-18.6,12.6C239,248.9,246.9,241.7,253.7,233.4z"/>
<path class="st13" d="M222.4,239.3c-0.6,0.5-0.8,2.5-1.5,0.6c-3.5-8.9-8.9-16.6-15.6-23.5c-3.3-3.4,0-7.7,0.1-11.7
	c1.8,5.7,6.2,9.3,9.7,13.6C219.6,224.3,222.6,231.2,222.4,239.3z"/>
<path class="st16" d="M328.2,336.7c0.4-0.3,0.7-0.3,1.3-0.2c1.7,15.7-2.6,29.9-10.8,43c-0.5,0.8-0.6,1.9-2.7,2.2
	C320.9,366.8,325.3,352.1,328.2,336.7z"/>
<path class="st11" d="M256.8,71.4c-0.3-0.6-0.4-1.1-0.2-1.6c0.8-2.5,0.7-6.4,2.9-7.1c3.7-1.2,7.9-0.8,11.9-0.8c1.7,0,1.7,1.8,2.2,3
	c1,2.2,1.8,4.6,3,7.7C269.7,71.3,263.4,71.1,256.8,71.4z"/>
<path class="st13" d="M178,325.7c-0.9,2.7-1.7,5-2.8,8.2c-2-9-3-17.2-2.1-26.1c3.3,2,5.4,4.4,8.3,5.5c1.8,0.7,0.6,2,0.3,2.9
	C180.6,319.2,179.3,322.2,178,325.7z"/>
<path class="st16" d="M312.5,231.7c-3.1,5.6-6.7,10.8-11.2,15.3c1.6-10.5,4.2-20.7,9.5-30.1c-0.7,3.7-1.5,7.4-1.9,11.1
	c-0.1,1.3-1.3,4,2.5,3.5C311.9,231.4,312.1,231.4,312.5,231.7z"/>
<path class="st17" d="M262.9,379c0,0.4-0.4,0.5-0.6,0.5c-0.2-5.6-0.2-11.2-0.2-17.4c5,5.3,8.8,10.7,10.5,18
	c-3.8-1.3-3.8-7.2-8.5-5.4C262.3,375.4,262.5,377.1,262.9,379z"/>
<path class="st15" d="M263.4,197.2c3.3,3.3,1.6,6.5,0.6,9.8c-0.6,1.8-1.9,1.5-3.2,1.4c-1.3-0.1-2.6-0.3-3.1-1.9
	C256.6,202.6,259,198.2,263.4,197.2z"/>
<path class="st16" d="M312.7,230.6c2.1-5.5,4.3-10.8,6.7-16.5c1.7,3.6,1.7,7.1,2.4,10.4c0.3,1.3,0.1,2.2-1.7,2
	c-3.1-0.3-4.6,2.1-6.6,4.4C313.1,231,313,230.9,312.7,230.6z"/>
<path class="st16" d="M263.5,47.3c0.4-1,0.6-1.6,0.8-2.2c3.4,1.7,3.1,5.5,4.4,8.4c1.2,2.5-1.4,1.8-2.6,1.9
	C260.9,55.6,260.9,55.6,263.5,47.3z"/>
<path class="st17" d="M308.1,174.5c3.6-0.4,5.4,1.7,6.6,4.4c0.4,1-0.7,1.6-1.5,1.4C310.4,179.5,308,178.2,308.1,174.5z"/>
<path class="st17" d="M217.8,326.8c-0.1-0.9-0.9-2-0.3-1.9c1.7,0.2,3.7,0.6,4,2.6c0.2,1.3-0.5,2.8-0.8,4.6
	C218.7,330.7,218.9,328.6,217.8,326.8z"/>
<path class="st17" d="M201,395.7c-0.2-0.7-0.2-1.1-0.2-1.9c1.3,0.5,2.6,1.3,4.1,2.3c-0.1,0.4-0.3,0.6-0.9,0.7
	C202.8,396.4,202,396.2,201,395.7z"/>
<path class="st16" d="M285,278c-0.2,0.6-0.6,0.8-1.2,1.4c-0.9-0.4-1.7-1.1-2.7-2.1c-0.1-0.5,0-0.7,0.5-1
	C283,276.7,283.9,277.2,285,278z"/>
<path class="st18" d="M203.8,397c0-0.3,0.3-0.4,0.9-0.5c1.1,0.2,1.9,0.4,2.9,0.8c0.2,0.2,0.2,0.7,0.3,0.9
	C206.6,398,205.3,397.6,203.8,397z"/>
<path class="st18" d="M199.8,307.8c0.3-0.8-0.2-2.5,1.1-1.1c0.6,0.7,1.9,1.7,0.5,2.7C200.6,309.8,200,309,199.8,307.8z"/>
<path class="st17" d="M211.1,181.3c0.5-1.1,1.2-1.9,2-2.7c1.3,1.4-0.1,2-0.9,3C211.7,181.6,211.5,181.5,211.1,181.3z"/>
<path class="st18" d="M322.6,230.2c0,0.3-0.3,0.4-0.5,0.3c-0.1-0.8,0-1.6,0.1-3.4C322.5,228.7,322.6,229.3,322.6,230.2z"/>
<path class="st18" d="M210.7,284c0.2-0.3,0.5-0.4,1.3-0.5c1,0.5,1.1,1.2,0.4,1.5C212,285.2,211.4,284.6,210.7,284z"/>
<path class="st18" d="M345.6,331.9c0.2-0.4,0.4-0.4,0.8-0.5c0.4,0.7,0.7,1.5-0.2,2C346,333,345.7,332.6,345.6,331.9z"/>
<path class="st17" d="M210.9,182.3c-0.2,1.1-0.7,1.3-1.4,0.9c-0.1,0,0.2-0.7,0.6-1.2C210.5,181.8,210.7,181.9,210.9,182.3z"/>
<path class="st18" d="M272.8,381.1c-0.7,1.2-1,0.6-1,0C271.7,380.2,272.3,380.4,272.8,381.1z"/>
<path class="st18" d="M180.9,339.7c0.3-0.3,0.5-0.2,0.9-0.1c0,0.6-0.3,1-0.6,1.5C181,340.7,180.9,340.3,180.9,339.7z"/>
<path class="st16" d="M281.3,276.8c-0.6-0.2-1.1-0.6-1.1-0.9c0.3-0.7,1-0.5,1.7,0C281.9,276.3,281.7,276.5,281.3,276.8z"/>
<path class="st17" d="M211.7,181.4c0.1,0.4-0.1,0.7-0.6,1.1c-0.4-0.1-0.5-0.2-0.7-0.5c-0.1-0.4,0.1-0.6,0.4-0.8
	C211.1,181.1,211.3,181.2,211.7,181.4z"/>
<path class="st9" d="M241.5,266.2c0.2-0.3,0.5-0.4,0.9-0.5c0,0.2,0,0.5-0.2,0.8C241.9,266.6,241.7,266.3,241.5,266.2z"/>
<path class="st7" d="M171.7,249.3c0.4-0.8,1-1.1,0.9,0.4C172.3,249.8,172.1,249.7,171.7,249.3z"/>
<path class="st16" d="M311.9,231.5c-0.1-0.5,0.1-0.8,0.4-1.2c0.4,0,0.5,0.2,0.8,0.5c0.1,0.4,0,0.7-0.4,0.9
	C312.5,231.8,312.3,231.8,311.9,231.5z"/>
<path class="st10" d="M308,349.7c-0.3,0.1-0.7,0.3-0.7,0.3c-0.3-0.5,0.1-0.6,0.6-0.5C308,349.8,308,349.8,308,349.7z"/>
<path class="st9" d="M317.2,56.9c0.3-0.7,0.4-1,0.5-1.3c2.8-8,4.6-8.6,11.9-4.4c7.7,4.5,10.5,13.6,6.2,20
	c-4.5,6.6-14.8,7.6-21.7,2.4c-1.9-1.5-1.9-2.8-1.2-4.6C314.3,65.1,315.6,61.2,317.2,56.9z"/>
<path class="st9" d="M142.2,77.7c7.4-1.7,13.9,1.7,16.3,8.2c2.1,5.7,0.1,11.7-5,14.6c-6.1,3.4-13.8,0.9-17.3-5.6
	C132.6,88.3,134.8,81.6,142.2,77.7z"/>
<path class="st16" d="M337,425.3c0-2.7,0-5,0-8c3.3,3,6,5.6,8.8,8.2C337.6,430.6,337.3,430.6,337,425.3z"/>
<path class="st9" d="M415.8,363c6.3,2.9,9.9,7.3,10,14c0.1,5.5-3.8,9-9.3,8.4c-6.7-0.7-13.3-7.9-13.5-14.6
	C403,364.5,407.7,361.5,415.8,363z"/>
<path class="st19" d="M254.9,174.3c-2.1,0.1-3.8,0.3-5.5,0.1c-9.8-0.8-14.8-9.2-10.2-17.9c3.5-6.6,8-12.7,14.1-17.2
	c6.3-4.7,12.9-5.8,19.8-1.2c4.7,3.1,9.5,5.9,14.7,8.1c6.8,2.8,11.1,8,11,15.7c0,7.8-4.1,13.6-10.8,17.3c-5.9,3.4-11.7,1.4-17-1.6
	C266.1,175,261,173.7,254.9,174.3z"/>
<path class="st5" d="M286.3,140.4c-6.3,0.7-7.1-4.5-9.1-8c-1.9-3.4-1.5-7.3-0.9-11.2c0.6-3.7,2.9-4.2,5.8-3.5
	c6,1.4,11.2,10.4,10,16.5C291.5,137.4,289.1,138.8,286.3,140.4z"/>
<path class="st0" d="M261.7,110.2c6.2,2.1,10.8,11.7,8.5,17.2c-1.1,2.6-3,4-5.8,3.9c-3.2-0.1-5.5-2.1-6.2-4.9
	c-0.8-3.3-1.4-6.7-2.4-10c-0.8-2.6,0.3-4.9,3.5-5.8C260.2,110.1,260.7,109.9,261.7,110.2z"/>
<path class="st0" d="M243.1,113.9c6.6,1.2,12.2,9.9,10.6,16.5c-0.8,3.2-3.9,4.5-7,2.9c-4.6-2.4-8-9.7-7.2-14.8
	C239.8,116,242.2,115.9,243.1,113.9z"/>
<path class="st0" d="M233,141.3c-1.5-2.6-3.1-4.8-3.9-7.3c-1-2.7-0.1-5.2,2.5-6.9c2.8-1.8,4.1,0.4,5.8,2c3.3,3.3,5.6,7,5.8,11.7
	c0.1,2.3,0.4,4.9-2.5,5.9c-2.7,0.9-4.4-0.7-5.9-2.6C234.2,143.3,233.7,142.5,233,141.3z"/>
<path class="st3" d="M235.9,153.5c-2,5.1-4.7,6.3-8.8,3.8c-3.9-2.4-5.5-6.1-5.5-10.5c0-1.9,0-3.7,2.3-4.4c2.1-0.6,4.2-0.6,5.5,1.2
	C231.8,146.5,233.8,149.9,235.9,153.5z"/>
<path class="st4" d="M232,107.2c2.7,3.5,3.8,7.4,4.7,11.2c0.8,3.3,0.1,6.5-4.2,7c-4.3,0.5-5.5-2.3-5.7-5.8c-0.2-3.1-0.2-6.3,0.1-9.5
	C227.1,107.3,228.7,106,232,107.2z"/>
<path class="st20" d="M261.8,110.1c-0.3,0.4-0.8,0.4-1.7,0.4c-3.8-2.4-6-5.1-4.3-9.7c0.5-1.2-0.7-3.1-1.3-4.6
	c-0.7-1.8-0.7-3.4,1.1-4.4c1.4-0.8,2.8-0.2,4,0.9C264,96.7,265,105.3,261.8,110.1z"/>
<path class="st2" d="M281.9,105.5c0,2.6,0.2,4.7,0,6.9c-0.2,2.4-1.7,4-4.2,4.1c-2.7,0.1-4.3-1.3-5-3.9c-1.2-4.6,2.1-8.3,2.8-12.6
	c0.3-1.8,3-1.6,4.4,0.2C281.1,101.5,281.6,103.3,281.9,105.5z"/>
<path class="st20" d="M243.5,113.4c-0.5,0.1-0.4,0-0.4,0c-2.1,0.5-3.7-0.5-4.3-2.4c-1.3-3.8-1.6-7.8-0.5-11.7
	c0.5-1.7,1.5-3.1,3.5-2.8c1.8,0.3,2.2,1.7,2.4,3.3c0.4,2.8,0.4,5.5,1.5,8.2C246.5,110,245.9,112,243.5,113.4z"/>
<path class="st20" d="M218.4,127.6c3.6-3.7,4.9-3.5,5.9,0.9c0.5,2.3,0.8,4.5,2,6.7c1.1,2.1,1.4,4.5-1.4,5.3
	c-2.6,0.7-5.5,0.4-6.3-3.1C218,134.2,217.4,131.1,218.4,127.6z"/>
</svg>
